<?xml version="1.0" standalone="no"?>
<!DOCTYPE svg PUBLIC "-//W3C//DTD SVG 1.1//EN" "http://www.w3.org/Graphics/SVG/1.1/DTD/svg11.dtd" >
<svg xmlns="http://www.w3.org/2000/svg" xmlns:xlink="http://www.w3.org/1999/xlink" version="1.1">
<metadata>
Created by FontForge 20170731 at Sat Feb  4 13:32:40 2017
 By Aleksey,,,
Copyright 2015 The Cormorant Project Authors (github.com/CatharsisFonts/Cormorant)
</metadata>
<defs>
<font id="CormorantUnicase-Bold" horiz-adv-x="0" >
  <font-face 
    font-family="Cormorant Unicase"
    font-weight="700"
    font-stretch="normal"
    units-per-em="1000"
    panose-1="0 0 8 0 0 0 0 0 0 0"
    ascent="800"
    descent="-200"
    x-height="468"
    cap-height="625"
    bbox="-371.8 -282.154 1451.8 937"
    underline-thickness="50"
    underline-position="-150"
    unicode-range="U+0020-A729"
  />
<missing-glyph horiz-adv-x="501" 
d="M94 -275v1000h317v-1000h-317zM168 626h65v-38h-66v-32h166v32h-66v38h66v32h-165v-32zM167 426h166v34h-66v69h-100v-103zM200 460v35h33v-35h-33zM167 365h66v-36h-66v-34h100v70h66v33h-166v-33zM301 273h-134v-34h166v99h-32v-65zM233 160h34v24h34v-48h-101v80h-33
v-113h166v113h-100v-56zM167 -70h166v113h-166v-113zM200 -37v48h101v-48h-101zM167 -126h70l-70 -47v-33h166v33h-101l69 47h32v34h-166v-34z" />
    <glyph glyph-name=".notdef" horiz-adv-x="501" 
d="M94 -275v1000h317v-1000h-317zM168 626h65v-38h-66v-32h166v32h-66v38h66v32h-165v-32zM167 426h166v34h-66v69h-100v-103zM200 460v35h33v-35h-33zM167 365h66v-36h-66v-34h100v70h66v33h-166v-33zM301 273h-134v-34h166v99h-32v-65zM233 160h34v24h34v-48h-101v80h-33
v-113h166v113h-100v-56zM167 -70h166v113h-166v-113zM200 -37v48h101v-48h-101zM167 -126h70l-70 -47v-33h166v33h-101l69 47h32v34h-166v-34z" />
    <glyph glyph-name=".null" 
 />
    <glyph glyph-name="nonmarkingreturn" horiz-adv-x="333" 
 />
    <glyph glyph-name="space" unicode=" " horiz-adv-x="234" 
 />
    <glyph glyph-name="exclam" unicode="!" horiz-adv-x="263" 
d="M82 625.5q23 3.5 49 3.5t49.5 -3.5t21.5 -10.5q-22 -76 -32.5 -166t-21.5 -228q0 -10 -2 -32q0 -2 -5.5 -3.5t-11.5 -1.5t-11.5 1.5t-5.5 3.5q-9 148 -19 245.5t-32 180.5q-2 7 21 10.5zM80.5 5.5q-16.5 16.5 -16.5 44.5q0 26 16.5 42t44.5 16t43.5 -15.5t15.5 -42.5
q0 -29 -15.5 -45t-43.5 -16t-44.5 16.5z" />
    <glyph glyph-name="quotedbl" unicode="&#x22;" horiz-adv-x="302" 
d="M28 606q-1 12 32 23.5t59 11.5q9 0 13.5 -2.5t3.5 -6.5l-63 -266q-2 -2 -9 -3t-7 2zM180 606q-1 12 32 23.5t59 11.5q9 0 13.5 -2.5t3.5 -6.5l-63 -266q-2 -2 -9 -3t-7 2z" />
    <glyph glyph-name="numbersign" unicode="#" horiz-adv-x="526" 
d="M466.5 312.5q1.5 -7.5 1.5 -15.5q0 -9 -1.5 -16.5t-3.5 -7.5h-63l-27 -151h55q2 0 3.5 -7.5t1.5 -16.5t-1.5 -16.5t-3.5 -7.5h-63l-28 -157q0 -4 -26 0t-24 8l26 149h-135l-28 -157q0 -4 -26.5 0t-24.5 8l26 149h-62q-2 0 -3.5 8t-1.5 18q0 8 1.5 15t2.5 7h72l27 151h-63
q-2 0 -3.5 8t-1.5 17q0 8 1.5 15t2.5 7h72l29 162q0 5 25.5 -1t24.5 -10l-27 -151h135l29 162q0 5 25.5 -1t24.5 -10l-27 -151h55q2 0 3.5 -7.5zM322 122l26 151h-135l-27 -151h136z" />
    <glyph glyph-name="dollar" unicode="$" horiz-adv-x="422" 
d="M347 35q-44 -40 -113 -46v-91q0 -7 -14 -7q-15 0 -15 7v90q-44 1 -86 12t-58 25q-8 5 -8 21l-5 113q0 4 5 5t7 -3q35 -60 68.5 -99.5t76.5 -48.5v190l-30 16q-59 32 -90 60.5t-31 73.5q0 53 43 86.5t108 39.5v82q0 4 4.5 6t10.5 2t10 -2t4 -6v-81q31 -1 64 -7.5t53 -15.5
q9 -3 12 -7.5t3 -12.5v-95q0 -3 -5 -4.5t-7 1.5q-16 34 -45 70t-75 46v-168l24 -12q45 -24 70.5 -40.5t44 -42.5t18.5 -61q0 -56 -44 -96zM155 341.5q18 -21.5 50 -39.5v155q-35 -1 -51.5 -19t-16.5 -46q0 -29 18 -50.5zM282.5 32q19.5 19 19.5 53q0 31 -18 55t-50 45v-174
q29 2 48.5 21z" />
    <glyph glyph-name="percent" unicode="%" horiz-adv-x="574" 
d="M55.5 259.5q-37.5 37.5 -37.5 92.5q0 53 37.5 90.5t94.5 37.5t93.5 -38t36.5 -92t-36.5 -91t-93.5 -37t-94.5 37.5zM132.5 -2.5q-14.5 10.5 -13.5 13.5l318 466q3 3 17.5 -8t12.5 -14l-318 -466q-2 -2 -16.5 8.5zM190 265q8 26 8 78q0 59 -14 89.5t-40 30.5t-35.5 -28
t-9.5 -79q0 -117 58 -117q25 0 33 26zM352.5 32.5q-37.5 37.5 -37.5 92.5q0 53 37.5 90.5t94.5 37.5t93.5 -38t36.5 -92t-36.5 -91t-93.5 -37t-94.5 37.5zM487 38q8 26 8 78q0 59 -14 89.5t-40 30.5t-35.5 -28.5t-9.5 -78.5q0 -117 58 -117q25 0 33 26z" />
    <glyph glyph-name="ampersand" unicode="&#x26;" horiz-adv-x="552" 
d="M552 6q0 -6 -2 -6h-141q-22 0 -66 30q-62 -42 -147 -42q-75 0 -115 30.5t-40 73.5q0 37 25.5 65t76.5 66q-24 32 -34 54q-18 40 -18 73q0 39 22 68.5t57.5 45.5t76.5 16q42 0 77 -18t35 -58q0 -35 -25.5 -59.5t-76.5 -56.5l-26 -16q51 -79 130 -148l23 -19q17 35 17 74
q0 36 -18 56t-47 20q-3 0 -3.5 6t3.5 6l190 1q4 0 4 -6t-4 -6q-26 0 -38.5 -6t-17 -15.5t-12.5 -33.5q-19 -64 -54 -112q46 -35 85.5 -55t60.5 -22q2 0 2 -6zM223 285q50 48 50 102q0 32 -15.5 53t-36.5 21q-18 0 -28.5 -14.5t-10.5 -40.5q0 -52 41 -121zM326 42
q-31 23 -65 54q-63 57 -104 109q-21 -31 -21 -69q0 -53 35 -82t87 -29q40 0 68 17z" />
    <glyph glyph-name="quotesingle" unicode="'" horiz-adv-x="150" 
d="M28 606q-1 12 32 23.5t59 11.5q9 0 13.5 -2.5t3.5 -6.5l-63 -266q-2 -2 -9 -3t-7 2z" />
    <glyph glyph-name="parenleft" unicode="(" horiz-adv-x="309" 
d="M104.5 559q60.5 113 169.5 166q2 1 4 -1.5t0 -4.5q-63 -71 -92.5 -174t-29.5 -241t29.5 -241t92.5 -174q2 -1 0 -4t-4 -2q-109 54 -169.5 166.5t-60.5 254.5t60.5 255z" />
    <glyph glyph-name="parenright" unicode=")" horiz-adv-x="309" 
d="M204.5 49q-60.5 -113 -169.5 -166q-2 -1 -4 1.5t0 4.5q63 71 92.5 174t29.5 241t-29.5 241t-92.5 174q-2 1 0 4t4 2q109 -54 169.5 -166.5t60.5 -254.5t-60.5 -255z" />
    <glyph glyph-name="asterisk" unicode="*" horiz-adv-x="448" 
d="M200 657q-2 11 37.5 21.5t66.5 10.5q12 0 11 -4l-79 -156q-1 -3 -5.5 -3t-4.5 3zM73 526q-9 2 -9 30t6.5 60.5t11.5 27.5l125 -124q2 -2 0.5 -6t-3.5 -3zM250 504q-2 0 -3.5 4t1.5 5l113 65q9 4 26.5 -20.5t30.5 -53t7 -27.5zM152 363q-13 0 -39.5 10.5t-47 23
t-15.5 14.5l156 80l2 1q3 0 5.5 -2.5t1.5 -4.5l-55 -119q-1 -3 -8 -3zM232 481v1q0 2 4 4.5t5 1.5l96 -89q7 -6 -11 -30.5t-41 -45t-24 -14.5z" />
    <glyph glyph-name="plus" unicode="+" horiz-adv-x="398" 
d="M367.5 241.5q1.5 -7.5 1.5 -16.5t-1.5 -17t-3.5 -8h-141v-140q0 -2 -9 -3.5t-19 -1.5q-21 0 -21 3v142h-140q-2 0 -3.5 8t-1.5 18q0 9 1 16t3 7h141v140q0 2 8 3.5t17 1.5t16.5 -1.5t7.5 -3.5v-140h141q2 0 3.5 -7.5z" />
    <glyph glyph-name="comma" unicode="," horiz-adv-x="222" 
d="M155.5 79q19.5 -27 19.5 -77q0 -45 -20 -83.5t-60 -77.5q-1 -1 -3 -1q-3 0 -5 3t0 5q49 50 49 118q0 28 -10 41q-9 -15 -37 -15q-24 0 -38.5 15.5t-14.5 40.5q0 27 17.5 42.5t47.5 15.5q35 0 54.5 -27z" />
    <glyph glyph-name="hyphen" unicode="-" horiz-adv-x="282" 
d="M28.5 206.5q-1.5 9.5 -1.5 20.5q0 24 3 24l214 36q2 1 3.5 -7.5t1.5 -18.5t-1.5 -18.5t-3.5 -9.5l-212 -35q-2 -1 -3.5 8.5z" />
    <glyph glyph-name="period" unicode="." horiz-adv-x="207" 
d="M60.5 5.5q-16.5 16.5 -16.5 44.5q0 26 16.5 42t44.5 16t43.5 -15.5t15.5 -42.5q0 -29 -15.5 -45t-43.5 -16t-44.5 16.5z" />
    <glyph glyph-name="slash" unicode="/" horiz-adv-x="351" 
d="M48.5 -162.5q-23.5 6.5 -22.5 10.5l252 882q2 4 25 -2.5t22 -11.5l-251 -881q-2 -4 -25.5 2.5z" />
    <glyph glyph-name="zero" unicode="0" horiz-adv-x="547" 
d="M152 18.5q-54 31.5 -84.5 88t-30.5 129.5q0 71 30.5 126t85 85.5t123.5 30.5q68 0 121.5 -31t83 -86.5t29.5 -127.5t-30 -128t-83.5 -87t-121.5 -31q-69 0 -123 31.5zM366 65q26 57 26 156q0 78 -17.5 131t-46 79t-63.5 26q-53 0 -83 -59t-30 -155q0 -68 16.5 -121.5
t47 -83.5t71.5 -30q53 0 79 57z" />
    <glyph glyph-name="one" unicode="1" horiz-adv-x="344" 
d="M50 6q0 6 3 6q33 0 49 5.5t22 19.5t6 44v273q0 55 -35 55q-18 0 -42 -10l-2 -1q-4 0 -6 5t2 6l171 72h2q2 0 4.5 -2.5t2.5 -4.5v-393q0 -31 5 -45t20.5 -19t50.5 -5q2 0 2 -6t-2 -6q-33 0 -51 1l-74 1l-73 -1q-19 -1 -52 -1q-3 0 -3 6z" />
    <glyph glyph-name="two" unicode="2" horiz-adv-x="449" 
d="M104 93q61 70 93 111t52.5 80.5t20.5 73.5q0 37 -22 66.5t-62 29.5q-44 0 -72 -34.5t-58 -102.5q0 -2 -4 -2q-3 0 -6 1.5t-2 2.5l44 171q0 2 4 2q3 0 5.5 -1.5t1.5 -2.5q-1 -5 -1 -12q0 -18 15 -18q12 0 34 8q30 8 47.5 11.5t40.5 3.5q64 0 103 -34.5t39 -89.5
q0 -34 -16 -61.5t-39.5 -48.5t-66.5 -54q-39 -29 -67 -53t-52 -53q-6 -7 4 -7q131 0 181.5 3t67.5 12.5t25 34.5q1 3 6.5 3t5.5 -3l-10 -119q0 -4 -2.5 -7.5t-6.5 -3.5h-365q-4 0 -6.5 4t-0.5 8q36 43 69 81z" />
    <glyph glyph-name="three" unicode="3" horiz-adv-x="444" 
d="M347.5 179.5q41.5 -38.5 41.5 -94.5q0 -74 -85 -139.5t-250 -102.5q-4 -1 -5.5 5t1.5 7q122 32 174.5 92t52.5 127q0 48 -26.5 83t-75.5 35q-29 0 -50 -8l-2 -1q-4 0 -6 4t1 6q33 20 84 25q29 35 40.5 63t11.5 64q0 47 -20.5 76.5t-60.5 29.5q-50 0 -81.5 -27t-49.5 -89
q0 -2 -5 -2q-3 0 -5.5 1.5t-1.5 2.5l39 152q0 1 4 1q10 0 8 -3q-2 -8 -2 -12q0 -9 5 -13.5t12 -4.5q11 0 32 8q46 16 85 16q60 0 103.5 -31t43.5 -79q0 -77 -125 -152q71 -1 112.5 -39.5z" />
    <glyph glyph-name="four" unicode="4" horiz-adv-x="480" 
d="M447 30q0 -10 -2 -19.5t-4 -9.5l-66 3v-139q0 -10 -8 -14l-78 -39l-6 -2q-3 0 -3 8v188q-69 2 -258 2q-5 0 -7 4t0 8l345 458q2 3 6 3q3 0 6 -2t3 -5v-428q20 0 68 2q4 0 4 -18zM280 44v273l-203 -268q-4 -7 5 -7q86 0 198 2z" />
    <glyph glyph-name="five" unicode="5" horiz-adv-x="433" 
d="M311.5 233q70.5 -44 70.5 -122t-73.5 -140t-241.5 -129h-1q-4 0 -6.5 4.5t1.5 6.5q114 59 161 117.5t47 123.5q0 74 -52 114.5t-150 40.5q-5 0 -8 3.5t-2 8.5l32 178q1 7 2.5 8.5t10.5 2.5q138 15 185.5 21t61 12.5t18.5 21.5q1 3 6.5 2.5t4.5 -4.5l-20 -115
q-4 -11 -9.5 -14t-18.5 -3l-212 -5q-12 0 -15 -14l-14 -74q152 -1 222.5 -45z" />
    <glyph glyph-name="six" unicode="6" horiz-adv-x="501" 
d="M429 257q34 -37 34 -91q0 -53 -26 -93.5t-73.5 -63t-109.5 -22.5q-58 0 -105 32t-73.5 90t-26.5 131q0 88 42 166.5t124.5 133t196.5 68.5q3 1 4.5 -4t-2.5 -6q-82 -18 -138.5 -69t-84 -121.5t-27.5 -147.5q0 -65 15 -122t42 -92t62 -35t49.5 33t14.5 96q0 57 -17 89.5
t-49 32.5q-18 0 -32 -7.5t-30 -25.5l-2 -1q-4 0 -7.5 3t-1.5 5q21 28 51.5 43t67.5 15q68 0 102 -37z" />
    <glyph glyph-name="seven" unicode="7" horiz-adv-x="476" 
d="M220 -127l-105 -31h-1q-2 0 -4.5 2.5t-1.5 4.5l272 521q4 7 -5 7q-167 0 -227 -4t-76 -16t-26 -48q-1 -3 -5 -3q-3 0 -5.5 1.5t-1.5 3.5l43 184q1 2 7 1.5t5 -2.5q-1 -4 -1 -10q0 -10 9.5 -13t38.5 -3h300q5 0 7.5 -4.5t0.5 -8.5l-203 -558q-8 -17 -21 -24z" />
    <glyph glyph-name="eight" unicode="8" horiz-adv-x="571" 
d="M434 315.5q32 -22.5 54 -56t22 -79.5q0 -54 -32 -98.5t-85.5 -69.5t-116.5 -25t-112 25.5t-76 67.5t-27 90q0 54 33 100t85 78q-32 25 -49.5 54t-17.5 67q0 45 26 76.5t65.5 47.5t80.5 16q48 0 84.5 -17.5t56 -44t19.5 -53.5q0 -37 -26.5 -72t-67.5 -55q52 -29 84 -51.5z
M228 568.5q-15 -22.5 -15 -58.5q0 -41 29 -70t86 -61q11 30 11 91q0 49 -20.5 85t-51.5 36q-24 0 -39 -22.5zM374 45q27 33 27 84q0 41 -20 71.5t-48.5 51.5t-77.5 49l-46 27q-38 -51 -38 -130q0 -50 17 -92.5t47.5 -68t69.5 -25.5q42 0 69 33z" />
    <glyph glyph-name="nine" unicode="9" horiz-adv-x="501" 
d="M83 213.5q-34 40.5 -34 98.5q0 49 25 87.5t70 59.5t103 21q61 0 110.5 -31.5t77.5 -88t28 -127.5q0 -89 -44 -172.5t-127.5 -141.5t-197.5 -72q-4 -1 -5 4t2 6q82 18 140.5 73t88 130t29.5 153q0 63 -15 119t-42.5 90t-62.5 34t-49.5 -30t-14.5 -88q0 -62 17 -97.5
t50 -35.5q17 0 31 7t31 25q1 1 3 1q3 0 5.5 -3t1.5 -5q-21 -28 -51.5 -42.5t-67.5 -14.5q-68 0 -102 40.5z" />
    <glyph glyph-name="colon" unicode=":" horiz-adv-x="207" 
d="M60.5 344.5q-16.5 16.5 -16.5 44.5q0 26 16.5 42t44.5 16t43.5 -15.5t15.5 -42.5q0 -29 -15.5 -45t-43.5 -16t-44.5 16.5zM60.5 5.5q-16.5 16.5 -16.5 44.5q0 26 16.5 42t44.5 16t43.5 -15.5t15.5 -42.5q0 -29 -15.5 -45t-43.5 -16t-44.5 16.5z" />
    <glyph glyph-name="semicolon" unicode=";" horiz-adv-x="226" 
d="M62.5 344.5q-16.5 16.5 -16.5 44.5q0 26 16.5 42t44.5 16t43.5 -15.5t15.5 -42.5q0 -29 -15.5 -45t-43.5 -16t-44.5 16.5zM159.5 79q19.5 -27 19.5 -77q0 -45 -20 -83.5t-60 -77.5q-1 -1 -3 -1q-3 0 -5 3t0 5q49 50 49 118q0 28 -10 41q-9 -15 -37 -15q-24 0 -38.5 15.5
t-14.5 40.5q0 27 17.5 42.5t47.5 15.5q35 0 54.5 -27z" />
    <glyph glyph-name="less" unicode="&#x3c;" horiz-adv-x="407" 
d="M377 93q0 -24 -7 -21l-334 148q-5 3 -5 17q0 15 5 17l334 147q3 2 5 -4t2 -16q0 -24 -7 -28l-272 -116l272 -116q7 -3 7 -28z" />
    <glyph glyph-name="equal" unicode="=" horiz-adv-x="468" 
d="M30.5 291q-1.5 8 -1.5 17q0 8 1.5 15t2.5 7h401q2 0 3.5 -7.5t1.5 -15.5q0 -9 -1.5 -16.5t-3.5 -7.5h-400q-2 0 -3.5 8zM30.5 151q-1.5 8 -1.5 17q0 8 1.5 15t2.5 7h401q2 0 3.5 -7.5t1.5 -15.5q0 -9 -1.5 -16.5t-3.5 -7.5h-400q-2 0 -3.5 8z" />
    <glyph glyph-name="greater" unicode="&#x3e;" horiz-adv-x="407" 
d="M376 236q0 -14 -5 -17l-334 -147q-3 -1 -5 5t-2 15t2 18t5 10l272 116l-272 116q-3 2 -5 10.5t-2 17.5q0 10 2 16.5t5 4.5l334 -148q5 -2 5 -17z" />
    <glyph glyph-name="question" unicode="?" horiz-adv-x="339" 
d="M145 595q-6 -11 -8 -30q-2 -28 -13.5 -48.5t-43.5 -20.5q-26 0 -38 14t-12 33q0 35 38.5 58.5t96.5 23.5q65 0 109.5 -31t44.5 -88q0 -38 -19 -62.5t-56 -54.5l-22 -18q-31 -27 -45 -56.5t-14 -66.5q0 -15 5 -53q2 -3 -6 -5t-10 1q-12 27 -19 62t-7 59q0 30 9.5 49.5
t28.5 43.5q21 26 32.5 50.5t11.5 63.5q0 38 -11.5 62.5t-31.5 24.5q-14 0 -20 -11zM108.5 5.5q-16.5 16.5 -16.5 44.5q0 26 16.5 42t44.5 16t43.5 -15.5t15.5 -42.5q0 -29 -15.5 -45t-43.5 -16t-44.5 16.5z" />
    <glyph glyph-name="at" unicode="@" horiz-adv-x="729" 
d="M402 144q0 16 4 32l2 7q-34 -46 -72.5 -73t-72.5 -27q-25 0 -41.5 16t-16.5 51q0 6 2 22q8 54 42.5 104t81 81.5t87.5 31.5q15 0 28.5 -6t21.5 -18q28 11 34 31q2 2 6 2t7 -1t4 -2l-41 -224q-2 -8 -2 -23q0 -37 37 -37q24 0 49 17.5t42 52.5t17 84q0 67 -32.5 123
t-89 88.5t-127.5 32.5q-76 0 -131.5 -37.5t-85 -101.5t-29.5 -140q0 -82 34 -143.5t96 -95t145 -33.5q47 0 86.5 11t80.5 40h1q3 0 5.5 -3.5t-0.5 -4.5q-52 -44 -103 -61t-106 -17q-84 0 -152.5 33.5t-108.5 97t-40 150.5q0 95 47.5 170t126.5 116.5t169 41.5
q80 0 141 -32.5t94.5 -86t33.5 -116.5q0 -58 -28 -106.5t-76 -77t-105 -28.5q-65 0 -65 59zM356.5 170.5q24.5 23.5 45.5 60.5t28 73q2 14 2 20q0 19 -6.5 30.5t-18.5 11.5q-35 0 -67 -43t-44 -100q-5 -22 -5 -39q0 -16 5.5 -26.5t16.5 -10.5q19 0 43.5 23.5z" />
    <glyph glyph-name="A" unicode="A" horiz-adv-x="716" 
d="M722 6q0 -6 -5 -6q-20 0 -62 2q-44 2 -63 2q-25 0 -61 -2q-34 -2 -54 -2q-4 0 -4 6t4 6q26 0 37.5 5.5t11.5 19.5q0 17 -20 57l-104 205h-178l-71 -157q-13 -29 -13 -54q0 -36 25.5 -56t68.5 -20q5 0 5 -6t-5 -6q-18 0 -52 2q-38 2 -66 2q-27 0 -65 -2q-34 -2 -55 -2
q-4 0 -4 6t4 6q28 0 47 11.5t38 41t45 87.5l217 477q2 3 9 3q8 0 9 -3l250 -492q35 -71 58 -98t48 -27q5 0 5 -6zM237 327h151l-80 158z" />
    <glyph glyph-name="B" unicode="B" horiz-adv-x="595" 
d="M493.5 295q49.5 -46 49.5 -114q0 -52 -30 -94t-83 -66.5t-118 -24.5q-28 0 -64 3q-14 1 -34.5 2t-45.5 1l-73 -1q-20 -1 -54 -1q-3 0 -3 6t3 6q29 0 44 5.5t21.5 20t6.5 43.5v463q0 42 -14 55.5t-57 13.5q-2 0 -2 6t2 6l53 -1q46 -2 73 -2q28 0 58 3q10 1 30 2t35 1
q91 0 141 -33t50 -96q0 -48 -31.5 -87t-90.5 -61q84 -10 133.5 -56zM236 592.5q-11 -13.5 -11 -50.5v-190l40 -1q52 0 80 39t28 100q0 57 -25 86.5t-72 29.5q-29 0 -40 -13.5zM426 157q0 77 -37 122t-112 45q-29 0 -52 -2v-241q0 -33 13 -46.5t57 -13.5q131 0 131 136z" />
    <glyph glyph-name="C" unicode="C" horiz-adv-x="669" 
d="M513 628.5q48 -7.5 75 -19.5q9 -3 11.5 -7.5t4.5 -15.5l12 -139q0 -3 -5 -4t-6 3q-34 79 -91 122t-132 43q-99 0 -153 -73t-54 -196q0 -92 29.5 -168t83 -120.5t121.5 -44.5q64 0 114.5 42.5t90.5 129.5q1 4 6.5 3t5.5 -4l-15 -136q-2 -12 -4.5 -15.5t-11.5 -7.5
q-89 -33 -183 -33q-122 0 -204 48.5t-120.5 123t-38.5 155.5q0 95 51.5 168t137 113t183.5 40q44 0 92 -7.5z" />
    <glyph glyph-name="D" unicode="D" horiz-adv-x="705" 
d="M250 -1q-16 1 -39.5 2t-52.5 1l-74 -1q-20 -1 -54 -1q-2 0 -2 6t2 6q32 0 47 5t20.5 19.5t5.5 44.5v463q0 30 -5.5 44t-20 19.5t-45.5 5.5q-3 0 -3 6t3 6l53 -1q46 -2 73 -2q41 0 84 3q52 2 70 2q101 0 179.5 -40t121.5 -109t43 -155q0 -97 -44.5 -171.5t-120 -115
t-165.5 -40.5q-32 0 -76 3zM429 51.5q49 32.5 76.5 96.5t27.5 153q0 85 -26 154.5t-74 109.5t-111 40q-62 0 -85 -12t-23 -51v-450q0 -40 21 -56.5t81 -16.5q64 0 113 32.5z" />
    <glyph glyph-name="E" unicode="E" horiz-adv-x="552" 
d="M500 161q3 0 5.5 -1.5t2.5 -2.5q-10 -78 -10 -142q0 -8 -3 -11.5t-12 -3.5h-442q-3 0 -3 6t3 6q32 0 46.5 5t19.5 19.5t5 44.5v463q0 30 -5 44t-20 19.5t-46 5.5q-3 0 -3 6t3 6h424q10 0 10 -9l2 -133q0 -2 -5.5 -3t-6.5 2q-16 58 -54 86t-100 28h-30q-30 0 -44 -13
t-14 -40v-204h83q58 0 89 20t31 56q0 3 5.5 3t5.5 -3l-1 -90l1 -48q2 -34 2 -54q0 -2 -6 -2t-6 2q0 41 -31.5 64.5t-90.5 23.5h-82v-226q0 -29 11 -43t35 -14h33q78 0 125 32t69 99q0 2 4 2z" />
    <glyph glyph-name="F" unicode="F" horiz-adv-x="522" 
d="M477 483q0 -2 -5.5 -3t-6.5 2q-16 58 -54 86t-100 28h-30q-30 0 -44 -13t-14 -40v-216h72q58 0 88.5 20.5t30.5 56.5q0 2 6 2t6 -2l-1 -91q0 -32 1 -48l1 -53q0 -3 -6 -3t-6 3q0 40 -31.5 63.5t-89.5 23.5h-71v-214q0 -31 8 -46t30 -21t69 -6q2 0 2 -6t-2 -6q-41 0 -64 1
l-102 1l-75 -1q-20 -1 -55 -1q-3 0 -3 6t3 6q35 0 51 5t21.5 19.5t5.5 44.5v463q0 30 -5 44t-20 19.5t-46 5.5q-3 0 -3 6t3 6h424q10 0 10 -9z" />
    <glyph glyph-name="G" unicode="G" horiz-adv-x="719" 
d="M217 30q-82 42 -125 114.5t-43 161.5q0 96 49.5 171.5t136 117t193.5 41.5q47 0 95 -7.5t77 -19.5q9 -3 11.5 -7.5t3.5 -15.5l13 -139q0 -3 -5 -4t-7 3q-35 77 -96.5 120t-140.5 43q-102 0 -155.5 -71t-53.5 -194q0 -99 34 -176.5t94.5 -120t135.5 -42.5q41 0 63 9t32 35
t10 77q0 52 -6 72.5t-25.5 27.5t-67.5 7q-6 0 -6 8q0 3 1.5 5.5t3.5 2.5q85 -5 137 -5q51 0 106 3q2 0 3.5 -2.5t1.5 -4.5q0 -7 -5 -7q-18 1 -25 -6.5t-9 -30t-2 -80.5q0 -45 3.5 -64t3.5 -24q0 -6 -2.5 -8t-9.5 -4q-129 -28 -232 -28q-110 0 -192 42z" />
    <glyph glyph-name="H" unicode="H" horiz-adv-x="764" 
d="M735 6q0 -6 -3 -6q-35 0 -56 1l-77 1l-90 -1q-18 -1 -49 -1q-3 0 -3 6t3 6q37 0 54 5t23 19t6 45v230h-323v-230q0 -30 6 -44.5t23 -19.5t54 -5q2 0 2 -6t-2 -6q-35 0 -56 1l-87 1l-75 -1q-20 -1 -55 -1q-2 0 -2 6t2 6q35 0 51 5t22 19.5t6 44.5v463q0 30 -6 44
t-21.5 19.5t-49.5 5.5q-3 0 -3 6t3 6l54 -1q46 -2 74 -2q38 0 88 2l55 1q2 0 2 -6t-2 -6q-36 0 -53 -6t-23.5 -20.5t-6.5 -44.5v-203h323v203q0 30 -6 44.5t-23 20.5t-54 6q-3 0 -3 6t3 6l49 -1q50 -2 90 -2q27 0 77 2l56 1q3 0 3 -6t-3 -6q-34 0 -50.5 -5.5t-22 -19.5
t-5.5 -44v-463q0 -30 5.5 -44.5t21.5 -19.5t51 -5q3 0 3 -6z" />
    <glyph glyph-name="I" unicode="I" horiz-adv-x="342" 
d="M232 36q5 -14 19.5 -19t46.5 -5q3 0 3 -6t-3 -6q-33 0 -52 1l-76 1l-74 -1q-20 -1 -54 -1q-2 0 -2 6t2 6q32 0 47 5t20.5 19.5t5.5 44.5v463q0 30 -5.5 44t-20.5 19.5t-47 5.5q-2 0 -2 6t2 6l54 -1q46 -2 74 -2q31 0 77 2l51 1q3 0 3 -6t-3 -6q-31 0 -46 -6t-20 -20.5
t-5 -44.5v-461q0 -31 5 -45z" />
    <glyph glyph-name="J" unicode="J" horiz-adv-x="339" 
d="M301 619q0 -6 -3 -6q-26 0 -38.5 -6t-16.5 -20.5t-4 -44.5v-546q0 -112 -55.5 -175t-154.5 -63q-38 0 -62 16t-24 44q0 20 13 35.5t39 15.5q25 0 38.5 -15t24.5 -42q6 -16 12 -24.5t15 -8.5q21 0 31 34t10 113v618q0 30 -6.5 44t-23.5 19.5t-54 5.5q-2 0 -2 6t2 6l62 -1
q48 -2 77 -2q28 0 70 2l47 1q3 0 3 -6z" />
    <glyph glyph-name="K" unicode="K" horiz-adv-x="655" 
d="M667 6q0 -6 -3 -6h-112q-16 0 -27 -1t-18 -1q-16 0 -27.5 7.5t-28 27.5t-58.5 77q-5 7 -11.5 15.5t-14.5 19.5l-131 176l-22 -22v-218q0 -31 5 -45t19.5 -19t46.5 -5q4 0 4 -6t-4 -6q-33 0 -52 1l-75 1l-74 -1q-20 -1 -54 -1q-2 0 -2 6t2 6q32 0 47 5t20.5 19.5t5.5 44.5
v463q0 30 -5.5 44t-20 19.5t-45.5 5.5q-3 0 -3 6t3 6l53 -1q46 -2 73 -2q30 0 76 2l51 1q3 0 3 -6t-3 -6q-31 0 -45.5 -6t-20 -20.5t-5.5 -44.5v-212l188 192q29 29 29 53q0 18 -16 28t-45 10q-3 0 -3 6t3 6l47 -1q44 -2 82 -2q41 0 85 2l45 1q3 0 3 -6t-3 -6
q-46 0 -101 -26.5t-100 -70.5l-113 -115l148 -200q65 -93 97.5 -131.5t52.5 -48t51 -9.5q3 0 3 -6z" />
    <glyph glyph-name="L" unicode="L" horiz-adv-x="545" 
d="M213 85q0 -26 4 -37.5t15.5 -15.5t37.5 -4h34q78 0 135 41.5t76 112.5q0 2 4 2q2 0 4.5 -1.5t2.5 -2.5q-9 -99 -9 -165q0 -8 -3.5 -11.5t-11.5 -3.5h-472q-2 0 -2 6t2 6q32 0 46.5 5t20 19.5t5.5 44.5v463q0 30 -5.5 44t-20.5 19.5t-46 5.5q-2 0 -2 6t2 6l51 -1
q46 -2 76 -2t76 2l51 1q3 0 3 -6t-3 -6q-31 0 -46 -5.5t-20 -20t-5 -44.5v-458z" />
    <glyph glyph-name="M" unicode="M" horiz-adv-x="857" 
d="M835 6q0 -6 -2 -6q-34 0 -54 1l-74 1l-75 -1q-19 -1 -52 -1q-3 0 -3 6t3 6q42 0 57 10t15 42l-1 17l-21 409l-206 -483q-2 -4 -8 -4t-8 4l-253 481l-8 -361q-1 -54 21.5 -84.5t63.5 -30.5q3 0 3 -6t-3 -6q-27 0 -42 1l-55 1l-63 -1q-16 -1 -43 -1q-3 0 -3 6t3 6
q41 0 65 31t25 84l9 414l-1 1q-20 37 -41.5 54t-49.5 17q-3 0 -3 6t3 6l47 -1q14 -1 36 -1l53 1q9 1 23 1q13 0 20 -9t26 -43l218 -409l190 436q6 14 12.5 19.5t17.5 5.5q9 0 20.5 -1t26.5 -1l59 1q14 1 40 1q3 0 3 -6t-3 -6q-47 0 -68 -19t-19 -59l24 -454q2 -31 7.5 -45
t20 -19t45.5 -5q2 0 2 -6z" />
    <glyph glyph-name="N" unicode="N" horiz-adv-x="735" 
d="M725 619q0 -6 -2 -6q-40 0 -63 -31.5t-23 -84.5v-512q0 -3 -4.5 -4t-6.5 1l-469 534v-389q0 -53 22 -84t61 -31q2 0 2 -6t-2 -6q-28 0 -43 1l-54 1l-62 -1q-17 -1 -49 -1q-3 0 -3 6t3 6q44 0 69.5 31t25.5 84v423q-33 36 -56.5 49.5t-48.5 13.5q-2 0 -2 6t2 6l42 -1
q13 -1 38 -1l76 1q14 1 34 1q8 0 12 -4t14 -17q17 -23 24 -31l346 -399v323q0 54 -22 85t-61 31q-2 0 -2 6t2 6l43 -1q32 -2 54 -2q20 0 56 2l45 1q2 0 2 -6z" />
    <glyph glyph-name="O" unicode="O" horiz-adv-x="766" 
d="M200.5 31.5q-72.5 43.5 -112 118t-39.5 162.5q0 103 52 176.5t133.5 110.5t166.5 37q95 0 167 -44.5t110.5 -117.5t38.5 -155q0 -91 -48 -167t-128.5 -120t-174.5 -44q-93 0 -165.5 43.5zM499.5 45.5q44.5 32.5 69.5 95t25 149.5q0 92 -28 164.5t-81 113.5t-124 41
q-91 0 -140 -68.5t-49 -191.5q0 -97 29.5 -173.5t81 -119.5t116.5 -43q56 0 100.5 32.5z" />
    <glyph glyph-name="P" unicode="P" horiz-adv-x="553" 
d="M223 38.5q7 -14.5 26.5 -20.5t62.5 -6q3 0 3 -6t-3 -6q-41 0 -64 1l-87 1l-73 -1q-20 -1 -54 -1q-3 0 -3 6t3 6q32 0 46.5 5t19.5 19.5t5 44.5v463q0 30 -5 44t-20 19.5t-46 5.5q-3 0 -3 6t3 6l53 -1q46 -2 73 -2q24 0 57 3q13 1 33 2t46 1q102 0 161 -42.5t59 -131.5
q0 -62 -32 -105t-82.5 -65t-103.5 -22q-27 0 -47 5q-2 0 -2 5q0 3 1.5 6t3.5 2q15 -4 34 -4q46 0 76.5 43t30.5 122t-33.5 122t-97.5 43q-28 0 -38 -13t-10 -51v-457q0 -32 7 -46.5z" />
    <glyph glyph-name="Q" unicode="Q" horiz-adv-x="766" 
d="M749.5 -183q1.5 -5 -0.5 -6q-41 -12 -81 -12q-77 0 -159 50t-141 139h-2q-93 0 -165.5 43.5t-112 118t-39.5 162.5q0 103 52 176.5t133.5 110.5t166.5 37q95 0 167 -44.5t110.5 -117.5t38.5 -155q0 -105 -62.5 -189t-162.5 -120q39 -84 100.5 -137.5t117.5 -53.5
q17 0 35 2q3 1 4.5 -4zM201.5 175.5q29.5 -76.5 81 -119.5t116.5 -43q56 0 100.5 32.5t69.5 95t25 149.5q0 92 -28 164.5t-81 113.5t-124 41q-91 0 -140 -68.5t-49 -191.5q0 -97 29.5 -173.5z" />
    <glyph glyph-name="R" unicode="R" horiz-adv-x="698" 
d="M710 6q0 -6 -2 -6h-178q-22 0 -82 82.5t-145 230.5q-8 -1 -23 -1q-39 0 -55 1v-232q0 -31 5 -45t19.5 -19t46.5 -5q2 0 2 -6t-2 -6q-33 0 -52 1l-76 1l-73 -1q-20 -1 -54 -1q-3 0 -3 6t3 6q32 0 46.5 5t20 19.5t5.5 44.5v463q0 30 -5 44t-20 19.5t-46 5.5q-2 0 -2 6t2 6
l53 -1q46 -2 73 -2q29 0 64 3q11 1 28.5 2t41.5 1q92 0 142.5 -33.5t50.5 -93.5q0 -46 -28 -88t-73 -68q80 -126 134.5 -197t97 -103.5t82.5 -32.5q2 0 2 -6zM283 338q36 0 57 11t30.5 38t9.5 76q0 82 -24 113t-69 31q-34 0 -48 -15t-14 -50v-200q24 -4 58 -4z" />
    <glyph glyph-name="S" unicode="S" horiz-adv-x="515" 
d="M192.5 460q18.5 -28 45.5 -49t73 -51q50 -32 80 -56t51 -58.5t21 -79.5q0 -52 -28 -92.5t-77.5 -63t-110.5 -22.5q-45 0 -94 12.5t-66 27.5q-5 4 -7.5 7.5t-2.5 11.5l-3 159v1q0 4 5 4.5t6 -3.5q30 -61 52.5 -99t57 -67t78.5 -29q40 0 66 21.5t26 73.5q0 44 -19.5 77
t-47.5 56t-77 55q-48 31 -74.5 53t-45.5 53t-19 73q0 53 30.5 89.5t78.5 54t101 17.5q35 0 71 -6.5t58 -15.5q9 -4 12 -8.5t3 -11.5v-147q0 -3 -5 -4.5t-6 1.5l-8 19q-25 63 -58.5 107t-93.5 44q-40 0 -65.5 -23t-25.5 -67q0 -36 18.5 -64z" />
    <glyph glyph-name="T" unicode="T" horiz-adv-x="643" 
d="M51 447q-1 -3 -6 -2.5t-5 3.5q4 40 9 103.5t5 95.5q0 5 5.5 5t5.5 -5q0 -22 57 -22q86 -3 201 -3q59 0 125 2l68 1q38 0 55.5 5t22.5 20q1 4 6.5 4t5.5 -4q-3 -30 -6.5 -96t-3.5 -106q0 -3 -5 -3t-6 3q-15 77 -56 115.5t-101 38.5q-29 0 -38.5 -12.5t-9.5 -47.5v-461
q0 -31 6 -45t23 -19t54 -5q3 0 3 -6t-3 -6q-36 0 -57 1l-83 1l-81 -1q-21 -1 -58 -1q-3 0 -3 6t3 6q36 0 53.5 5t24 19.5t6.5 44.5v463q0 34 -9 46t-37 12q-119 0 -171 -155z" />
    <glyph glyph-name="U" unicode="U" horiz-adv-x="703" 
d="M546.5 582q-24.5 31 -68.5 31q-2 0 -2 6t2 6l48 -1q38 -2 61 -2q19 0 55 2l46 1q2 0 2 -6t-2 -6q-39 0 -61 -31t-22 -85v-278q0 -70 -31 -123t-87.5 -81.5t-130.5 -28.5t-131 28t-89.5 81.5t-32.5 125.5v323q0 30 -5.5 44t-20 19.5t-45.5 5.5q-3 0 -3 6t3 6l53 -1
q46 -2 73 -2q30 0 76 2l51 1q3 0 3 -6t-3 -6q-31 0 -45.5 -6t-20 -20.5t-5.5 -44.5v-286q0 -119 47 -176t133 -57q83 0 130 50.5t47 144.5v279q0 54 -24.5 85z" />
    <glyph glyph-name="V" unicode="V" horiz-adv-x="660" 
d="M668 619q0 -6 -3 -6q-36 0 -69 -32t-53 -86l-185 -494q-1 -4 -11 -4t-11 4l-255 541q-18 36 -36 53.5t-40 17.5q-3 0 -3 6t3 6q15 0 21 -1q20 -2 52 -2q86 0 146 2q16 1 40 1q3 0 3 -6t-3 -6q-30 0 -46.5 -12.5t-16.5 -35.5q0 -17 11 -41l173 -369l130 343q10 28 10 48
q0 31 -18.5 49t-53.5 18q-3 0 -3 6t3 6l49 -1q42 -2 75 -2q19 0 47 2l41 1q3 0 3 -6z" />
    <glyph glyph-name="W" unicode="W" horiz-adv-x="911" 
d="M919 619q0 -6 -2 -6q-37 0 -69.5 -31.5t-53.5 -86.5l-185 -494q-1 -4 -11 -4t-11 4l-128 271l-101 -271q-1 -4 -11 -4t-11 4l-255 541q-15 32 -24.5 46t-21 19.5t-30.5 5.5q-3 0 -3 6t3 6q15 0 21 -1q20 -2 52 -2q67 0 113 2q13 1 32 1q3 0 3 -6t-3 -6q-25 0 -35.5 -5
t-10.5 -18q0 -17 23 -66l180 -382l63 165l-111 235q-17 36 -32 53.5t-32 17.5q-3 0 -3 6t3 6q10 0 23.5 -1.5t38.5 -1.5q57 0 95 2q10 1 26 1q3 0 3 -6t-3 -6q-14 0 -20.5 -3.5t-6.5 -12.5q0 -17 27 -73l44 -93l25 67q22 57 22 86t-25 29q-3 0 -3 6t3 6q8 0 17.5 -1.5
t47.5 -1.5q17 0 41 2l37 1q2 0 2 -6t-2 -6q-67 0 -111 -118l-37 -99l120 -253l129 345q12 32 12 58q0 31 -15.5 49t-41.5 18q-3 0 -3 6t3 6l46 -1q36 -2 66 -2q20 0 46 2l43 1q2 0 2 -6z" />
    <glyph glyph-name="X" unicode="X" horiz-adv-x="647" 
d="M647 6q0 -6 -3 -6q-29 0 -45 1l-60 1l-82 -1q-19 -1 -53 -1q-3 0 -3 6t3 6q33 0 33 17q0 9 -9 22l-137 212l-86 -123q-39 -55 -39 -89q0 -39 52 -39q2 0 2 -6t-2 -6q-33 0 -50 1l-74 1l-47 -1q-13 -1 -42 -1q-3 0 -3 6t3 6q31 0 76 33t94 101l102 138l-160 249
q-27 43 -52 61.5t-53 18.5q-3 0 -3 6t3 6l43 -1q28 -2 42 -2q35 0 87 2l57 1q2 0 2 -6t-2 -6q-34 0 -34 -17q0 -8 9 -23l132 -203l80 114q39 56 39 90q0 39 -52 39q-2 0 -2 6t2 6l50 -1q40 -2 74 -2q21 0 47 2l42 1q3 0 3 -6t-3 -6q-32 0 -76.5 -33.5t-94.5 -101.5l-95 -130
l171 -265q25 -37 51 -54t60 -17q3 0 3 -6z" />
    <glyph glyph-name="Y" unicode="Y" horiz-adv-x="619" 
d="M627 619q0 -6 -2 -6q-31 0 -76 -38.5t-80 -96.5l-104 -174v-223q0 -31 5 -45t19.5 -19t46.5 -5q3 0 3 -6t-3 -6q-33 0 -52 1l-75 1l-74 -1q-20 -1 -54 -1q-2 0 -2 6t2 6q32 0 47 5t20.5 19.5t5.5 44.5v202l-146 227q-37 58 -61.5 80.5t-41.5 22.5q-3 0 -3 6t3 6l31 -1
q22 -2 31 -2q35 0 101 2l66 1q2 0 2 -6t-2 -6q-17 0 -26.5 -8t-9.5 -21q0 -16 14 -38l137 -216l92 157q27 45 27 77q0 24 -14.5 36.5t-41.5 12.5q-3 0 -3 6t3 6l53 -1q46 -2 82 -2q17 0 41 2l37 1q2 0 2 -6z" />
    <glyph glyph-name="Z" unicode="Z" horiz-adv-x="605" 
d="M411 600q3 5 2.5 6.5t-7.5 1.5q-114 0 -173.5 -8.5t-97.5 -36t-66 -85.5q-1 -1 -4 -1q-9 0 -8 4l40 174q0 1 4 1q10 0 8 -3q-1 -3 -1 -8q0 -12 11.5 -16t46.5 -4h365q5 0 7.5 -5t-0.5 -8l-346 -585q-4 -5 -3 -6.5t7 -1.5h202q36 0 70 18.5t58 49.5t30 66q1 3 6 3t5 -3
l-14 -145q0 -3 -2.5 -6.5t-6.5 -3.5q-149 2 -479 2q-4 0 -6 4.5t1 8.5z" />
    <glyph glyph-name="bracketleft" unicode="[" horiz-adv-x="274" 
d="M67 715q0 7 1.5 8.5t7.5 1.5h160q3 0 3 -6t-3 -6q-31 0 -46 -6t-20 -20.5t-5 -44.5v-676q0 -30 5 -44.5t20 -20.5t46 -6q3 0 3 -6t-3 -6h-160q-6 0 -7.5 2t-1.5 9v821z" />
    <glyph glyph-name="backslash" unicode="\" horiz-adv-x="351" 
d="M26 716q-1 5 22 11.5t25 2.5l252 -882q1 -4 -22.5 -10.5t-25.5 -2.5z" />
    <glyph glyph-name="bracketright" unicode="]" horiz-adv-x="274" 
d="M205.5 -115q-1.5 -2 -7.5 -2h-160q-3 0 -3 6t3 6q31 0 46 6t20 20.5t5 44.5v676q0 30 -5 44.5t-20 20.5t-46 6q-3 0 -3 6t3 6h160q6 0 7.5 -1.5t1.5 -8.5v-821q0 -7 -1.5 -9z" />
    <glyph glyph-name="asciicircum" unicode="^" horiz-adv-x="392" 
d="M333 218q0 -3 -3.5 -4.5t-5.5 0.5l-128 135l-128 -135q-1 -1 -3 -1q-3 0 -5.5 2t-1.5 4l127 249q1 5 11 5t11 -5l126 -249v-1z" />
    <glyph glyph-name="underscore" unicode="_" horiz-adv-x="398" 
d="M30.5 -73q-1.5 8 -1.5 18q0 9 1 16t3 7h331q2 0 3.5 -8t1.5 -17t-1.5 -16.5t-3.5 -7.5h-330q-2 0 -3.5 8z" />
    <glyph glyph-name="grave" unicode="`" horiz-adv-x="274" 
d="M25 517q-12 2 11.5 13.5t54 20t35.5 3.5l47 -40q44 -38 78 -64q3 -1 3 -4t-2 -5t-5 -1q-112 50 -222 77z" />
    <glyph glyph-name="a" unicode="a" horiz-adv-x="481" 
d="M482 59q3 0 4.5 -5t-2.5 -6l-110 -53q-4 -2 -9 -2q-19 0 -37.5 16t-28.5 51l-60 -35q-30 -18 -53.5 -25t-48.5 -7q-39 0 -64 21t-25 54q0 31 20.5 54.5t57.5 36.5l166 59v119q0 61 -12.5 89t-40.5 28q-32 0 -50 -29t-28 -74q-11 -56 -58 -56q-25 0 -39.5 12.5t-14.5 35.5
q0 30 37.5 61.5t91.5 52t99 20.5q53 0 84 -27.5t31 -82.5v-213q0 -45 8 -67t20.5 -28t32.5 -6q10 0 27 5zM295 80q-3 18 -3 40v77l-86 -32q-48 -18 -48 -64q0 -27 13 -42.5t35 -15.5q16 0 44 14z" />
    <glyph glyph-name="b" unicode="b" horiz-adv-x="525" 
d="M443.5 225q40.5 -30 40.5 -83q0 -43 -25 -76t-69.5 -51.5t-101.5 -18.5q-27 0 -65 3q-14 1 -34.5 2t-44.5 1l-64 -1q-18 -1 -50 -1q-2 0 -2 6t2 6q30 0 43.5 5t18 19.5t4.5 44.5v306q0 30 -4.5 44t-18 19.5t-41.5 5.5q-3 0 -3 6t3 6l48 -1q40 -2 64 -2q30 0 63 3
q11 1 33 2t38 1q74 0 115.5 -25t41.5 -72q0 -38 -28 -67t-82 -48q78 -4 118.5 -34zM217 452.5q-12 -5.5 -17 -21t-5 -46.5v-124q17 -1 45 -1q36 0 55.5 6.5t29.5 26t10 56.5q0 109 -82 109q-24 0 -36 -5.5zM379 118q0 122 -151 122q-22 0 -33 -1v-158q0 -38 15 -53.5
t60 -15.5q109 0 109 106z" />
    <glyph glyph-name="c" unicode="c" horiz-adv-x="530" 
d="M388.5 472q43.5 -8 71.5 -21q7 -3 9 -6.5t2 -10.5l5 -103q0 -3 -5 -4t-7 3q-38 65 -77.5 96.5t-90.5 31.5q-71 0 -109 -56.5t-38 -150.5q0 -62 17.5 -117t55.5 -90t96 -35q51 0 86.5 31t69.5 100q1 4 6 3t5 -4l-8 -106q-1 -8 -3 -11t-11 -7q-77 -27 -160 -27
q-96 0 -157 38t-88.5 95t-27.5 115q0 68 36.5 124t100 88t141.5 32q37 0 80.5 -8z" />
    <glyph glyph-name="d" unicode="d" horiz-adv-x="567" 
d="M216 -1q-12 1 -30 2t-41 1l-65 -1q-18 -1 -50 -1q-2 0 -2 6t2 6q30 0 43.5 5t18 19.5t4.5 44.5v306q0 30 -4.5 44t-18 19.5t-41.5 5.5q-3 0 -3 6t3 6l48 -1q40 -2 65 -2q31 0 62 3q40 2 60 2q84 0 145 -30t93 -83t32 -120q0 -69 -33 -124t-92 -86t-134 -31q-28 0 -62 3z
M381 72q41 54 41 154q0 97 -41 160.5t-123 63.5q-34 0 -48.5 -14t-14.5 -51v-293q0 -41 14.5 -57.5t57.5 -16.5q73 0 114 54z" />
    <glyph glyph-name="e" unicode="e" horiz-adv-x="453" 
d="M136 269q0 -111 49 -177t138 -66q25 0 51 7t46 21h1q3 0 5.5 -3.5t0.5 -6.5q-70 -56 -154 -56q-78 0 -132.5 33.5t-82.5 87.5t-28 117q0 69 34 126.5t92 91t126 33.5q74 0 113 -39t39 -102q0 -13 -2.5 -18t-9.5 -5l-284 -1q-2 -26 -2 -43zM178.5 421q-27.5 -32 -37.5 -89
l186 3q-2 118 -79 118q-42 0 -69.5 -32z" />
    <glyph glyph-name="f" unicode="f" horiz-adv-x="421" 
d="M399 398q1 -19 1 -48q0 -3 -5.5 -3t-6.5 3q-23 54 -56 79.5t-81 25.5h-7q-22 0 -32.5 -5.5t-14 -19.5t-3.5 -44v-146q73 1 107.5 4.5t40.5 3.5q3 0 5 -6.5t2 -15.5t-2 -17.5t-5 -8.5q-5 0 -39.5 6t-108.5 7v-128q0 -31 6.5 -46t25 -21t57.5 -6q3 0 3 -6t-3 -6
q-39 0 -61 1l-77 1l-67 -1q-17 -1 -48 -1q-2 0 -2 6t2 6q29 0 42 5t18 19.5t5 44.5v306q0 30 -5 44t-18.5 19.5t-41.5 5.5q-2 0 -2 6t2 6h358q10 0 10 -8z" />
    <glyph glyph-name="g" unicode="g" horiz-adv-x="551" 
d="M151.5 21.5q-59.5 33.5 -90.5 88.5t-31 116q0 78 35.5 135.5t100.5 88t153 30.5q44 0 84.5 -8t67.5 -23q7 -3 8.5 -7t2.5 -15l5 -94q0 -3 -5.5 -3.5t-6.5 2.5q-77 126 -179 126q-71 0 -111.5 -57t-40.5 -162q0 -102 46 -165t125 -63q40 0 58.5 8.5t25 32t6.5 74.5
q0 26 -4 36.5t-17 14t-45 3.5q-6 0 -6 8q0 3 1.5 5.5t3.5 2.5q52 -4 105 -4q24 0 80 2q2 0 3.5 -2.5t1.5 -4.5q0 -7 -5 -7q-15 1 -21 -3t-8 -16.5t-2 -44.5q0 -45 2.5 -63t2.5 -25q0 -6 -2 -7.5t-10 -4.5q-67 -28 -194 -28q-80 0 -139.5 33.5z" />
    <glyph glyph-name="h" unicode="h" horiz-adv-x="632" 
d="M604 6q0 -6 -3 -6q-31 0 -48 1l-66 1l-67 -1q-17 -1 -48 -1q-3 0 -3 6t3 6q28 0 41 5t18 19.5t5 44.5v142h-241v-142q0 -30 5 -44t18.5 -19.5t41.5 -5.5q2 0 2 -6t-2 -6q-31 0 -48 1l-67 1l-65 -1q-18 -1 -50 -1q-2 0 -2 6t2 6q29 0 42.5 5t18.5 19.5t5 44.5v306
q0 30 -5 44t-18.5 19.5t-40.5 5.5q-3 0 -3 6t3 6l48 -1q40 -2 65 -2q27 0 67 2l48 1q2 0 2 -6t-2 -6q-40 0 -52.5 -14t-12.5 -57v-136h241v136q0 30 -5 44.5t-18 20.5t-41 6q-3 0 -3 6t3 6l48 -1q40 -2 67 -2q24 0 66 2l48 1q3 0 3 -6t-3 -6q-28 0 -41.5 -5.5t-18.5 -19.5
t-5 -44v-306q0 -30 5 -44.5t18 -19.5t42 -5q3 0 3 -6z" />
    <glyph glyph-name="i" unicode="i" horiz-adv-x="303" 
d="M207 36.5q5 -14.5 18 -19.5t42 -5q2 0 2 -6t-2 -6q-31 0 -48 1l-68 1l-65 -1q-18 -1 -50 -1q-2 0 -2 6t2 6q29 0 42.5 5t18.5 19.5t5 44.5v306q0 30 -5 44t-18.5 19.5t-42.5 5.5q-2 0 -2 6t2 6l50 -1q40 -2 65 -2q27 0 69 2l47 1q2 0 2 -6t-2 -6q-28 0 -41.5 -6
t-18.5 -20.5t-5 -44.5v-304q0 -30 5 -44.5z" />
    <glyph glyph-name="j" unicode="j" horiz-adv-x="273" 
d="M94 387q0 30 -4 44t-15 19.5t-33 5.5q-2 0 -2 6t2 6l44 -1q38 -2 59 -2q25 0 59 2l39 1q3 0 3 -6t-3 -6q-31 0 -40.5 -14t-9.5 -57v-316q0 -76 -14.5 -121.5t-49 -75.5t-100.5 -53q-2 -1 -4.5 4t0.5 6q33 21 51 71t18 122v365z" />
    <glyph glyph-name="k" unicode="k" horiz-adv-x="554" 
d="M570 6q0 -6 -3 -6h-133q-6 0 -22 -0.5t-50.5 49t-69.5 96.5l-70 94l-27 -27v-131q0 -30 5 -44t18.5 -19.5t41.5 -5.5q2 0 2 -6t-2 -6q-31 0 -48 1l-67 1l-65 -1q-18 -1 -50 -1q-2 0 -2 6t2 6q29 0 42.5 5t18.5 19.5t5 44.5v306q0 30 -5 44t-18.5 19.5t-40.5 5.5
q-3 0 -3 6t3 6l48 -1q40 -2 65 -2q27 0 67 2l48 1q2 0 2 -6t-2 -6q-40 0 -52.5 -14t-12.5 -57v-133l121 120q42 42 42 65q0 19 -31 19q-2 0 -2 6t2 6l42 -1q38 -2 71 -2q43 0 77 2q10 1 23 1q3 0 3 -6t-3 -6q-39 0 -99 -29t-102 -71l-47 -47l85 -111q63 -84 95.5 -122
t52.5 -51t42 -13q3 0 3 -6z" />
    <glyph glyph-name="l" unicode="l" horiz-adv-x="468" 
d="M189 85q0 -27 5 -40t19.5 -18.5t43.5 -5.5h11q57 0 104 37t69 100q1 2 6.5 1.5t5.5 -2.5q-7 -53 -7 -142q0 -8 -3.5 -11.5t-12.5 -3.5h-400q-2 0 -2 6t2 6q26 0 38 5t16.5 19.5t4.5 44.5v306q0 30 -4.5 44t-16.5 19.5t-38 5.5q-2 0 -2 6t2 6l49 -1q42 -2 65 -2q26 0 68 2
l46 1q3 0 3 -6t-3 -6q-30 0 -44.5 -5.5t-19.5 -20t-5 -44.5v-301z" />
    <glyph glyph-name="m" unicode="m" horiz-adv-x="918" 
d="M891 6q0 -6 -2 -6q-29 0 -46 1l-69 1l-66 -1q-17 -1 -46 -1q-3 0 -3 6t3 6q28 0 41 5t18 19.5t5 44.5v214q0 75 -21 113t-66 38q-37 0 -70.5 -22t-60.5 -62q3 -18 3 -37v-244q0 -30 4.5 -44.5t18 -19.5t41.5 -5q3 0 3 -6t-3 -6q-29 0 -46 1l-68 1l-66 -1q-17 -1 -46 -1
q-3 0 -3 6t3 6q28 0 41 5.5t18 19.5t5 44v214q0 74 -22 113t-66 39q-73 0 -130 -85v-281q0 -30 5 -44.5t18 -19.5t42 -5q2 0 2 -6t-2 -6q-29 0 -46 1l-69 1l-66 -1q-17 -1 -46 -1q-3 0 -3 6t3 6q28 0 41 5t17.5 19.5t4.5 44.5v306q0 30 -4.5 44t-18.5 19.5t-43 5.5
q-2 0 -2 6t2 6l101 -1l46 1q12 0 15 -3.5t3 -15.5v-54q70 86 168 86q55 0 90 -24.5t49 -68.5q73 93 174 93q72 0 110.5 -41.5t38.5 -114.5v-244q0 -30 4.5 -44.5t18 -19.5t41.5 -5q2 0 2 -6z" />
    <glyph glyph-name="n" unicode="n" horiz-adv-x="593" 
d="M566 6q0 -6 -2 -6q-25 0 -39 1l-52 1l-60 -1q-15 -1 -40 -1q-2 0 -2 6t2 6q23 0 34 6t15 20.5t4 44.5v199q0 94 -27.5 129.5t-75.5 35.5q-40 0 -74.5 -20t-64.5 -65v-279q0 -30 3.5 -44.5t14 -20.5t32.5 -6q2 0 2 -6t-2 -6q-29 0 -46 1l-58 1l-55 -1q-16 -1 -45 -1
q-2 0 -2 6t2 6q23 0 34.5 5t15.5 19.5t4 44.5v306q0 30 -4 44t-14.5 19.5t-32.5 5.5q-3 0 -3 6t3 6l65 -1l67 1q12 0 15.5 -3.5t3.5 -15.5v-55q38 44 82 65t97 21q70 0 116 -39.5t46 -135.5v-224q0 -30 3 -44.5t11 -19.5t25 -5q2 0 2 -6z" />
    <glyph glyph-name="o" unicode="o" horiz-adv-x="567" 
d="M148 21.5q-56 33.5 -87 90t-31 122.5q0 76 39.5 132t101 85t126.5 29q71 0 125.5 -34.5t84.5 -90t30 -116.5q0 -67 -35 -124.5t-95 -92t-132 -34.5q-71 0 -127 33.5zM388.5 66q34.5 55 34.5 152q0 66 -20 120t-56.5 85.5t-84.5 31.5q-58 0 -88 -48t-30 -142
q0 -71 20.5 -129.5t55.5 -91.5t78 -33q56 0 90.5 55z" />
    <glyph glyph-name="p" unicode="p" horiz-adv-x="471" 
d="M200.5 39q6.5 -15 25 -21t57.5 -6q3 0 3 -6t-3 -6q-38 0 -59 1l-79 1l-65 -1q-18 -1 -50 -1q-2 0 -2 6t2 6q28 0 41.5 5.5t18.5 19.5t5 44v306q0 29 -5.5 43.5t-19 20t-40.5 5.5q-2 0 -2 6t2 6l49 -1q42 -2 65 -2q26 0 54 3q11 1 31.5 2t35.5 1q86 0 131 -28t45 -84
q0 -50 -24.5 -85t-64 -52.5t-83.5 -17.5q-19 0 -23 2q-3 2 -3 7q0 6 7 6l14 -1q30 0 47.5 29.5t17.5 88.5q0 62 -22 89.5t-65 27.5q-25 0 -36.5 -13.5t-11.5 -54.5v-300q0 -31 6.5 -46z" />
    <glyph glyph-name="q" unicode="q" horiz-adv-x="567" 
d="M606.5 -161q1.5 -5 -0.5 -6q-33 -12 -77 -12q-71 0 -139.5 43t-118.5 124q-70 1 -125 34.5t-85.5 89.5t-30.5 122q0 76 39.5 132t101 85t126.5 29q71 0 125.5 -34.5t84.5 -90t30 -116.5q0 -76 -44.5 -139t-116.5 -93q32 -72 87 -119.5t109 -47.5q17 0 30 3q3 1 4.5 -4z
M164.5 135.5q20.5 -58.5 55.5 -91.5t78 -33q56 0 90.5 55t34.5 152q0 66 -20 120t-56.5 85.5t-84.5 31.5q-58 0 -88 -48t-30 -142q0 -71 20.5 -129.5z" />
    <glyph glyph-name="r" unicode="r" horiz-adv-x="547" 
d="M569 6q0 -6 -3 -6h-164q-15 0 -53.5 60t-91.5 165q-21 -3 -42 -3h-17v-141q0 -31 4.5 -45t17 -19t40.5 -5q2 0 2 -6t-2 -6q-30 0 -47 1l-68 1l-65 -1q-18 -1 -50 -1q-2 0 -2 6t2 6q28 0 41 5t18 19.5t5 44.5v306q0 30 -4.5 44t-17.5 19.5t-40 5.5q-3 0 -3 6t3 6l49 -1
q40 -2 64 -2q19 0 35 1t28 2q33 3 62 3q78 0 119 -25t41 -72q0 -39 -25 -72t-69 -54q54 -91 93 -142t71 -72.5t66 -21.5q3 0 3 -6zM222 241q57 0 79 26.5t22 79.5q0 104 -76 104q-21 0 -31 -5t-14 -18.5t-4 -42.5v-143q7 -1 24 -1z" />
    <glyph glyph-name="s" unicode="s" horiz-adv-x="422" 
d="M158.5 345.5q15.5 -20.5 38 -35t61.5 -34.5q45 -24 70.5 -40.5t44 -42.5t18.5 -62q0 -40 -23.5 -72.5t-64.5 -51.5t-92 -19q-46 0 -89.5 11.5t-60.5 25.5q-8 5 -8 21l-5 113q0 4 5 5t7 -3q38 -66 77 -108t89 -42q30 0 50 18t20 54q0 32 -16.5 56t-40.5 40.5t-64 38.5
q-59 32 -90 60.5t-31 74.5q0 58 51 92.5t123 34.5q32 0 67 -7t56 -16q9 -3 12 -7.5t3 -12.5v-95q0 -3 -5 -4.5t-7 1.5q-19 40 -53 79t-90 39q-34 0 -51 -17.5t-17 -45.5t15.5 -48.5z" />
    <glyph glyph-name="t" unicode="t" horiz-adv-x="380" 
d="M361 58q4 0 5.5 -4t-1.5 -6q-41 -33 -73.5 -46.5t-72.5 -13.5q-60 0 -101 32t-41 106v262q0 27 -11.5 36t-42.5 9q-3 0 -3 9t3 9q51 0 89 22t49 58q2 3 6 3t7 -1.5t3 -3.5v-73q69 1 161 9q3 0 5 -7t2 -17t-3.5 -19.5t-6.5 -8.5q-47 12 -158 16v-280q0 -119 88 -119
q54 0 94 27z" />
    <glyph glyph-name="u" unicode="u" horiz-adv-x="599" 
d="M534 450.5q-11 -5.5 -15 -19.5t-4 -44v-306q0 -30 4 -44.5t14.5 -19.5t32.5 -5q3 0 3 -6t-3 -6l-65 1l-67 -1q-12 0 -15.5 3t-3.5 16v54q-75 -85 -178 -85q-69 0 -116 37t-47 114v248q0 30 -3 44t-11 19.5t-25 5.5q-2 0 -2 6t2 6l39 -1q32 -2 52 -2q24 0 60 2l40 1
q2 0 2 -6t-2 -6q-23 0 -34 -6t-15 -20.5t-4 -44.5v-222q0 -76 28.5 -109t75.5 -33q78 0 138 85v279q0 30 -3.5 44.5t-14 20.5t-32.5 6q-3 0 -3 6t3 6l46 -1q38 -2 58 -2q18 0 54 2l45 1q3 0 3 -6t-3 -6q-23 0 -34 -5.5z" />
    <glyph glyph-name="v" unicode="v" horiz-adv-x="510" 
d="M518 462q0 -6 -2 -6q-29 0 -53 -24t-40 -66l-141 -365q-1 -4 -11 -4t-11 4l-185 384q-20 42 -35 56.5t-41 14.5q-3 0 -3 6t3 6l44 -1q38 -2 73 -2q28 0 66 2l44 1q2 0 2 -6t-2 -6q-52 0 -52 -31q0 -11 8 -30l125 -262l89 239q8 22 8 38q0 46 -62 46q-3 0 -3 6t3 6l35 -1
q32 -2 63 -2q17 0 39 2l37 1q2 0 2 -6z" />
    <glyph glyph-name="w" unicode="w" horiz-adv-x="743" 
d="M751 462q0 -6 -2 -6q-36 0 -62 -26.5t-51 -86.5l-133 -342q-1 -4 -11 -4t-11 4l-104 217l-94 -217q-1 -4 -11 -4t-11 4l-186 384q-20 42 -35 56.5t-41 14.5q-3 0 -3 6t3 6q14 0 46 -2l44 -1q35 0 71 2q10 1 24 1q2 0 2 -6t-2 -6q-11 0 -16 -3t-5 -11q0 -11 17 -47
l133 -268l50 118l-67 140q-20 43 -32 57t-27 14q-2 0 -2 6t2 6l28 -1q34 -2 54 -2q13 0 43 2l29 1q2 0 2 -6t-2 -6q-13 0 -13 -8q0 -6 6 -20t16 -33l27 -55l12 32q13 38 13 57q0 27 -19 27q-3 0 -3 6t3 6q9 0 28 -1.5t38 -1.5q17 0 33 2l29 1q3 0 3 -6t-3 -6q-28 0 -45 -8
t-29.5 -26.5t-29.5 -55.5l-19 -47l92 -187l78 212q16 42 16 72q0 40 -30 40q-2 0 -2 6t2 6l27 -1q22 -2 39 -2q20 0 46 2l43 1q2 0 2 -6z" />
    <glyph glyph-name="x" unicode="x" horiz-adv-x="542" 
d="M541 6q0 -6 -3 -6l-120 2l-63 -1q-14 -1 -38 -1q-3 0 -3 6t3 6q19 0 28 2.5t9 9.5t-14 27l-94 141l-65 -93q-18 -28 -18 -50q0 -17 11 -27t32 -10q2 0 2 -6t-2 -6q-30 0 -46 1l-66 1l-41 -1q-11 -1 -37 -1q-2 0 -2 6t2 6q65 0 134 93l81 110l-114 170q-25 38 -52 54.5
t-50 16.5q-2 0 -2 6t2 6l31 -1q22 -2 31 -2l96 2l63 1q3 0 3 -6t-3 -6q-19 0 -28 -2.5t-9 -9.5q0 -8 14 -28l83 -125l51 77q21 32 21 57q0 31 -31 31q-3 0 -3 6t3 6l40 -1q34 -2 60 -2q17 0 41 2l37 1q2 0 2 -6t-2 -6q-69 0 -137 -93l-67 -94l125 -186q26 -38 53 -54.5
t49 -16.5q3 0 3 -6z" />
    <glyph glyph-name="y" unicode="y" horiz-adv-x="511" 
d="M518 462q0 -6 -2 -6q-30 0 -54.5 -24t-38.5 -66l-141 -365q-24 -66 -60 -117t-75 -71q-6 -4 -20.5 7.5t-23.5 28.5q-10 23 -10 42q0 17 8 19q56 8 95.5 28.5t62.5 63.5l-184 383q-20 42 -35 56.5t-41 14.5q-3 0 -3 6t3 6l44 -1q38 -2 73 -2q25 0 63 2l44 1q3 0 3 -6
t-3 -6q-52 0 -52 -30q0 -13 9 -31l128 -260l88 237q8 22 8 38q0 46 -62 46q-3 0 -3 6t3 6l35 -1q32 -2 63 -2q17 0 39 2l37 1q2 0 2 -6z" />
    <glyph glyph-name="z" unicode="z" horiz-adv-x="451" 
d="M290 446l3 6q0 2 -8 2q-86 0 -140 -28.5t-92 -93.5q-1 -1 -4 -1t-6 1.5t-2 3.5l40 162q0 2 4 2q3 0 5.5 -1.5t1.5 -2.5q-2 -17 8.5 -22.5t49.5 -5.5h250q4 0 6.5 -4.5t0.5 -8.5l-248 -430q-2 -6 -1.5 -7.5t6.5 -1.5h89q102 0 156 138q1 3 6.5 2.5t5.5 -3.5l-13 -145
q0 -3 -2.5 -6.5t-6.5 -3.5l-353 2q-4 0 -6 4.5t0 8.5z" />
    <glyph glyph-name="braceleft" unicode="{" horiz-adv-x="289" 
d="M29 304.5q0 6.5 3 6.5q35 6 46.5 64.5t11.5 153.5q0 86 13 126.5t45.5 55t101.5 14.5q4 0 4 -6t-4 -6q-26 0 -40 -27.5t-15 -78.5q-2 -122 -8.5 -172t-29.5 -78.5t-79 -51.5q56 -24 79 -53.5t29.5 -79.5t8.5 -171q1 -51 15 -78.5t40 -27.5q4 0 4 -6t-4 -6
q-69 0 -102 14.5t-45.5 55.5t-12.5 127q0 96 -11.5 154t-46.5 64q-3 0 -3 6.5z" />
    <glyph glyph-name="bar" unicode="|" horiz-adv-x="168" 
d="M62 626q0 7 24 7q23 0 23 -7v-769q0 -7 -23 -7q-24 0 -24 7v769z" />
    <glyph glyph-name="braceright" unicode="}" horiz-adv-x="283" 
d="M204.5 234q-11.5 -58 -11.5 -154q0 -86 -12.5 -127t-45.5 -55.5t-102 -14.5q-4 0 -4 6t4 6q26 0 40 27.5t15 78.5q2 121 8.5 171t29.5 79.5t79 53.5q-56 23 -79 51.5t-29.5 78.5t-8.5 172q-1 51 -15 78.5t-40 27.5q-4 0 -4 6t4 6q69 0 101.5 -14.5t45.5 -55t13 -126.5
q0 -95 11.5 -153.5t46.5 -64.5q3 0 3 -6.5t-3 -6.5q-35 -6 -46.5 -64z" />
    <glyph glyph-name="asciitilde" unicode="~" horiz-adv-x="455" 
d="M369 265q16 10 32 29h1q3 0 5.5 -2.5t0.5 -4.5q-43 -63 -69 -84t-58 -21q-18 0 -35 4.5t-39 13.5t-39.5 14t-37.5 5q-24 0 -36.5 -7t-23.5 -17.5t-15 -14.5h-1q-2 0 -4.5 2.5t-1.5 4.5q24 41 55.5 72.5t67.5 31.5q14 0 31.5 -5t35.5 -11q54 -20 87 -20q28 0 44 10z" />
    <glyph glyph-name="uni00A0" unicode="&#xa0;" horiz-adv-x="234" 
 />
    <glyph glyph-name="exclamdown" unicode="&#xa1;" horiz-adv-x="263" 
d="M182.5 348.5q16.5 -16.5 16.5 -44.5q0 -26 -16.5 -42t-44.5 -16t-43.5 15.5t-15.5 42.5q0 29 15.5 45t43.5 16t44.5 -16.5zM181 -271.5q-23 -3.5 -49 -3.5t-49.5 3.5t-21.5 10.5q22 76 32.5 166t21.5 228q0 10 2 32q0 5 17 5t17 -5q9 -148 19 -245.5t32 -180.5
q2 -7 -21 -10.5z" />
    <glyph glyph-name="cent" unicode="&#xa2;" horiz-adv-x="530" 
d="M480 143q5 -1 5 -4l-8 -106q-1 -8 -3 -11t-11 -7q-77 -27 -160 -27h-1v-90q0 -7 -14 -7q-15 0 -15 7v91q-85 6 -139.5 45t-79 93t-24.5 109q0 63 31.5 116t87 86t124.5 40v83q0 4 4.5 6t10.5 2t10 -2t4 -6v-81h6q37 0 80.5 -8t71.5 -21q7 -3 9 -6.5t2 -10.5l5 -103
q0 -3 -5 -4t-7 3q-37 64 -75.5 95t-86.5 33v-448q5 -1 16 -1q51 0 86.5 31t69.5 100q1 4 6 3zM180 101.5q31 -66.5 93 -86.5v441q-60 -9 -92 -64t-32 -141q0 -83 31 -149.5z" />
    <glyph glyph-name="sterling" unicode="&#xa3;" horiz-adv-x="432" 
d="M372 131q3 0 5.5 -1t2.5 -3q-9 -52 -9 -112q0 -8 -3.5 -11.5t-11.5 -3.5h-343q-3 0 -3 5.5t3 6.5q51 12 69.5 36.5t18.5 59.5q0 54 -17 107h-41q-3 0 -5 4.5t-2 10.5q0 5 2 9.5t5 4.5h31q-9 26 -13 44t-4 39q0 79 54 116t136 37q46 0 89 -13q15 -6 16 -19l7 -104
q0 -4 -5 -4q-4 0 -7 4q-34 61 -58.5 88.5t-62.5 27.5t-54 -27.5t-16 -69.5q0 -28 6 -53t19 -66h93q7 0 7 -14q0 -15 -7 -15h-85q9 -38 9 -66q0 -37 -12 -60t-33 -41h98q44 0 65.5 6t32.5 22.5t19 52.5q0 2 4 2z" />
    <glyph glyph-name="currency" unicode="&#xa4;" horiz-adv-x="414" 
d="M329 32l-49 55q-41 -22 -84 -22q-39 0 -68 17l-45 -50l-33 32l45 46q-34 40 -34 92q0 50 34 86l-49 50l37 35l52 -56q36 18 76 18q39 0 72 -19l52 54l31 -32l-49 -49q32 -38 32 -88q0 -48 -31 -84l49 -49zM258 113q16 24 16 67q0 53 -23.5 92t-62.5 39q-25 0 -40 -22.5
t-15 -65.5q0 -52 21 -93t61 -41q27 0 43 24z" />
    <glyph glyph-name="yen" unicode="&#xa5;" horiz-adv-x="498" 
d="M500 462q0 -6 -3 -6q-61 0 -111 -90l-76 -137v-16h91q4 0 6 -4t2 -9t-2 -9t-6 -4h-289q-3 0 -5 4t-2 9t2 9t5 4h94v1l-110 171q-24 38 -45.5 54.5t-44.5 16.5q-3 0 -3 6t3 6l37 -1l40 -2q30 0 94 2l63 1q2 0 2 -6t-2 -6q-49 0 -49 -25q0 -12 13 -31l93 -145l61 112
q15 27 15 48q0 19 -12.5 30t-38.5 11q-3 0 -3 6t3 6l48 -1q40 -2 73 -2q12 0 30 2l24 1q3 0 3 -6zM407 138q2 -4 2 -9t-2 -9t-6 -4h-91v-35q0 -31 5 -45t20 -19t49 -5q2 0 2 -6t-2 -6q-33 0 -52 1l-75 1l-71 -1q-20 -1 -55 -1q-3 0 -3 6t3 6q33 0 48.5 5t21 19.5t5.5 44.5
v35h-94q-3 0 -5 4t-2 9t2 9t5 4h289q4 0 6 -4z" />
    <glyph glyph-name="brokenbar" unicode="&#xa6;" horiz-adv-x="168" 
d="M62 626q0 7 24 7q23 0 23 -7v-318q0 -7 -23 -7q-24 0 -24 7v318zM62 164q0 7 24 7q23 0 23 -7v-307q0 -7 -23 -7q-24 0 -24 7v307z" />
    <glyph glyph-name="section" unicode="&#xa7;" horiz-adv-x="488" 
d="M398 -23q0 -63 -50 -96.5t-120 -33.5q-50 0 -86 18q-11 7 -11 17l-8 117q0 2 5.5 2t6.5 -2l19.5 -39t47 -62.5t59.5 -27.5q23 0 37 17t14 50q0 35 -14.5 60.5t-36 43t-58.5 42.5q-40 26 -64 46.5t-40.5 51.5t-16.5 73q0 35 16.5 65t59.5 66q-41 41 -41 92q0 63 50 96.5
t120 33.5q51 0 86 -19q11 -5 11 -16l8 -117q0 -3 -5.5 -3t-6.5 3q-2 3 -19.5 38.5t-47 63t-59.5 27.5q-24 0 -38 -17t-14 -50q0 -35 15 -60.5t37 -44t58 -41.5q40 -27 64 -47.5t40.5 -51t16.5 -72.5q0 -35 -16.5 -65t-60.5 -66q42 -40 42 -92zM176 224q18 -33 44 -55t68 -49
q10 -7 26.5 -18.5t26.5 -19.5q16 26 16 69q0 45 -18 78t-43 54t-68 50q-33 21 -55 39q-15 -26 -15 -69q0 -46 18 -79z" />
    <glyph glyph-name="dieresis" unicode="&#xa8;" horiz-adv-x="322" 
d="M34.5 478.5q-14.5 14.5 -14.5 40.5q0 24 15 38t40 14t38.5 -14t13.5 -38q0 -26 -13.5 -40.5t-38.5 -14.5q-26 0 -40.5 14.5zM209 478.5q-14 14.5 -14 40.5q0 24 14.5 37.5t39.5 13.5t38.5 -13.5t13.5 -37.5q0 -26 -13.5 -40.5t-38.5 -14.5q-26 0 -40 14.5z" />
    <glyph glyph-name="copyright" unicode="&#xa9;" horiz-adv-x="716" 
d="M210.5 -42q-72.5 35 -115.5 101.5t-43 156.5q0 91 49 163t129.5 112.5t169.5 40.5q78 0 138 -32.5t92.5 -86.5t32.5 -116q0 -59 -34 -111.5t-94.5 -85t-135.5 -32.5q-94 0 -139 46t-45 110q0 52 25.5 90t66 58.5t85.5 20.5q42 0 74.5 -15.5t32.5 -45.5q0 -42 -43 -42
q-15 0 -25 9.5t-18 26.5q-12 22 -23 32.5t-31 10.5q-31 0 -42 -26t-11 -84q0 -71 36 -117t110 -46q37 0 70.5 21t53.5 59.5t20 88.5q0 67 -30 123t-83 88.5t-118 32.5q-74 0 -128.5 -36t-82.5 -97t-28 -134q0 -86 34.5 -150t97.5 -99t148 -35q51 0 94.5 11t89.5 40h1
q3 0 5.5 -3.5t-0.5 -4.5q-56 -44 -111.5 -61t-115.5 -17q-86 0 -158.5 35z" />
    <glyph glyph-name="ordfeminine" unicode="&#xaa;" horiz-adv-x="288" 
d="M276 407q4 0 5.5 -3.5t-0.5 -5.5l-68 -32q-6 -2 -10 -2q-11 0 -19.5 10t-11.5 27l-30 -16q-22 -12 -36 -16t-31 -4q-23 0 -36 11t-13 28q0 18 9.5 30t34.5 21l100 34v49q0 46 -9 60t-25 14q-14 0 -23 -14.5t-11 -36.5q-7 -38 -38 -38q-17 0 -27.5 9.5t-10.5 25.5
q0 18 23.5 34.5t56 27t57.5 10.5q31 0 51 -18t20 -54v-117q0 -23 3.5 -33t12.5 -10q5 0 25 9h1zM170 413v6v59l-43 -17q-28 -11 -28 -36q0 -13 7.5 -21t18.5 -8q10 0 22 5zM267.5 312.5q1.5 -5.5 1.5 -11.5q0 -7 -1.5 -12.5t-3.5 -5.5h-224q-2 0 -3.5 6t-1.5 13q0 6 1.5 11
t2.5 5h225q2 0 3.5 -5.5z" />
    <glyph glyph-name="guillemotleft" unicode="&#xab;" horiz-adv-x="475" 
d="M53 225q-4 4 -4 11t4 11l188 149q0 1 2 1t4 -2.5t1 -3.5l-92 -155l92 -155q1 -2 -2.5 -5.5t-4.5 -0.5zM223 225q-4 6 -4 11t4 11l189 149q0 1 2 1t4 -2.5t1 -3.5l-93 -155l93 -155q1 -2 -2.5 -5.5t-4.5 -0.5z" />
    <glyph glyph-name="logicalnot" unicode="&#xac;" horiz-adv-x="395" 
d="M364 112q0 -2 -8 -3.5t-17 -1.5q-8 0 -15 1t-7 3v149h-283q-2 0 -3.5 8t-1.5 17q0 8 1 14.5t3 6.5h331v-194z" />
    <glyph glyph-name="uni00AD" unicode="&#xad;" horiz-adv-x="323" 
d="M28.5 163q-1.5 10 -1.5 21q0 24 3 24l261 47q2 1 3.5 -7.5t1.5 -18.5t-1.5 -18.5t-3.5 -9.5l-259 -47q-2 -1 -3.5 9z" />
    <glyph glyph-name="registered" unicode="&#xae;" horiz-adv-x="729" 
d="M538 484.5q66 -35.5 102 -98t36 -140.5q0 -86 -43 -157.5t-117.5 -113.5t-163.5 -42q-77 0 -146 35t-111.5 99t-42.5 147q0 92 46 161.5t122.5 107t165.5 37.5q86 0 152 -35.5zM553.5 29q55.5 70 55.5 184q0 88 -33 152t-92.5 97.5t-136.5 33.5q-79 0 -131.5 -33.5
t-77 -88.5t-24.5 -123q0 -84 36.5 -150.5t99.5 -104t140 -37.5q108 0 163.5 70zM551 72.5q0 -3.5 -2 -3.5h-98q-9 0 -29.5 38t-60.5 122q-24 -2 -37 -2v-102q0 -30 7.5 -37.5t34.5 -7.5q2 0 2 -5.5t-2 -5.5l-73 1l-71 -1q-1 0 -1 5.5t1 5.5q15 0 21 3t8 12t2 30v215
q0 28 -5.5 36t-25.5 8q-1 0 -1 6t1 6l71 -1q12 0 44 2q28 2 38 2q51 0 76 -16.5t25 -52.5q0 -29 -15 -50.5t-41 -33.5q36 -75 64 -111.5t65 -57.5q2 -1 2 -4.5zM386.5 253.5q16.5 14.5 16.5 56.5q0 76 -44 76q-15 0 -22 -2.5t-10 -12.5t-3 -33v-96q46 -3 62.5 11.5z" />
    <glyph glyph-name="macron" unicode="&#xaf;" horiz-adv-x="345" 
d="M40 479.5q-3 5.5 -3 13.5q0 7 3 12.5t7 5.5h251q5 0 8 -5.5t3 -12.5q0 -8 -3 -13.5t-8 -5.5h-251q-4 0 -7 5.5z" />
    <glyph glyph-name="degree" unicode="&#xb0;" horiz-adv-x="332" 
d="M67.5 410q-38.5 37 -38.5 93q0 53 38.5 90t99.5 37t98.5 -37t37.5 -92t-37.5 -91.5t-98.5 -36.5t-99.5 37zM217 413q10 26 10 81q0 62 -16 92t-50 30q-32 0 -43.5 -28t-11.5 -82q0 -57 15 -88t53 -31q33 0 43 26z" />
    <glyph glyph-name="plusminus" unicode="&#xb1;" horiz-adv-x="398" 
d="M30.5 259q-1.5 8 -1.5 18q0 9 1 16t3 7h141v141q0 4 25 4q24 0 24 -4v-141h141q2 0 3.5 -7.5t1.5 -16.5t-1.5 -17t-3.5 -8h-141v-140q0 -2 -8 -3.5t-18 -1.5q-9 0 -16 1t-7 3v141h-140q-2 0 -3.5 8zM367.5 60.5q1.5 -6.5 1.5 -14.5t-1.5 -15t-3.5 -7h-330q-2 0 -3.5 7.5
t-1.5 15.5q0 7 1.5 13.5t2.5 6.5h331q2 0 3.5 -6.5z" />
    <glyph glyph-name="uni00B2" unicode="&#xb2;" horiz-adv-x="253" 
d="M50 488.5q18 29.5 45 59.5q24 27 34.5 46t10.5 50q0 58 -41 58q-22 0 -38.5 -14t-23.5 -37q0 -2 -4 -2q-3 0 -5.5 1.5t-1.5 3.5q11 35 34 55.5t67 20.5t66 -20.5t22 -53.5t-20 -56.5t-59 -52.5q-31 -23 -48.5 -40t-24.5 -39q-1 -4 2 -4q62 0 92.5 3t43 11.5t12.5 25.5
q0 2 6 2t6 -2l-2 -96q0 -4 -4 -4h-196q-5 0 -3 5q12 50 30 79.5z" />
    <glyph glyph-name="uni00B3" unicode="&#xb3;" horiz-adv-x="251" 
d="M209 548q20 -20 20 -50q0 -24 -13 -47.5t-38.5 -39t-61.5 -15.5q-39 0 -61 18t-34 51q-1 4 5 5.5t7 -2.5q10 -21 27.5 -33t38.5 -12q23 0 38.5 17t15.5 54q0 70 -75 70q-5 0 -4.5 5.5t4.5 5.5q30 0 46 18.5t16 49.5q0 29 -11.5 42t-30.5 13q-22 0 -38.5 -14.5
t-20.5 -33.5q-2 -2 -5 -2t-5.5 1.5t-1.5 3.5q10 35 34.5 55.5t65.5 20.5q43 0 66 -21t23 -53q0 -26 -17 -48t-42 -32q32 -7 52 -27z" />
    <glyph glyph-name="acute" unicode="&#xb4;" horiz-adv-x="275" 
d="M26 439q-4 0 -5 4.5t2 6.5q29 21 81 66q30 26 45 38q5 5 35.5 -3.5t54 -20t11.5 -13.5q-62 -15 -113.5 -33.5t-108.5 -43.5z" />
    <glyph glyph-name="paragraph" unicode="&#xb6;" horiz-adv-x="575" 
d="M185 30q-61 30 -96 83.5t-35 120.5q0 65 35 118.5t96 84.5t137 31l43 -1q36 -2 50 -2q24 0 66 2l49 1q2 0 2 -6t-2 -6q-43 0 -66 -21t-23 -60v-283q0 -38 23 -59t66 -21q2 0 2 -6t-2 -6q-31 0 -49 1l-66 1l-50 -1q-16 -1 -43 -1q-76 0 -137 30zM362.5 30.5
q5.5 -5.5 12.5 -5.5q8 0 13.5 5.5t5.5 16.5v374q0 11 -5.5 16.5t-12.5 5.5q-8 0 -13.5 -5.5t-5.5 -16.5v-375q0 -10 5.5 -15.5z" />
    <glyph glyph-name="periodcentered" unicode="&#xb7;" horiz-adv-x="207" 
d="M60.5 192.5q-16.5 16.5 -16.5 44.5q0 26 16.5 42t44.5 16t43.5 -15.5t15.5 -42.5q0 -29 -15.5 -45t-43.5 -16t-44.5 16.5z" />
    <glyph glyph-name="cedilla" unicode="&#xb8;" horiz-adv-x="232" 
d="M116 -32q0 -19 9.5 -33.5t30.5 -26.5q26 -16 40.5 -33.5t14.5 -44.5q0 -42 -30.5 -73.5t-91.5 -31.5q-75 0 -75 48q0 15 12 27t28 12q19 0 27 -8.5t13 -24.5q5 -15 11.5 -22.5t23.5 -7.5q22 0 22 24q0 26 -18.5 47t-64.5 47q-9 3 -9 12q0 7 4 16q15 36 32 83q0 1 8 21
l17 -1q-4 -15 -4 -30z" />
    <glyph glyph-name="uni00B9" unicode="&#xb9;" horiz-adv-x="262" 
d="M35 409.5q0 5.5 2 5.5q31 0 43.5 4.5t16.5 18t4 46.5v118q0 41 -4 56t-18 15q-11 0 -46 -15h-1q-4 0 -6 5t1 6l136 60h2q3 0 5.5 -2.5t2.5 -4.5v-238q0 -34 3.5 -47.5t15.5 -17.5t41 -4q2 0 2 -5.5t-2 -5.5q-26 0 -41 1l-54 1l-58 -1q-16 -1 -43 -1q-2 0 -2 5.5z" />
    <glyph glyph-name="ordmasculine" unicode="&#xba;" horiz-adv-x="325" 
d="M65.5 399.5q-35.5 40.5 -35.5 98.5q0 43 21 72.5t53 44.5t66 15q38 0 66.5 -19t44 -50t15.5 -66q0 -37 -19 -68.5t-50.5 -49.5t-68.5 -18q-57 0 -92.5 40.5zM209.5 401.5q13.5 27.5 13.5 75.5q0 58 -20.5 97.5t-51.5 39.5q-23 0 -35.5 -25t-12.5 -72q0 -58 20 -100.5
t50 -42.5q23 0 36.5 27.5zM38.5 289q-1.5 6 -1.5 13q0 6 1.5 11t2.5 5h243q2 0 3.5 -5.5t1.5 -11.5q0 -7 -1.5 -12.5t-3.5 -5.5h-242q-2 0 -3.5 6z" />
    <glyph glyph-name="guillemotright" unicode="&#xbb;" horiz-adv-x="475" 
d="M251 247q5 -5 5 -11t-5 -11l-188 -150q0 -1 -2 -1t-4 2.5t-1 4.5l93 154l-93 156q-1 2 2.5 5t4.5 0zM422 247q5 -5 5 -11t-5 -11l-188 -150q0 -1 -2 -1t-4 2.5t-1 4.5l92 154l-92 156q-1 2 2.5 5t4.5 0z" />
    <glyph glyph-name="onequarter" unicode="&#xbc;" horiz-adv-x="607" 
d="M235 314.5q0 -5.5 -2 -5.5q-26 0 -41 1l-54 1l-58 -1q-16 -1 -43 -1q-2 0 -2 5.5t2 5.5q31 0 43.5 4.5t16.5 18t4 46.5v119q0 41 -4 56t-18 15q-7 0 -19.5 -4.5t-26.5 -10.5h-2q-3 0 -5 4.5t1 5.5l136 60h2q3 0 5.5 -2.5t2.5 -4.5v-238q0 -34 3.5 -47.5t15.5 -17.5t41 -4
q2 0 2 -5.5zM454 626.5q16 -7.5 15 -10.5l-280 -617q-1 -3 -17 5t-15 10l279 616q2 4 18 -3.5zM547 90v-49q0 -14 2 -19.5t10 -8t27 -2.5q1 -2 1 -6t-1 -6l-70 1l-88 -1q-1 0 -1 6t1 6q23 0 33 2t13.5 8t3.5 20v51q-70 2 -126 2q-4 0 -6 4t1 7l166 215q3 4 16 4
q7 0 12.5 -1.5t5.5 -3.5v-206l39 2q3 0 3 -13q0 -14 -3 -14zM478 110v129l-96 -127q-3 -3 2 -3z" />
    <glyph glyph-name="onehalf" unicode="&#xbd;" horiz-adv-x="612" 
d="M35 314.5q0 5.5 2 5.5q31 0 43.5 4.5t16.5 18t4 46.5v119q0 41 -4 56t-18 15q-7 0 -19.5 -4.5t-26.5 -10.5h-2q-3 0 -5 4.5t1 5.5l136 60h2q3 0 5.5 -2.5t2.5 -4.5v-238q0 -34 3.5 -47.5t15.5 -17.5t41 -4q2 0 2 -5.5t-2 -5.5q-26 0 -41 1l-54 1l-58 -1q-16 -1 -43 -1
q-2 0 -2 5.5zM172 4q-16 8 -15 10l279 616q2 4 18 -3.5t15 -10.5l-280 -617q-1 -3 -17 5zM408.5 84q17.5 29 45.5 61q23 25 34 45t11 51q0 57 -41 57q-22 0 -38.5 -14t-23.5 -36q0 -3 -4 -3q-3 0 -5.5 1.5t-1.5 3.5q11 35 34 55.5t67 20.5t66 -20t22 -53t-20 -56.5
t-59 -52.5q-32 -25 -49 -41.5t-24 -38.5q-1 -3 2 -3q62 0 92.5 3t43 11.5t12.5 25.5q0 2 6 2t6 -2l-2 -96q0 -5 -4 -5h-196q-4 0 -3 6q12 49 29.5 78z" />
    <glyph glyph-name="threequarters" unicode="&#xbe;" horiz-adv-x="596" 
d="M216.5 356.5q-12.5 -23.5 -38.5 -39t-62 -15.5q-39 0 -61 18t-34 51q-1 3 5 4.5t7 -2.5q10 -21 27.5 -32.5t38.5 -11.5q23 0 38.5 16.5t15.5 53.5q0 70 -75 70q-2 0 -3.5 1.5t-1.5 3.5t1.5 4.5t3.5 2.5q30 0 46 18.5t16 49.5q0 28 -11.5 41.5t-30.5 13.5q-21 0 -38 -15
t-21 -33q-1 -3 -5 -3q-3 0 -5.5 1.5t-1.5 3.5q10 35 34.5 55.5t65.5 20.5q43 0 66 -21t23 -53q0 -27 -17.5 -48t-42.5 -32q32 -7 52.5 -27t20.5 -49q0 -24 -12.5 -47.5zM443 626.5q16 -7.5 15 -10.5l-280 -617q-1 -3 -17 5t-15 10l279 616q2 4 18 -3.5zM536 90v-49
q0 -14 2 -19.5t10 -8t27 -2.5q1 -2 1 -6t-1 -6l-70 1l-88 -1q-1 0 -1 6t1 6q23 0 33 2t13.5 8t3.5 20v51q-70 2 -126 2q-4 0 -6 4t1 7l166 215q3 4 16 4q7 0 12.5 -1.5t5.5 -3.5v-206l39 2q3 0 3 -13q0 -14 -3 -14zM467 110v129l-96 -127q-3 -3 2 -3z" />
    <glyph glyph-name="questiondown" unicode="&#xbf;" horiz-adv-x="327" 
d="M218.5 344.5q16.5 -16.5 16.5 -44.5q0 -26 -16.5 -42t-44.5 -16t-43.5 15.5t-15.5 42.5q0 29 15.5 45t43.5 16t44.5 -16.5zM182 -245q6 11 8 30q2 28 13.5 48.5t43.5 20.5q26 0 38 -14t12 -33q0 -35 -38.5 -58.5t-96.5 -23.5q-65 0 -109.5 31t-44.5 88q0 38 19 62.5
t56 54.5l22 18q31 27 45 56.5t14 66.5q0 15 -5 53q-1 3 7 5t9 -1q12 -27 19 -62t7 -59q0 -30 -9.5 -49.5t-28.5 -43.5q-21 -26 -32.5 -50.5t-11.5 -63.5q0 -38 11.5 -62.5t31.5 -24.5q14 0 20 11z" />
    <glyph glyph-name="Agrave" unicode="&#xc0;" horiz-adv-x="716" 
d="M243.5 769.5q23.5 11.5 54 20t35.5 3.5l47 -40q44 -38 78 -64q3 -1 3 -4t-2 -5t-5 -1q-112 50 -222 77q-12 2 11.5 13.5zM722 6q0 -6 -5 -6q-20 0 -62 2q-44 2 -63 2q-25 0 -61 -2q-34 -2 -54 -2q-4 0 -4 6t4 6q26 0 37.5 5.5t11.5 19.5q0 17 -20 57l-104 205h-178
l-71 -157q-13 -29 -13 -54q0 -36 25.5 -56t68.5 -20q5 0 5 -6t-5 -6q-18 0 -52 2q-38 2 -66 2q-27 0 -65 -2q-34 -2 -55 -2q-4 0 -4 6t4 6q28 0 47 11.5t38 41t45 87.5l217 477q2 3 9 3q8 0 9 -3l250 -492q35 -71 58 -98t48 -27q5 0 5 -6zM237 327h151l-80 158z" />
    <glyph glyph-name="Aacute" unicode="&#xc1;" horiz-adv-x="716" 
d="M255 678q-4 0 -5 4.5t2 6.5q29 21 81 66q30 26 45 38q5 5 35.5 -3.5t54 -20t11.5 -13.5q-62 -15 -113.5 -33.5t-108.5 -43.5zM722 6q0 -6 -5 -6q-20 0 -62 2q-44 2 -63 2q-25 0 -61 -2q-34 -2 -54 -2q-4 0 -4 6t4 6q26 0 37.5 5.5t11.5 19.5q0 17 -20 57l-104 205h-178
l-71 -157q-13 -29 -13 -54q0 -36 25.5 -56t68.5 -20q5 0 5 -6t-5 -6q-18 0 -52 2q-38 2 -66 2q-27 0 -65 -2q-34 -2 -55 -2q-4 0 -4 6t4 6q28 0 47 11.5t38 41t45 87.5l217 477q2 3 9 3q8 0 9 -3l250 -492q35 -71 58 -98t48 -27q5 0 5 -6zM237 327h151l-80 158z" />
    <glyph glyph-name="Acircumflex" unicode="&#xc2;" horiz-adv-x="716" 
d="M240 650.5q-3 3.5 -1 4.5l103 116q5 5 12 5q6 0 11 -5l102 -116q1 0 1 -2t-2.5 -4t-3.5 -1l-108 39l-109 -39q-2 -1 -5 2.5zM722 6q0 -6 -5 -6q-20 0 -62 2q-44 2 -63 2q-25 0 -61 -2q-34 -2 -54 -2q-4 0 -4 6t4 6q26 0 37.5 5.5t11.5 19.5q0 17 -20 57l-104 205h-178
l-71 -157q-13 -29 -13 -54q0 -36 25.5 -56t68.5 -20q5 0 5 -6t-5 -6q-18 0 -52 2q-38 2 -66 2q-27 0 -65 -2q-34 -2 -55 -2q-4 0 -4 6t4 6q28 0 47 11.5t38 41t45 87.5l217 477q2 3 9 3q8 0 9 -3l250 -492q35 -71 58 -98t48 -27q5 0 5 -6zM237 327h151l-80 158z" />
    <glyph glyph-name="Atilde" unicode="&#xc3;" horiz-adv-x="716" 
d="M233 697q-3 0 -5.5 2.5t-1.5 4.5q19 34 40.5 57.5t47.5 23.5q10 0 46 -10q6 -1 30 -7.5t45 -6.5q17 0 27.5 6t23.5 21h1q3 0 5.5 -2.5t0.5 -4.5q-26 -48 -43.5 -64.5t-39.5 -16.5q-19 0 -56 11q-4 1 -26.5 7t-42.5 6q-19 0 -27 -5t-24 -22h-1zM722 6q0 -6 -5 -6
q-20 0 -62 2q-44 2 -63 2q-25 0 -61 -2q-34 -2 -54 -2q-4 0 -4 6t4 6q26 0 37.5 5.5t11.5 19.5q0 17 -20 57l-104 205h-178l-71 -157q-13 -29 -13 -54q0 -36 25.5 -56t68.5 -20q5 0 5 -6t-5 -6q-18 0 -52 2q-38 2 -66 2q-27 0 -65 -2q-34 -2 -55 -2q-4 0 -4 6t4 6
q28 0 47 11.5t38 41t45 87.5l217 477q2 3 9 3q8 0 9 -3l250 -492q35 -71 58 -98t48 -27q5 0 5 -6zM237 327h151l-80 158z" />
    <glyph glyph-name="Adieresis" unicode="&#xc4;" horiz-adv-x="716" 
d="M227.5 717.5q-14.5 14.5 -14.5 40.5q0 24 15 38t40 14t38.5 -14t13.5 -38q0 -26 -13.5 -40.5t-38.5 -14.5q-26 0 -40.5 14.5zM402 717.5q-14 14.5 -14 40.5q0 24 14.5 37.5t39.5 13.5t38.5 -13.5t13.5 -37.5q0 -26 -13.5 -40.5t-38.5 -14.5q-26 0 -40 14.5zM722 6
q0 -6 -5 -6q-20 0 -62 2q-44 2 -63 2q-25 0 -61 -2q-34 -2 -54 -2q-4 0 -4 6t4 6q26 0 37.5 5.5t11.5 19.5q0 17 -20 57l-104 205h-178l-71 -157q-13 -29 -13 -54q0 -36 25.5 -56t68.5 -20q5 0 5 -6t-5 -6q-18 0 -52 2q-38 2 -66 2q-27 0 -65 -2q-34 -2 -55 -2q-4 0 -4 6
t4 6q28 0 47 11.5t38 41t45 87.5l217 477q2 3 9 3q8 0 9 -3l250 -492q35 -71 58 -98t48 -27q5 0 5 -6zM237 327h151l-80 158z" />
    <glyph glyph-name="Aring" unicode="&#xc5;" horiz-adv-x="716" 
d="M268 683.5q-29 23.5 -29 55.5q0 36 35.5 56.5t80.5 20.5q44 0 75 -23t31 -56q0 -35 -35 -56t-80 -21q-49 0 -78 23.5zM312 759q0 -33 13 -59t36 -26q27 0 27 45q0 34 -15.5 58.5t-37.5 24.5q-23 0 -23 -43zM722 6q0 -6 -5 -6q-20 0 -62 2q-44 2 -63 2q-25 0 -61 -2
q-34 -2 -54 -2q-4 0 -4 6t4 6q26 0 37.5 5.5t11.5 19.5q0 17 -20 57l-104 205h-178l-71 -157q-13 -29 -13 -54q0 -36 25.5 -56t68.5 -20q5 0 5 -6t-5 -6q-18 0 -52 2q-38 2 -66 2q-27 0 -65 -2q-34 -2 -55 -2q-4 0 -4 6t4 6q28 0 47 11.5t38 41t45 87.5l217 477q2 3 9 3
q8 0 9 -3l250 -492q35 -71 58 -98t48 -27q5 0 5 -6zM237 327h151l-80 158z" />
    <glyph glyph-name="AE" unicode="&#xc6;" horiz-adv-x="888" 
d="M835 161q3 0 5.5 -1t2.5 -3q-9 -88 -9 -142q0 -8 -3.5 -11.5t-11.5 -3.5h-437q-2 0 -2 6t2 6q32 0 46.5 5t20 19.5t5.5 44.5v230h-150l-110 -173q-26 -40 -26 -72q0 -26 19 -40t55 -14q5 0 5 -6t-5 -6q-21 0 -61 2q-46 2 -80 2q-25 0 -59 -2q-30 -2 -49 -2q-5 0 -5 6t5 6
q42 0 76.5 27t77.5 93l288 442q13 18 13 25q0 9 -16.5 11.5t-60.5 2.5q-3 0 -3 6t3 6h430q10 0 10 -9l2 -133q0 -2 -5.5 -3t-6.5 2q-6 23 -27 50t-51.5 45.5t-64.5 18.5h-42q-29 0 -43 -13t-14 -40v-204h83q58 0 88.5 20t30.5 56q0 3 6 3t6 -3l-1 -90q0 -32 1 -48l1 -54
q0 -2 -5.5 -2t-5.5 2q0 41 -31.5 64.5t-90.5 23.5h-82v-226q0 -29 11 -43t35 -14h44q37 0 75.5 18t67.5 48.5t40 64.5q0 2 3 2zM322 339h132v208z" />
    <glyph glyph-name="Ccedilla" unicode="&#xc7;" horiz-adv-x="669" 
d="M620.5 184q5.5 -1 5.5 -4l-15 -136q-2 -12 -4.5 -15.5t-11.5 -7.5q-89 -33 -183 -33h-17q-2 -14 -2 -21q0 -19 9.5 -33t30.5 -26q26 -16 40.5 -33.5t14.5 -44.5q0 -42 -30.5 -73.5t-91.5 -31.5q-75 0 -75 48q0 15 12 27t28 12q19 0 27 -8.5t13 -24.5q5 -15 11.5 -22.5
t23.5 -7.5q22 0 22 24q0 26 -18.5 47t-64.5 47q-9 3 -9 12q0 7 4 16q18 44 36 94q-110 8 -183.5 57t-108.5 121t-35 148q0 95 51.5 168t137 113t183.5 40q44 0 92 -7.5t75 -19.5q9 -3 11.5 -7.5t4.5 -15.5l12 -139q0 -3 -5 -4t-6 3q-34 79 -91 122t-132 43q-99 0 -153 -73
t-54 -196q0 -92 29.5 -168t83 -120.5t121.5 -44.5q64 0 114.5 42.5t90.5 129.5q1 4 6.5 3z" />
    <glyph glyph-name="Egrave" unicode="&#xc8;" horiz-adv-x="552" 
d="M187.5 769.5q23.5 11.5 54 20t35.5 3.5l47 -40q44 -38 78 -64q3 -1 3 -4t-2 -5t-5 -1q-112 50 -222 77q-12 2 11.5 13.5zM500 161q3 0 5.5 -1.5t2.5 -2.5q-10 -78 -10 -142q0 -8 -3 -11.5t-12 -3.5h-442q-3 0 -3 6t3 6q32 0 46.5 5t19.5 19.5t5 44.5v463q0 30 -5 44
t-20 19.5t-46 5.5q-3 0 -3 6t3 6h424q10 0 10 -9l2 -133q0 -2 -5.5 -3t-6.5 2q-16 58 -54 86t-100 28h-30q-30 0 -44 -13t-14 -40v-204h83q58 0 89 20t31 56q0 3 5.5 3t5.5 -3l-1 -90l1 -48q2 -34 2 -54q0 -2 -6 -2t-6 2q0 41 -31.5 64.5t-90.5 23.5h-82v-226q0 -29 11 -43
t35 -14h33q78 0 125 32t69 99q0 2 4 2z" />
    <glyph glyph-name="Eacute" unicode="&#xc9;" horiz-adv-x="552" 
d="M199 678q-4 0 -5 4.5t2 6.5q29 21 81 66q30 26 45 38q5 5 35.5 -3.5t54 -20t11.5 -13.5q-62 -15 -113.5 -33.5t-108.5 -43.5zM500 161q3 0 5.5 -1.5t2.5 -2.5q-10 -78 -10 -142q0 -8 -3 -11.5t-12 -3.5h-442q-3 0 -3 6t3 6q32 0 46.5 5t19.5 19.5t5 44.5v463q0 30 -5 44
t-20 19.5t-46 5.5q-3 0 -3 6t3 6h424q10 0 10 -9l2 -133q0 -2 -5.5 -3t-6.5 2q-16 58 -54 86t-100 28h-30q-30 0 -44 -13t-14 -40v-204h83q58 0 89 20t31 56q0 3 5.5 3t5.5 -3l-1 -90l1 -48q2 -34 2 -54q0 -2 -6 -2t-6 2q0 41 -31.5 64.5t-90.5 23.5h-82v-226q0 -29 11 -43
t35 -14h33q78 0 125 32t69 99q0 2 4 2z" />
    <glyph glyph-name="Ecircumflex" unicode="&#xca;" horiz-adv-x="552" 
d="M185 697.5q-3 3.5 -1 4.5l103 116q5 5 12 5q6 0 11 -5l102 -116q1 0 1 -2t-2.5 -4t-3.5 -1l-108 39l-109 -39q-2 -1 -5 2.5zM500 161q3 0 5.5 -1.5t2.5 -2.5q-10 -78 -10 -142q0 -8 -3 -11.5t-12 -3.5h-442q-3 0 -3 6t3 6q32 0 46.5 5t19.5 19.5t5 44.5v463q0 30 -5 44
t-20 19.5t-46 5.5q-3 0 -3 6t3 6h424q10 0 10 -9l2 -133q0 -2 -5.5 -3t-6.5 2q-16 58 -54 86t-100 28h-30q-30 0 -44 -13t-14 -40v-204h83q58 0 89 20t31 56q0 3 5.5 3t5.5 -3l-1 -90l1 -48q2 -34 2 -54q0 -2 -6 -2t-6 2q0 41 -31.5 64.5t-90.5 23.5h-82v-226q0 -29 11 -43
t35 -14h33q78 0 125 32t69 99q0 2 4 2z" />
    <glyph glyph-name="Edieresis" unicode="&#xcb;" horiz-adv-x="552" 
d="M171.5 717.5q-14.5 14.5 -14.5 40.5q0 24 15 38t40 14t38.5 -14t13.5 -38q0 -26 -13.5 -40.5t-38.5 -14.5q-26 0 -40.5 14.5zM346 717.5q-14 14.5 -14 40.5q0 24 14.5 37.5t39.5 13.5t38.5 -13.5t13.5 -37.5q0 -26 -13.5 -40.5t-38.5 -14.5q-26 0 -40 14.5zM500 161
q3 0 5.5 -1.5t2.5 -2.5q-10 -78 -10 -142q0 -8 -3 -11.5t-12 -3.5h-442q-3 0 -3 6t3 6q32 0 46.5 5t19.5 19.5t5 44.5v463q0 30 -5 44t-20 19.5t-46 5.5q-3 0 -3 6t3 6h424q10 0 10 -9l2 -133q0 -2 -5.5 -3t-6.5 2q-16 58 -54 86t-100 28h-30q-30 0 -44 -13t-14 -40v-204h83
q58 0 89 20t31 56q0 3 5.5 3t5.5 -3l-1 -90l1 -48q2 -34 2 -54q0 -2 -6 -2t-6 2q0 41 -31.5 64.5t-90.5 23.5h-82v-226q0 -29 11 -43t35 -14h33q78 0 125 32t69 99q0 2 4 2z" />
    <glyph glyph-name="Igrave" unicode="&#xcc;" horiz-adv-x="342" 
d="M49 756q-12 2 11.5 13.5t54 20t35.5 3.5l47 -40q44 -38 78 -64q3 -1 3 -4t-2 -5t-5 -1q-112 50 -222 77zM232 36q5 -14 19.5 -19t46.5 -5q3 0 3 -6t-3 -6q-33 0 -52 1l-76 1l-74 -1q-20 -1 -54 -1q-2 0 -2 6t2 6q32 0 47 5t20.5 19.5t5.5 44.5v463q0 30 -5.5 44
t-20.5 19.5t-47 5.5q-2 0 -2 6t2 6l54 -1q46 -2 74 -2q31 0 77 2l51 1q3 0 3 -6t-3 -6q-31 0 -46 -6t-20 -20.5t-5 -44.5v-461q0 -31 5 -45z" />
    <glyph glyph-name="Iacute" unicode="&#xcd;" horiz-adv-x="342" 
d="M72 678q-4 0 -5 4.5t2 6.5q29 21 81 66q30 26 45 38q5 5 35.5 -3.5t54 -20t11.5 -13.5q-62 -15 -113.5 -33.5t-108.5 -43.5zM232 36q5 -14 19.5 -19t46.5 -5q3 0 3 -6t-3 -6q-33 0 -52 1l-76 1l-74 -1q-20 -1 -54 -1q-2 0 -2 6t2 6q32 0 47 5t20.5 19.5t5.5 44.5v463
q0 30 -5.5 44t-20.5 19.5t-47 5.5q-2 0 -2 6t2 6l54 -1q46 -2 74 -2q31 0 77 2l51 1q3 0 3 -6t-3 -6q-31 0 -46 -6t-20 -20.5t-5 -44.5v-461q0 -31 5 -45z" />
    <glyph glyph-name="Icircumflex" unicode="&#xce;" horiz-adv-x="342" 
d="M160 818q5 5 12 5q6 0 11 -5l102 -116q1 0 1 -2t-2.5 -4t-3.5 -1l-108 39l-109 -39q-2 -1 -5 2.5t-1 4.5zM232 36q5 -14 19.5 -19t46.5 -5q3 0 3 -6t-3 -6q-33 0 -52 1l-76 1l-74 -1q-20 -1 -54 -1q-2 0 -2 6t2 6q32 0 47 5t20.5 19.5t5.5 44.5v463q0 30 -5.5 44
t-20.5 19.5t-47 5.5q-2 0 -2 6t2 6l54 -1q46 -2 74 -2q31 0 77 2l51 1q3 0 3 -6t-3 -6q-31 0 -46 -6t-20 -20.5t-5 -44.5v-461q0 -31 5 -45z" />
    <glyph glyph-name="Idieresis" unicode="&#xcf;" horiz-adv-x="342" 
d="M54.5 717.5q-14.5 14.5 -14.5 40.5q0 24 15 38t40 14t39 -14t14 -38q0 -26 -14 -40.5t-39 -14.5q-26 0 -40.5 14.5zM208 717.5q-14 14.5 -14 40.5q0 24 14 37.5t39 13.5t38.5 -13.5t13.5 -37.5q0 -26 -13.5 -40.5t-38.5 -14.5t-39 14.5zM232 36q5 -14 19.5 -19t46.5 -5
q3 0 3 -6t-3 -6q-33 0 -52 1l-76 1l-74 -1q-20 -1 -54 -1q-2 0 -2 6t2 6q32 0 47 5t20.5 19.5t5.5 44.5v463q0 30 -5.5 44t-20.5 19.5t-47 5.5q-2 0 -2 6t2 6l54 -1q46 -2 74 -2q31 0 77 2l51 1q3 0 3 -6t-3 -6q-31 0 -46 -6t-20 -20.5t-5 -44.5v-461q0 -31 5 -45z" />
    <glyph glyph-name="Eth" unicode="&#xd0;" horiz-adv-x="705" 
d="M491.5 587q78.5 -40 121.5 -109t43 -155q0 -97 -44.5 -171.5t-120 -115t-165.5 -40.5q-32 0 -76 3q-16 1 -39.5 2t-52.5 1l-74 -1q-20 -1 -54 -1q-2 0 -2 6t2 6q32 0 47 5t20.5 19.5t5.5 44.5v216h-50q-4 0 -4 14t4 14h50v219q0 30 -5.5 44t-20 19.5t-45.5 5.5q-3 0 -3 6
t3 6l53 -1q46 -2 73 -2q41 0 84 3q52 2 70 2q101 0 179.5 -40zM429 51.5q49 32.5 76.5 96.5t27.5 153q0 85 -26 154.5t-74 109.5t-111 40q-62 0 -85 -12t-23 -51v-217h136q2 0 3.5 -4.5t1.5 -9.5t-1.5 -9.5t-3.5 -4.5h-136v-205q0 -40 21 -56.5t81 -16.5q64 0 113 32.5z" />
    <glyph glyph-name="Ntilde" unicode="&#xd1;" horiz-adv-x="735" 
d="M261 697q-3 0 -5.5 2.5t-1.5 4.5q19 34 40.5 57.5t47.5 23.5q10 0 46 -10q6 -1 30 -7.5t45 -6.5q17 0 27.5 6t23.5 21h1q3 0 5.5 -2.5t0.5 -4.5q-26 -48 -43.5 -64.5t-39.5 -16.5q-19 0 -56 11q-4 1 -26.5 7t-42.5 6q-19 0 -27 -5t-24 -22h-1zM725 619q0 -6 -2 -6
q-40 0 -63 -31.5t-23 -84.5v-512q0 -3 -4.5 -4t-6.5 1l-469 534v-389q0 -53 22 -84t61 -31q2 0 2 -6t-2 -6q-28 0 -43 1l-54 1l-62 -1q-17 -1 -49 -1q-3 0 -3 6t3 6q44 0 69.5 31t25.5 84v423q-33 36 -56.5 49.5t-48.5 13.5q-2 0 -2 6t2 6l42 -1q13 -1 38 -1l76 1q14 1 34 1
q8 0 12 -4t14 -17q17 -23 24 -31l346 -399v323q0 54 -22 85t-61 31q-2 0 -2 6t2 6l43 -1q32 -2 54 -2q20 0 56 2l45 1q2 0 2 -6z" />
    <glyph glyph-name="Ograve" unicode="&#xd2;" horiz-adv-x="766" 
d="M266 756q-12 2 11.5 13.5t54 20t35.5 3.5l47 -40q44 -38 78 -64q3 -1 3 -4t-2 -5t-5 -1q-112 50 -222 77zM200.5 31.5q-72.5 43.5 -112 118t-39.5 162.5q0 103 52 176.5t133.5 110.5t166.5 37q95 0 167 -44.5t110.5 -117.5t38.5 -155q0 -91 -48 -167t-128.5 -120
t-174.5 -44q-93 0 -165.5 43.5zM499.5 45.5q44.5 32.5 69.5 95t25 149.5q0 92 -28 164.5t-81 113.5t-124 41q-91 0 -140 -68.5t-49 -191.5q0 -97 29.5 -173.5t81 -119.5t116.5 -43q56 0 100.5 32.5z" />
    <glyph glyph-name="Oacute" unicode="&#xd3;" horiz-adv-x="766" 
d="M289 678q-4 0 -5 4.5t2 6.5q29 21 81 66q30 26 45 38q5 5 35.5 -3.5t54 -20t11.5 -13.5q-62 -15 -113.5 -33.5t-108.5 -43.5zM200.5 31.5q-72.5 43.5 -112 118t-39.5 162.5q0 103 52 176.5t133.5 110.5t166.5 37q95 0 167 -44.5t110.5 -117.5t38.5 -155q0 -91 -48 -167
t-128.5 -120t-174.5 -44q-93 0 -165.5 43.5zM499.5 45.5q44.5 32.5 69.5 95t25 149.5q0 92 -28 164.5t-81 113.5t-124 41q-91 0 -140 -68.5t-49 -191.5q0 -97 29.5 -173.5t81 -119.5t116.5 -43q56 0 100.5 32.5z" />
    <glyph glyph-name="Ocircumflex" unicode="&#xd4;" horiz-adv-x="766" 
d="M377 818q5 5 12 5q6 0 11 -5l102 -116q1 0 1 -2t-2.5 -4t-3.5 -1l-108 39l-109 -39q-2 -1 -5 2.5t-1 4.5zM200.5 31.5q-72.5 43.5 -112 118t-39.5 162.5q0 103 52 176.5t133.5 110.5t166.5 37q95 0 167 -44.5t110.5 -117.5t38.5 -155q0 -91 -48 -167t-128.5 -120
t-174.5 -44q-93 0 -165.5 43.5zM499.5 45.5q44.5 32.5 69.5 95t25 149.5q0 92 -28 164.5t-81 113.5t-124 41q-91 0 -140 -68.5t-49 -191.5q0 -97 29.5 -173.5t81 -119.5t116.5 -43q56 0 100.5 32.5z" />
    <glyph glyph-name="Otilde" unicode="&#xd5;" horiz-adv-x="766" 
d="M496.5 767q10.5 6 23.5 21h1q3 0 5.5 -2.5t0.5 -4.5q-26 -48 -43.5 -64.5t-39.5 -16.5q-19 0 -56 11q-4 1 -26.5 7t-42.5 6q-19 0 -27 -5t-24 -22h-1q-3 0 -5.5 2.5t-1.5 4.5q19 34 40.5 57.5t47.5 23.5q10 0 46 -10q6 -1 30 -7.5t45 -6.5q17 0 27.5 6zM200.5 31.5
q-72.5 43.5 -112 118t-39.5 162.5q0 103 52 176.5t133.5 110.5t166.5 37q95 0 167 -44.5t110.5 -117.5t38.5 -155q0 -91 -48 -167t-128.5 -120t-174.5 -44q-93 0 -165.5 43.5zM499.5 45.5q44.5 32.5 69.5 95t25 149.5q0 92 -28 164.5t-81 113.5t-124 41q-91 0 -140 -68.5
t-49 -191.5q0 -97 29.5 -173.5t81 -119.5t116.5 -43q56 0 100.5 32.5z" />
    <glyph glyph-name="Odieresis" unicode="&#xd6;" horiz-adv-x="766" 
d="M261.5 717.5q-14.5 14.5 -14.5 40.5q0 24 15 38t40 14t38.5 -14t13.5 -38q0 -26 -13.5 -40.5t-38.5 -14.5q-26 0 -40.5 14.5zM436 717.5q-14 14.5 -14 40.5q0 24 14.5 37.5t39.5 13.5t38.5 -13.5t13.5 -37.5q0 -26 -13.5 -40.5t-38.5 -14.5q-26 0 -40 14.5zM200.5 31.5
q-72.5 43.5 -112 118t-39.5 162.5q0 103 52 176.5t133.5 110.5t166.5 37q95 0 167 -44.5t110.5 -117.5t38.5 -155q0 -91 -48 -167t-128.5 -120t-174.5 -44q-93 0 -165.5 43.5zM499.5 45.5q44.5 32.5 69.5 95t25 149.5q0 92 -28 164.5t-81 113.5t-124 41q-91 0 -140 -68.5
t-49 -191.5q0 -97 29.5 -173.5t81 -119.5t116.5 -43q56 0 100.5 32.5z" />
    <glyph glyph-name="multiply" unicode="&#xd7;" horiz-adv-x="399" 
d="M319.5 105q-17.5 -18 -20.5 -14l-99 99l-99 -100q-4 -3 -21.5 14t-15.5 20l101 101l-100 99q-2 4 15 21t19 15l101 -100l98 98q4 3 21.5 -14.5t13.5 -19.5l-99 -99l99 -99q4 -3 -13.5 -21z" />
    <glyph glyph-name="Oslash" unicode="&#xd8;" horiz-adv-x="789" 
d="M695 438q22 -58 22 -119q0 -91 -48 -167t-128.5 -120t-174.5 -44q-119 0 -207 73l-69 -70l-1 -1q-5 0 -13 8.5t-5 12.5l68 69q-43 45 -66.5 105t-23.5 127q0 103 52 176.5t133.5 110.5t166.5 37q63 0 116 -20t94 -57l73 74h1q5 0 13.5 -8t5.5 -11l-73 -74q42 -44 64 -102
zM211 153l336 341q-31 55 -78.5 85t-107.5 30q-91 0 -140 -68.5t-49 -191.5q0 -112 39 -196zM499.5 45.5q44.5 32.5 69.5 95t25 149.5q0 101 -34 178l-336 -341q31 -54 76.5 -84t98.5 -30q56 0 100.5 32.5z" />
    <glyph glyph-name="Ugrave" unicode="&#xd9;" horiz-adv-x="703" 
d="M251 756q-12 2 11.5 13.5t54 20t35.5 3.5l47 -40q44 -38 78 -64q3 -1 3 -4t-2 -5t-5 -1q-112 50 -222 77zM546.5 582q-24.5 31 -68.5 31q-2 0 -2 6t2 6l48 -1q38 -2 61 -2q19 0 55 2l46 1q2 0 2 -6t-2 -6q-39 0 -61 -31t-22 -85v-278q0 -70 -31 -123t-87.5 -81.5
t-130.5 -28.5t-131 28t-89.5 81.5t-32.5 125.5v323q0 30 -5.5 44t-20 19.5t-45.5 5.5q-3 0 -3 6t3 6l53 -1q46 -2 73 -2q30 0 76 2l51 1q3 0 3 -6t-3 -6q-31 0 -45.5 -6t-20 -20.5t-5.5 -44.5v-286q0 -119 47 -176t133 -57q83 0 130 50.5t47 144.5v279q0 54 -24.5 85z" />
    <glyph glyph-name="Uacute" unicode="&#xda;" horiz-adv-x="703" 
d="M274 678q-4 0 -5 4.5t2 6.5q29 21 81 66q30 26 45 38q5 5 35.5 -3.5t54 -20t11.5 -13.5q-62 -15 -113.5 -33.5t-108.5 -43.5zM546.5 582q-24.5 31 -68.5 31q-2 0 -2 6t2 6l48 -1q38 -2 61 -2q19 0 55 2l46 1q2 0 2 -6t-2 -6q-39 0 -61 -31t-22 -85v-278q0 -70 -31 -123
t-87.5 -81.5t-130.5 -28.5t-131 28t-89.5 81.5t-32.5 125.5v323q0 30 -5.5 44t-20 19.5t-45.5 5.5q-3 0 -3 6t3 6l53 -1q46 -2 73 -2q30 0 76 2l51 1q3 0 3 -6t-3 -6q-31 0 -45.5 -6t-20 -20.5t-5.5 -44.5v-286q0 -119 47 -176t133 -57q83 0 130 50.5t47 144.5v279
q0 54 -24.5 85z" />
    <glyph glyph-name="Ucircumflex" unicode="&#xdb;" horiz-adv-x="703" 
d="M362 818q5 5 12 5q6 0 11 -5l102 -116q1 0 1 -2t-2.5 -4t-3.5 -1l-108 39l-109 -39q-2 -1 -5 2.5t-1 4.5zM546.5 582q-24.5 31 -68.5 31q-2 0 -2 6t2 6l48 -1q38 -2 61 -2q19 0 55 2l46 1q2 0 2 -6t-2 -6q-39 0 -61 -31t-22 -85v-278q0 -70 -31 -123t-87.5 -81.5
t-130.5 -28.5t-131 28t-89.5 81.5t-32.5 125.5v323q0 30 -5.5 44t-20 19.5t-45.5 5.5q-3 0 -3 6t3 6l53 -1q46 -2 73 -2q30 0 76 2l51 1q3 0 3 -6t-3 -6q-31 0 -45.5 -6t-20 -20.5t-5.5 -44.5v-286q0 -119 47 -176t133 -57q83 0 130 50.5t47 144.5v279q0 54 -24.5 85z" />
    <glyph glyph-name="Udieresis" unicode="&#xdc;" horiz-adv-x="703" 
d="M246.5 717.5q-14.5 14.5 -14.5 40.5q0 24 15 38t40 14t38.5 -14t13.5 -38q0 -26 -13.5 -40.5t-38.5 -14.5q-26 0 -40.5 14.5zM421 717.5q-14 14.5 -14 40.5q0 24 14.5 37.5t39.5 13.5t38.5 -13.5t13.5 -37.5q0 -26 -13.5 -40.5t-38.5 -14.5q-26 0 -40 14.5zM546.5 582
q-24.5 31 -68.5 31q-2 0 -2 6t2 6l48 -1q38 -2 61 -2q19 0 55 2l46 1q2 0 2 -6t-2 -6q-39 0 -61 -31t-22 -85v-278q0 -70 -31 -123t-87.5 -81.5t-130.5 -28.5t-131 28t-89.5 81.5t-32.5 125.5v323q0 30 -5.5 44t-20 19.5t-45.5 5.5q-3 0 -3 6t3 6l53 -1q46 -2 73 -2
q30 0 76 2l51 1q3 0 3 -6t-3 -6q-31 0 -45.5 -6t-20 -20.5t-5.5 -44.5v-286q0 -119 47 -176t133 -57q83 0 130 50.5t47 144.5v279q0 54 -24.5 85z" />
    <glyph glyph-name="Yacute" unicode="&#xdd;" horiz-adv-x="619" 
d="M225 678q-4 0 -5 4.5t2 6.5q29 21 81 66q30 26 45 38q5 5 35.5 -3.5t54 -20t11.5 -13.5q-62 -15 -113.5 -33.5t-108.5 -43.5zM627 619q0 -6 -2 -6q-31 0 -76 -38.5t-80 -96.5l-104 -174v-223q0 -31 5 -45t19.5 -19t46.5 -5q3 0 3 -6t-3 -6q-33 0 -52 1l-75 1l-74 -1
q-20 -1 -54 -1q-2 0 -2 6t2 6q32 0 47 5t20.5 19.5t5.5 44.5v202l-146 227q-37 58 -61.5 80.5t-41.5 22.5q-3 0 -3 6t3 6l31 -1q22 -2 31 -2q35 0 101 2l66 1q2 0 2 -6t-2 -6q-17 0 -26.5 -8t-9.5 -21q0 -16 14 -38l137 -216l92 157q27 45 27 77q0 24 -14.5 36.5t-41.5 12.5
q-3 0 -3 6t3 6l53 -1q46 -2 82 -2q17 0 41 2l37 1q2 0 2 -6z" />
    <glyph glyph-name="Thorn" unicode="&#xde;" horiz-adv-x="549" 
d="M367.5 190.5q28.5 43.5 28.5 125.5q0 79 -32.5 120t-87.5 41q-29 0 -64 -5v-387q0 -32 7 -46.5t26.5 -20.5t62.5 -6q2 0 2 -6t-2 -6q-42 0 -65 1l-86 1l-67 -1q-18 -1 -49 -1q-3 0 -3 6t3 6q26 0 38.5 5t17 19.5t4.5 44.5v463q0 30 -4.5 44t-17 19.5t-38.5 5.5q-3 0 -3 6
t3 6l49 -1q42 -2 67 -2q32 0 86 2l65 1q2 0 2 -6t-2 -6q-43 0 -62.5 -6t-26.5 -21t-7 -47v-45q41 5 89 5q98 0 157 -40t59 -128q0 -65 -31.5 -110t-79.5 -66.5t-98 -21.5q-23 0 -50 5q-2 0 -2 5q0 3 1.5 6t3.5 2q24 -4 36 -4q42 0 70.5 43.5z" />
    <glyph glyph-name="germandbls" unicode="&#xdf;" horiz-adv-x="544" 
d="M440 75q0 42 -24 77t-83 78q-6 5 -6 9q0 3 3 7l75 117q-82 91 -144 91q-47 0 -69 -33t-22 -116v-224q0 -31 3 -45t11.5 -19t27.5 -5q2 0 2 -6t-2 -6l-95 1l-111 -1q-3 0 -3 6t3 6q27 0 40.5 5.5t18.5 19.5t5 44v203q0 48 25.5 93.5t74.5 74t117 28.5t140 -20q18 -5 25 -5
q8 0 14 3.5t17 12.5l4 2q4 0 6 -2.5t1 -5.5l-103 -157q75 -53 106.5 -95.5t31.5 -87.5q0 -33 -20.5 -63.5t-59.5 -50t-92 -19.5q-46 0 -89 10q-10 3 -10 19l-2 118v1q0 4 5 4.5t7 -2.5q35 -63 63.5 -94.5t60.5 -31.5q48 0 48 59z" />
    <glyph glyph-name="agrave" unicode="&#xe0;" horiz-adv-x="481" 
d="M137.5 612.5q23.5 11.5 54 20t35.5 3.5l47 -40q44 -38 78 -64q3 -1 3 -4t-2 -5t-5 -1q-112 50 -222 77q-12 2 11.5 13.5zM482 59q3 0 4.5 -5t-2.5 -6l-110 -53q-4 -2 -9 -2q-19 0 -37.5 16t-28.5 51l-60 -35q-30 -18 -53.5 -25t-48.5 -7q-39 0 -64 21t-25 54
q0 31 20.5 54.5t57.5 36.5l166 59v119q0 61 -12.5 89t-40.5 28q-32 0 -50 -29t-28 -74q-11 -56 -58 -56q-25 0 -39.5 12.5t-14.5 35.5q0 30 37.5 61.5t91.5 52t99 20.5q53 0 84 -27.5t31 -82.5v-213q0 -45 8 -67t20.5 -28t32.5 -6q10 0 27 5zM295 80q-3 18 -3 40v77l-86 -32
q-48 -18 -48 -64q0 -27 13 -42.5t35 -15.5q16 0 44 14z" />
    <glyph glyph-name="aacute" unicode="&#xe1;" horiz-adv-x="481" 
d="M155 521q-4 0 -5 4.5t2 6.5q29 21 81 66q30 26 45 38q5 5 35.5 -3.5t54 -20t11.5 -13.5q-62 -15 -113.5 -33.5t-108.5 -43.5zM482 59q3 0 4.5 -5t-2.5 -6l-110 -53q-4 -2 -9 -2q-19 0 -37.5 16t-28.5 51l-60 -35q-30 -18 -53.5 -25t-48.5 -7q-39 0 -64 21t-25 54
q0 31 20.5 54.5t57.5 36.5l166 59v119q0 61 -12.5 89t-40.5 28q-32 0 -50 -29t-28 -74q-11 -56 -58 -56q-25 0 -39.5 12.5t-14.5 35.5q0 30 37.5 61.5t91.5 52t99 20.5q53 0 84 -27.5t31 -82.5v-213q0 -45 8 -67t20.5 -28t32.5 -6q10 0 27 5zM295 80q-3 18 -3 40v77l-86 -32
q-48 -18 -48 -64q0 -27 13 -42.5t35 -15.5q16 0 44 14z" />
    <glyph glyph-name="acircumflex" unicode="&#xe2;" horiz-adv-x="481" 
d="M135 528.5q-3 3.5 -1 4.5l103 116q5 5 12 5q6 0 11 -5l102 -116q1 0 1 -2t-2.5 -4t-3.5 -1l-108 39l-109 -39q-2 -1 -5 2.5zM482 59q3 0 4.5 -5t-2.5 -6l-110 -53q-4 -2 -9 -2q-19 0 -37.5 16t-28.5 51l-60 -35q-30 -18 -53.5 -25t-48.5 -7q-39 0 -64 21t-25 54
q0 31 20.5 54.5t57.5 36.5l166 59v119q0 61 -12.5 89t-40.5 28q-32 0 -50 -29t-28 -74q-11 -56 -58 -56q-25 0 -39.5 12.5t-14.5 35.5q0 30 37.5 61.5t91.5 52t99 20.5q53 0 84 -27.5t31 -82.5v-213q0 -45 8 -67t20.5 -28t32.5 -6q10 0 27 5zM295 80q-3 18 -3 40v77l-86 -32
q-48 -18 -48 -64q0 -27 13 -42.5t35 -15.5q16 0 44 14z" />
    <glyph glyph-name="atilde" unicode="&#xe3;" horiz-adv-x="481" 
d="M121 540q-3 0 -5.5 2.5t-0.5 4.5q49 81 99 81q18 0 53 -11q17 -5 35.5 -9t32.5 -4q16 0 26 5.5t24 21.5h1q3 0 5 -2.5t1 -4.5q-30 -48 -49.5 -64.5t-43.5 -16.5q-15 0 -35 5t-25 6q-41 13 -67 13q-17 0 -25.5 -5t-15.5 -12t-9 -10h-1zM482 59q3 0 4.5 -5t-2.5 -6
l-110 -53q-4 -2 -9 -2q-19 0 -37.5 16t-28.5 51l-60 -35q-30 -18 -53.5 -25t-48.5 -7q-39 0 -64 21t-25 54q0 31 20.5 54.5t57.5 36.5l166 59v119q0 61 -12.5 89t-40.5 28q-32 0 -50 -29t-28 -74q-11 -56 -58 -56q-25 0 -39.5 12.5t-14.5 35.5q0 30 37.5 61.5t91.5 52
t99 20.5q53 0 84 -27.5t31 -82.5v-213q0 -45 8 -67t20.5 -28t32.5 -6q10 0 27 5zM295 80q-3 18 -3 40v77l-86 -32q-48 -18 -48 -64q0 -27 13 -42.5t35 -15.5q16 0 44 14z" />
    <glyph glyph-name="adieresis" unicode="&#xe4;" horiz-adv-x="481" 
d="M121.5 560.5q-14.5 14.5 -14.5 40.5q0 24 15 38t40 14t38.5 -14t13.5 -38q0 -26 -13.5 -40.5t-38.5 -14.5q-26 0 -40.5 14.5zM296 560.5q-14 14.5 -14 40.5q0 24 14.5 37.5t39.5 13.5t38.5 -13.5t13.5 -37.5q0 -26 -13.5 -40.5t-38.5 -14.5q-26 0 -40 14.5zM482 59
q3 0 4.5 -5t-2.5 -6l-110 -53q-4 -2 -9 -2q-19 0 -37.5 16t-28.5 51l-60 -35q-30 -18 -53.5 -25t-48.5 -7q-39 0 -64 21t-25 54q0 31 20.5 54.5t57.5 36.5l166 59v119q0 61 -12.5 89t-40.5 28q-32 0 -50 -29t-28 -74q-11 -56 -58 -56q-25 0 -39.5 12.5t-14.5 35.5
q0 30 37.5 61.5t91.5 52t99 20.5q53 0 84 -27.5t31 -82.5v-213q0 -45 8 -67t20.5 -28t32.5 -6q10 0 27 5zM295 80q-3 18 -3 40v77l-86 -32q-48 -18 -48 -64q0 -27 13 -42.5t35 -15.5q16 0 44 14z" />
    <glyph glyph-name="aring" unicode="&#xe5;" horiz-adv-x="481" 
d="M162 573.5q-29 23.5 -29 55.5q0 36 36 57t80 21t75 -23.5t31 -56.5q0 -35 -35 -56t-81 -21q-48 0 -77 23.5zM205 649q0 -33 13.5 -59t36.5 -26q13 0 19.5 11t6.5 34q0 34 -15 59t-37 25q-24 0 -24 -44zM482 59q3 0 4.5 -5t-2.5 -6l-110 -53q-4 -2 -9 -2q-19 0 -37.5 16
t-28.5 51l-60 -35q-30 -18 -53.5 -25t-48.5 -7q-39 0 -64 21t-25 54q0 31 20.5 54.5t57.5 36.5l166 59v119q0 61 -12.5 89t-40.5 28q-32 0 -50 -29t-28 -74q-11 -56 -58 -56q-25 0 -39.5 12.5t-14.5 35.5q0 30 37.5 61.5t91.5 52t99 20.5q53 0 84 -27.5t31 -82.5v-213
q0 -45 8 -67t20.5 -28t32.5 -6q10 0 27 5zM295 80q-3 18 -3 40v77l-86 -32q-48 -18 -48 -64q0 -27 13 -42.5t35 -15.5q16 0 44 14z" />
    <glyph glyph-name="ae" unicode="&#xe6;" horiz-adv-x="646" 
d="M643 54q3 0 6 -3.5t0 -6.5q-37 -29 -74.5 -42.5t-79.5 -13.5q-130 0 -180 96l-80 -56q-51 -35 -105 -35q-41 0 -66 21t-25 54q0 31 20.5 54.5t57.5 36.5l168 59v10q-2 95 -7.5 141.5t-18.5 65t-39 18.5q-37 0 -53.5 -26t-22.5 -66q-4 -22 -17 -39t-37 -17q-23 0 -36 13
t-13 34q0 29 33.5 58t84 48t97.5 19q44 0 68 -18.5t33 -57.5q24 36 62.5 56t85.5 20q68 0 103.5 -39t35.5 -102q0 -13 -2.5 -18t-8.5 -5l-244 -1q-3 -28 -3 -61q0 -109 35.5 -165.5t120.5 -56.5q50 0 100 25h1zM423.5 424.5q-22.5 -32.5 -31.5 -92.5l143 3q0 122 -58 122
q-31 0 -53.5 -32.5zM308 100q-17 42 -21 99l-91 -34q-47 -18 -47 -64q0 -27 12.5 -42.5t33.5 -15.5q12 0 26.5 5t25.5 13z" />
    <glyph glyph-name="ccedilla" unicode="&#xe7;" horiz-adv-x="530" 
d="M480 143q5 -1 5 -4l-8 -106q-1 -8 -3 -11t-11 -7q-72 -25 -153 -27q-2 -14 -2 -21q0 -19 9.5 -33t30.5 -26q26 -16 40.5 -33.5t14.5 -44.5q0 -42 -30.5 -73.5t-91.5 -31.5q-75 0 -75 48q0 15 12 27t28 12q19 0 27 -8.5t13 -24.5q5 -15 11.5 -22.5t23.5 -7.5q22 0 22 24
q0 26 -18.5 47t-64.5 47q-9 3 -9 12q0 7 4 16q16 37 36 93q-92 3 -150.5 41.5t-84.5 94t-26 112.5q0 68 36.5 124t100 88t141.5 32q37 0 80.5 -8t71.5 -21q7 -3 9 -6.5t2 -10.5l5 -103q0 -3 -5 -4t-7 3q-38 65 -77.5 96.5t-90.5 31.5q-71 0 -109 -56.5t-38 -150.5
q0 -62 17.5 -117t55.5 -90t96 -35q51 0 86.5 31t69.5 100q1 4 6 3z" />
    <glyph glyph-name="egrave" unicode="&#xe8;" horiz-adv-x="453" 
d="M143.5 612.5q23.5 11.5 54 20t35.5 3.5l47 -40q44 -38 78 -64q3 -1 3 -4t-2 -5t-5 -1q-112 50 -222 77q-12 2 11.5 13.5zM136 269q0 -111 49 -177t138 -66q25 0 51 7t46 21h1q3 0 5.5 -3.5t0.5 -6.5q-70 -56 -154 -56q-78 0 -132.5 33.5t-82.5 87.5t-28 117
q0 69 34 126.5t92 91t126 33.5q74 0 113 -39t39 -102q0 -13 -2.5 -18t-9.5 -5l-284 -1q-2 -26 -2 -43zM178.5 421q-27.5 -32 -37.5 -89l186 3q-2 118 -79 118q-42 0 -69.5 -32z" />
    <glyph glyph-name="eacute" unicode="&#xe9;" horiz-adv-x="453" 
d="M161 521q-4 0 -5 4.5t2 6.5q29 21 81 66q30 26 45 38q5 5 35.5 -3.5t54 -20t11.5 -13.5q-62 -15 -113.5 -33.5t-108.5 -43.5zM136 269q0 -111 49 -177t138 -66q25 0 51 7t46 21h1q3 0 5.5 -3.5t0.5 -6.5q-70 -56 -154 -56q-78 0 -132.5 33.5t-82.5 87.5t-28 117
q0 69 34 126.5t92 91t126 33.5q74 0 113 -39t39 -102q0 -13 -2.5 -18t-9.5 -5l-284 -1q-2 -26 -2 -43zM178.5 421q-27.5 -32 -37.5 -89l186 3q-2 118 -79 118q-42 0 -69.5 -32z" />
    <glyph glyph-name="ecircumflex" unicode="&#xea;" horiz-adv-x="453" 
d="M141 528.5q-3 3.5 -1 4.5l103 116q5 5 12 5q6 0 11 -5l102 -116q1 0 1 -2t-2.5 -4t-3.5 -1l-108 39l-109 -39q-2 -1 -5 2.5zM136 269q0 -111 49 -177t138 -66q25 0 51 7t46 21h1q3 0 5.5 -3.5t0.5 -6.5q-70 -56 -154 -56q-78 0 -132.5 33.5t-82.5 87.5t-28 117
q0 69 34 126.5t92 91t126 33.5q74 0 113 -39t39 -102q0 -13 -2.5 -18t-9.5 -5l-284 -1q-2 -26 -2 -43zM178.5 421q-27.5 -32 -37.5 -89l186 3q-2 118 -79 118q-42 0 -69.5 -32z" />
    <glyph glyph-name="edieresis" unicode="&#xeb;" horiz-adv-x="453" 
d="M127.5 560.5q-14.5 14.5 -14.5 40.5q0 24 15 38t40 14t38.5 -14t13.5 -38q0 -26 -13.5 -40.5t-38.5 -14.5q-26 0 -40.5 14.5zM302 560.5q-14 14.5 -14 40.5q0 24 14.5 37.5t39.5 13.5t38.5 -13.5t13.5 -37.5q0 -26 -13.5 -40.5t-38.5 -14.5q-26 0 -40 14.5zM136 269
q0 -111 49 -177t138 -66q25 0 51 7t46 21h1q3 0 5.5 -3.5t0.5 -6.5q-70 -56 -154 -56q-78 0 -132.5 33.5t-82.5 87.5t-28 117q0 69 34 126.5t92 91t126 33.5q74 0 113 -39t39 -102q0 -13 -2.5 -18t-9.5 -5l-284 -1q-2 -26 -2 -43zM178.5 421q-27.5 -32 -37.5 -89l186 3
q-2 118 -79 118q-42 0 -69.5 -32z" />
    <glyph glyph-name="igrave" unicode="&#xec;" horiz-adv-x="303" 
d="M32 599q-12 2 11.5 13.5t54 20t35.5 3.5l47 -40q44 -38 78 -64q3 -1 3 -4t-2 -5t-5 -1q-112 50 -222 77zM207 36.5q5 -14.5 18 -19.5t42 -5q2 0 2 -6t-2 -6q-31 0 -48 1l-68 1l-65 -1q-18 -1 -50 -1q-2 0 -2 6t2 6q29 0 42.5 5t18.5 19.5t5 44.5v306q0 30 -5 44
t-18.5 19.5t-42.5 5.5q-2 0 -2 6t2 6l50 -1q40 -2 65 -2q27 0 69 2l47 1q2 0 2 -6t-2 -6q-28 0 -41.5 -6t-18.5 -20.5t-5 -44.5v-304q0 -30 5 -44.5z" />
    <glyph glyph-name="iacute" unicode="&#xed;" horiz-adv-x="303" 
d="M61 521q-4 0 -5 4.5t2 6.5q29 21 81 66q30 26 45 38q5 5 35.5 -3.5t54 -20t11.5 -13.5q-62 -15 -113.5 -33.5t-108.5 -43.5zM207 36.5q5 -14.5 18 -19.5t42 -5q2 0 2 -6t-2 -6q-31 0 -48 1l-68 1l-65 -1q-18 -1 -50 -1q-2 0 -2 6t2 6q29 0 42.5 5t18.5 19.5t5 44.5v306
q0 30 -5 44t-18.5 19.5t-42.5 5.5q-2 0 -2 6t2 6l50 -1q40 -2 65 -2q27 0 69 2l47 1q2 0 2 -6t-2 -6q-28 0 -41.5 -6t-18.5 -20.5t-5 -44.5v-304q0 -30 5 -44.5z" />
    <glyph glyph-name="icircumflex" unicode="&#xee;" horiz-adv-x="303" 
d="M143 649q5 5 12 5q6 0 11 -5l102 -116q1 0 1 -2t-2.5 -4t-3.5 -1l-108 39l-109 -39q-2 -1 -5 2.5t-1 4.5zM207 36.5q5 -14.5 18 -19.5t42 -5q2 0 2 -6t-2 -6q-31 0 -48 1l-68 1l-65 -1q-18 -1 -50 -1q-2 0 -2 6t2 6q29 0 42.5 5t18.5 19.5t5 44.5v306q0 30 -5 44
t-18.5 19.5t-42.5 5.5q-2 0 -2 6t2 6l50 -1q40 -2 65 -2q27 0 69 2l47 1q2 0 2 -6t-2 -6q-28 0 -41.5 -6t-18.5 -20.5t-5 -44.5v-304q0 -30 5 -44.5z" />
    <glyph glyph-name="idieresis" unicode="&#xef;" horiz-adv-x="303" 
d="M37.5 560.5q-14.5 14.5 -14.5 40.5q0 24 15 38t40 14t39 -14t14 -38q0 -26 -14 -40.5t-39 -14.5q-26 0 -40.5 14.5zM191 560.5q-14 14.5 -14 40.5q0 24 14 37.5t39 13.5t38.5 -13.5t13.5 -37.5q0 -26 -13.5 -40.5t-38.5 -14.5t-39 14.5zM207 36.5q5 -14.5 18 -19.5t42 -5
q2 0 2 -6t-2 -6q-31 0 -48 1l-68 1l-65 -1q-18 -1 -50 -1q-2 0 -2 6t2 6q29 0 42.5 5t18.5 19.5t5 44.5v306q0 30 -5 44t-18.5 19.5t-42.5 5.5q-2 0 -2 6t2 6l50 -1q40 -2 65 -2q27 0 69 2l47 1q2 0 2 -6t-2 -6q-28 0 -41.5 -6t-18.5 -20.5t-5 -44.5v-304q0 -30 5 -44.5z
" />
    <glyph glyph-name="eth" unicode="&#xf0;" horiz-adv-x="567" 
d="M412 440q61 -30 93 -83t32 -120q0 -69 -33 -124t-92 -86t-134 -31q-28 0 -62 3q-12 1 -30 2t-41 1l-65 -1q-18 -1 -50 -1q-2 0 -2 6t2 6q30 0 43.5 5t18 19.5t4.5 44.5v141h-39q-4 0 -4 14t4 14h39v137q0 30 -4.5 44t-18 19.5t-41.5 5.5q-3 0 -3 6t3 6l48 -1q40 -2 65 -2
q31 0 62 3q40 2 60 2q84 0 145 -30zM381 72q41 54 41 154q0 97 -41 160.5t-123 63.5q-34 0 -48.5 -14t-14.5 -51v-135h102q2 0 3.5 -4.5t1.5 -9.5t-1.5 -9.5t-3.5 -4.5h-102v-130q0 -41 14.5 -57.5t57.5 -16.5q73 0 114 54z" />
    <glyph glyph-name="ntilde" unicode="&#xf1;" horiz-adv-x="593" 
d="M184 540q-3 0 -5.5 2.5t-0.5 4.5q49 81 99 81q18 0 53 -11q17 -5 35.5 -9t32.5 -4q16 0 26 5.5t24 21.5h1q3 0 5 -2.5t1 -4.5q-30 -48 -49.5 -64.5t-43.5 -16.5q-15 0 -35 5t-25 6q-41 13 -67 13q-17 0 -25.5 -5t-15.5 -12t-9 -10h-1zM566 6q0 -6 -2 -6q-25 0 -39 1
l-52 1l-60 -1q-15 -1 -40 -1q-2 0 -2 6t2 6q23 0 34 6t15 20.5t4 44.5v199q0 94 -27.5 129.5t-75.5 35.5q-40 0 -74.5 -20t-64.5 -65v-279q0 -30 3.5 -44.5t14 -20.5t32.5 -6q2 0 2 -6t-2 -6q-29 0 -46 1l-58 1l-55 -1q-16 -1 -45 -1q-2 0 -2 6t2 6q23 0 34.5 5t15.5 19.5
t4 44.5v306q0 30 -4 44t-14.5 19.5t-32.5 5.5q-3 0 -3 6t3 6l65 -1l67 1q12 0 15.5 -3.5t3.5 -15.5v-55q38 44 82 65t97 21q70 0 116 -39.5t46 -135.5v-224q0 -30 3 -44.5t11 -19.5t25 -5q2 0 2 -6z" />
    <glyph glyph-name="ograve" unicode="&#xf2;" horiz-adv-x="567" 
d="M162 596q-12 2 11.5 13.5t54 20t35.5 3.5l47 -40q44 -38 78 -64q3 -1 3 -4t-2 -5t-5 -1q-112 50 -222 77zM148 21.5q-56 33.5 -87 90t-31 122.5q0 76 39.5 132t101 85t126.5 29q71 0 125.5 -34.5t84.5 -90t30 -116.5q0 -67 -35 -124.5t-95 -92t-132 -34.5
q-71 0 -127 33.5zM388.5 66q34.5 55 34.5 152q0 66 -20 120t-56.5 85.5t-84.5 31.5q-58 0 -88 -48t-30 -142q0 -71 20.5 -129.5t55.5 -91.5t78 -33q56 0 90.5 55z" />
    <glyph glyph-name="oacute" unicode="&#xf3;" horiz-adv-x="567" 
d="M191 518q-4 0 -5 4.5t2 6.5q29 21 81 66q30 26 45 38q5 5 35.5 -3.5t54 -20t11.5 -13.5q-62 -15 -113.5 -33.5t-108.5 -43.5zM148 21.5q-56 33.5 -87 90t-31 122.5q0 76 39.5 132t101 85t126.5 29q71 0 125.5 -34.5t84.5 -90t30 -116.5q0 -67 -35 -124.5t-95 -92
t-132 -34.5q-71 0 -127 33.5zM388.5 66q34.5 55 34.5 152q0 66 -20 120t-56.5 85.5t-84.5 31.5q-58 0 -88 -48t-30 -142q0 -71 20.5 -129.5t55.5 -91.5t78 -33q56 0 90.5 55z" />
    <glyph glyph-name="ocircumflex" unicode="&#xf4;" horiz-adv-x="567" 
d="M273 646q5 5 12 5q6 0 11 -5l102 -116q1 0 1 -2t-2.5 -4t-3.5 -1l-108 39l-109 -39q-2 -1 -5 2.5t-1 4.5zM148 21.5q-56 33.5 -87 90t-31 122.5q0 76 39.5 132t101 85t126.5 29q71 0 125.5 -34.5t84.5 -90t30 -116.5q0 -67 -35 -124.5t-95 -92t-132 -34.5
q-71 0 -127 33.5zM388.5 66q34.5 55 34.5 152q0 66 -20 120t-56.5 85.5t-84.5 31.5q-58 0 -88 -48t-30 -142q0 -71 20.5 -129.5t55.5 -91.5t78 -33q56 0 90.5 55z" />
    <glyph glyph-name="otilde" unicode="&#xf5;" horiz-adv-x="567" 
d="M397 606.5q10 5.5 24 21.5h1q3 0 5 -2.5t1 -4.5q-30 -48 -49.5 -64.5t-43.5 -16.5q-15 0 -35 5t-25 6q-41 13 -67 13q-17 0 -25.5 -5t-15.5 -12t-9 -10h-1q-3 0 -5.5 2.5t-0.5 4.5q49 81 99 81q18 0 53 -11q17 -5 35.5 -9t32.5 -4q16 0 26 5.5zM148 21.5q-56 33.5 -87 90
t-31 122.5q0 76 39.5 132t101 85t126.5 29q71 0 125.5 -34.5t84.5 -90t30 -116.5q0 -67 -35 -124.5t-95 -92t-132 -34.5q-71 0 -127 33.5zM388.5 66q34.5 55 34.5 152q0 66 -20 120t-56.5 85.5t-84.5 31.5q-58 0 -88 -48t-30 -142q0 -71 20.5 -129.5t55.5 -91.5t78 -33
q56 0 90.5 55z" />
    <glyph glyph-name="odieresis" unicode="&#xf6;" horiz-adv-x="567" 
d="M157.5 557.5q-14.5 14.5 -14.5 40.5q0 24 15 38t40 14t38.5 -14t13.5 -38q0 -26 -13.5 -40.5t-38.5 -14.5q-26 0 -40.5 14.5zM332 557.5q-14 14.5 -14 40.5q0 24 14.5 37.5t39.5 13.5t38.5 -13.5t13.5 -37.5q0 -26 -13.5 -40.5t-38.5 -14.5q-26 0 -40 14.5zM148 21.5
q-56 33.5 -87 90t-31 122.5q0 76 39.5 132t101 85t126.5 29q71 0 125.5 -34.5t84.5 -90t30 -116.5q0 -67 -35 -124.5t-95 -92t-132 -34.5q-71 0 -127 33.5zM388.5 66q34.5 55 34.5 152q0 66 -20 120t-56.5 85.5t-84.5 31.5q-58 0 -88 -48t-30 -142q0 -71 20.5 -129.5
t55.5 -91.5t78 -33q56 0 90.5 55z" />
    <glyph glyph-name="divide" unicode="&#xf7;" horiz-adv-x="398" 
d="M154 331q-16 16 -16 45q0 26 16.5 41.5t44.5 15.5t43 -15t15 -42q0 -29 -15 -45t-43 -16q-29 0 -45 16zM30.5 214q-1.5 8 -1.5 18q0 9 1 16t3 7h331q2 0 3.5 -7.5t1.5 -16.5t-1.5 -17t-3.5 -8h-330q-2 0 -3.5 8zM154.5 46.5q-16.5 16.5 -16.5 44.5q0 26 16.5 42t44.5 16
q27 0 42.5 -15.5t15.5 -42.5q0 -29 -15 -45t-43 -16t-44.5 16.5z" />
    <glyph glyph-name="oslash" unicode="&#xf8;" horiz-adv-x="567" 
d="M519 330.5q18 -44.5 18 -91.5q0 -67 -35 -124.5t-95 -92t-132 -34.5q-96 0 -164 60l-56 -57l-1 -1q-5 0 -13 8.5t-5 12.5l56 56q-30 34 -46 77t-16 90q0 76 39.5 132t101 85t126.5 29q86 0 151 -53l53 53h1q4 0 12.5 -8t5.5 -11l-52 -52q33 -34 51 -78.5zM163 139
l227 229q-22 41 -54.5 64t-73.5 23q-58 0 -88 -48t-30 -142q0 -67 19 -126zM388.5 66q34.5 55 34.5 152q0 71 -21 123l-228 -230q21 -47 53.5 -73.5t70.5 -26.5q56 0 90.5 55z" />
    <glyph glyph-name="ugrave" unicode="&#xf9;" horiz-adv-x="599" 
d="M188.5 612.5q23.5 11.5 54 20t35.5 3.5l47 -40q44 -38 78 -64q3 -1 3 -4t-2 -5t-5 -1q-112 50 -222 77q-12 2 11.5 13.5zM534 450.5q-11 -5.5 -15 -19.5t-4 -44v-306q0 -30 4 -44.5t14.5 -19.5t32.5 -5q3 0 3 -6t-3 -6l-65 1l-67 -1q-12 0 -15.5 3t-3.5 16v54
q-75 -85 -178 -85q-69 0 -116 37t-47 114v248q0 30 -3 44t-11 19.5t-25 5.5q-2 0 -2 6t2 6l39 -1q32 -2 52 -2q24 0 60 2l40 1q2 0 2 -6t-2 -6q-23 0 -34 -6t-15 -20.5t-4 -44.5v-222q0 -76 28.5 -109t75.5 -33q78 0 138 85v279q0 30 -3.5 44.5t-14 20.5t-32.5 6q-3 0 -3 6
t3 6l46 -1q38 -2 58 -2q18 0 54 2l45 1q3 0 3 -6t-3 -6q-23 0 -34 -5.5z" />
    <glyph glyph-name="uacute" unicode="&#xfa;" horiz-adv-x="599" 
d="M206 521q-4 0 -5 4.5t2 6.5q29 21 81 66q30 26 45 38q5 5 35.5 -3.5t54 -20t11.5 -13.5q-62 -15 -113.5 -33.5t-108.5 -43.5zM534 450.5q-11 -5.5 -15 -19.5t-4 -44v-306q0 -30 4 -44.5t14.5 -19.5t32.5 -5q3 0 3 -6t-3 -6l-65 1l-67 -1q-12 0 -15.5 3t-3.5 16v54
q-75 -85 -178 -85q-69 0 -116 37t-47 114v248q0 30 -3 44t-11 19.5t-25 5.5q-2 0 -2 6t2 6l39 -1q32 -2 52 -2q24 0 60 2l40 1q2 0 2 -6t-2 -6q-23 0 -34 -6t-15 -20.5t-4 -44.5v-222q0 -76 28.5 -109t75.5 -33q78 0 138 85v279q0 30 -3.5 44.5t-14 20.5t-32.5 6q-3 0 -3 6
t3 6l46 -1q38 -2 58 -2q18 0 54 2l45 1q3 0 3 -6t-3 -6q-23 0 -34 -5.5z" />
    <glyph glyph-name="ucircumflex" unicode="&#xfb;" horiz-adv-x="599" 
d="M186 528.5q-3 3.5 -1 4.5l103 116q5 5 12 5q6 0 11 -5l102 -116q1 0 1 -2t-2.5 -4t-3.5 -1l-108 39l-109 -39q-2 -1 -5 2.5zM534 450.5q-11 -5.5 -15 -19.5t-4 -44v-306q0 -30 4 -44.5t14.5 -19.5t32.5 -5q3 0 3 -6t-3 -6l-65 1l-67 -1q-12 0 -15.5 3t-3.5 16v54
q-75 -85 -178 -85q-69 0 -116 37t-47 114v248q0 30 -3 44t-11 19.5t-25 5.5q-2 0 -2 6t2 6l39 -1q32 -2 52 -2q24 0 60 2l40 1q2 0 2 -6t-2 -6q-23 0 -34 -6t-15 -20.5t-4 -44.5v-222q0 -76 28.5 -109t75.5 -33q78 0 138 85v279q0 30 -3.5 44.5t-14 20.5t-32.5 6q-3 0 -3 6
t3 6l46 -1q38 -2 58 -2q18 0 54 2l45 1q3 0 3 -6t-3 -6q-23 0 -34 -5.5z" />
    <glyph glyph-name="udieresis" unicode="&#xfc;" horiz-adv-x="599" 
d="M172.5 560.5q-14.5 14.5 -14.5 40.5q0 24 15 38t40 14t38.5 -14t13.5 -38q0 -26 -13.5 -40.5t-38.5 -14.5q-26 0 -40.5 14.5zM347 560.5q-14 14.5 -14 40.5q0 24 14.5 37.5t39.5 13.5t38.5 -13.5t13.5 -37.5q0 -26 -13.5 -40.5t-38.5 -14.5q-26 0 -40 14.5zM534 450.5
q-11 -5.5 -15 -19.5t-4 -44v-306q0 -30 4 -44.5t14.5 -19.5t32.5 -5q3 0 3 -6t-3 -6l-65 1l-67 -1q-12 0 -15.5 3t-3.5 16v54q-75 -85 -178 -85q-69 0 -116 37t-47 114v248q0 30 -3 44t-11 19.5t-25 5.5q-2 0 -2 6t2 6l39 -1q32 -2 52 -2q24 0 60 2l40 1q2 0 2 -6t-2 -6
q-23 0 -34 -6t-15 -20.5t-4 -44.5v-222q0 -76 28.5 -109t75.5 -33q78 0 138 85v279q0 30 -3.5 44.5t-14 20.5t-32.5 6q-3 0 -3 6t3 6l46 -1q38 -2 58 -2q18 0 54 2l45 1q3 0 3 -6t-3 -6q-23 0 -34 -5.5z" />
    <glyph glyph-name="yacute" unicode="&#xfd;" horiz-adv-x="511" 
d="M172 521q-4 0 -5 4.5t2 6.5q29 21 81 66q30 26 45 38q5 5 35.5 -3.5t54 -20t11.5 -13.5q-62 -15 -113.5 -33.5t-108.5 -43.5zM518 462q0 -6 -2 -6q-30 0 -54.5 -24t-38.5 -66l-141 -365q-24 -66 -60 -117t-75 -71q-6 -4 -20.5 7.5t-23.5 28.5q-10 23 -10 42q0 17 8 19
q56 8 95.5 28.5t62.5 63.5l-184 383q-20 42 -35 56.5t-41 14.5q-3 0 -3 6t3 6l44 -1q38 -2 73 -2q25 0 63 2l44 1q3 0 3 -6t-3 -6q-52 0 -52 -30q0 -13 9 -31l128 -260l88 237q8 22 8 38q0 46 -62 46q-3 0 -3 6t3 6l35 -1q32 -2 63 -2q17 0 39 2l37 1q2 0 2 -6z" />
    <glyph glyph-name="thorn" unicode="&#xfe;" horiz-adv-x="470" 
d="M305.5 143.5q23.5 31.5 23.5 90.5q0 62 -25 93t-68 31q-24 0 -42 -3v-270q0 -31 5 -46t18.5 -21t42.5 -6q2 0 2 -6t-2 -6q-32 0 -50 1l-65 1l-65 -1q-18 -1 -50 -1q-2 0 -2 6t2 6q29 0 42.5 5t18 19t4.5 45v306q0 30 -4.5 44t-18 19.5t-42.5 5.5q-2 0 -2 6t2 6l50 -1
q40 -2 65 -2t65 2l50 1q2 0 2 -6t-2 -6q-29 0 -42.5 -6t-18.5 -21t-5 -47v-9q40 5 66 5q180 0 180 -124q0 -51 -27 -86.5t-68.5 -52.5t-84.5 -17q-23 0 -38 5q-2 0 -2 5q0 3 1.5 6t3.5 2q11 -4 24 -4q33 0 56.5 31.5z" />
    <glyph glyph-name="ydieresis" unicode="&#xff;" horiz-adv-x="511" 
d="M138.5 560.5q-14.5 14.5 -14.5 40.5q0 24 15 38t40 14t38.5 -14t13.5 -38q0 -26 -13.5 -40.5t-38.5 -14.5q-26 0 -40.5 14.5zM313 560.5q-14 14.5 -14 40.5q0 24 14.5 37.5t39.5 13.5t38.5 -13.5t13.5 -37.5q0 -26 -13.5 -40.5t-38.5 -14.5q-26 0 -40 14.5zM518 462
q0 -6 -2 -6q-30 0 -54.5 -24t-38.5 -66l-141 -365q-24 -66 -60 -117t-75 -71q-6 -4 -20.5 7.5t-23.5 28.5q-10 23 -10 42q0 17 8 19q56 8 95.5 28.5t62.5 63.5l-184 383q-20 42 -35 56.5t-41 14.5q-3 0 -3 6t3 6l44 -1q38 -2 73 -2q25 0 63 2l44 1q3 0 3 -6t-3 -6
q-52 0 -52 -30q0 -13 9 -31l128 -260l88 237q8 22 8 38q0 46 -62 46q-3 0 -3 6t3 6l35 -1q32 -2 63 -2q17 0 39 2l37 1q2 0 2 -6z" />
    <glyph glyph-name="Amacron" unicode="&#x100;" horiz-adv-x="716" 
d="M221 718.5q-3 5.5 -3 13.5q0 7 3 12.5t7 5.5h251q5 0 8 -5.5t3 -12.5q0 -8 -3 -13.5t-8 -5.5h-251q-4 0 -7 5.5zM722 6q0 -6 -5 -6q-20 0 -62 2q-44 2 -63 2q-25 0 -61 -2q-34 -2 -54 -2q-4 0 -4 6t4 6q26 0 37.5 5.5t11.5 19.5q0 17 -20 57l-104 205h-178l-71 -157
q-13 -29 -13 -54q0 -36 25.5 -56t68.5 -20q5 0 5 -6t-5 -6q-18 0 -52 2q-38 2 -66 2q-27 0 -65 -2q-34 -2 -55 -2q-4 0 -4 6t4 6q28 0 47 11.5t38 41t45 87.5l217 477q2 3 9 3q8 0 9 -3l250 -492q35 -71 58 -98t48 -27q5 0 5 -6zM237 327h151l-80 158z" />
    <glyph glyph-name="amacron" unicode="&#x101;" horiz-adv-x="481" 
d="M115 561.5q-3 5.5 -3 13.5q0 7 3 12.5t7 5.5h251q5 0 8 -5.5t3 -12.5q0 -8 -3 -13.5t-8 -5.5h-251q-4 0 -7 5.5zM482 59q3 0 4.5 -5t-2.5 -6l-110 -53q-4 -2 -9 -2q-19 0 -37.5 16t-28.5 51l-60 -35q-30 -18 -53.5 -25t-48.5 -7q-39 0 -64 21t-25 54q0 31 20.5 54.5
t57.5 36.5l166 59v119q0 61 -12.5 89t-40.5 28q-32 0 -50 -29t-28 -74q-11 -56 -58 -56q-25 0 -39.5 12.5t-14.5 35.5q0 30 37.5 61.5t91.5 52t99 20.5q53 0 84 -27.5t31 -82.5v-213q0 -45 8 -67t20.5 -28t32.5 -6q10 0 27 5zM295 80q-3 18 -3 40v77l-86 -32
q-48 -18 -48 -64q0 -27 13 -42.5t35 -15.5q16 0 44 14z" />
    <glyph glyph-name="Abreve" unicode="&#x102;" horiz-adv-x="716" 
d="M277.5 722.5q-26.5 32.5 -26.5 94.5q0 3 5.5 3t5.5 -2q0 -18 27 -34t65 -16q37 0 64 16t27 34q0 2 5.5 2t5.5 -3q0 -62 -26 -94.5t-76 -32.5t-76.5 32.5zM722 6q0 -6 -5 -6q-20 0 -62 2q-44 2 -63 2q-25 0 -61 -2q-34 -2 -54 -2q-4 0 -4 6t4 6q26 0 37.5 5.5t11.5 19.5
q0 17 -20 57l-104 205h-178l-71 -157q-13 -29 -13 -54q0 -36 25.5 -56t68.5 -20q5 0 5 -6t-5 -6q-18 0 -52 2q-38 2 -66 2q-27 0 -65 -2q-34 -2 -55 -2q-4 0 -4 6t4 6q28 0 47 11.5t38 41t45 87.5l217 477q2 3 9 3q8 0 9 -3l250 -492q35 -71 58 -98t48 -27q5 0 5 -6z
M237 327h151l-80 158z" />
    <glyph glyph-name="abreve" unicode="&#x103;" horiz-adv-x="481" 
d="M171.5 565.5q-26.5 32.5 -26.5 94.5q0 3 5.5 3t5.5 -2q0 -18 27 -34t65 -16q37 0 64 16t27 34q0 2 5.5 2t5.5 -3q0 -62 -26 -94.5t-76 -32.5t-76.5 32.5zM482 59q3 0 4.5 -5t-2.5 -6l-110 -53q-4 -2 -9 -2q-19 0 -37.5 16t-28.5 51l-60 -35q-30 -18 -53.5 -25t-48.5 -7
q-39 0 -64 21t-25 54q0 31 20.5 54.5t57.5 36.5l166 59v119q0 61 -12.5 89t-40.5 28q-32 0 -50 -29t-28 -74q-11 -56 -58 -56q-25 0 -39.5 12.5t-14.5 35.5q0 30 37.5 61.5t91.5 52t99 20.5q53 0 84 -27.5t31 -82.5v-213q0 -45 8 -67t20.5 -28t32.5 -6q10 0 27 5zM295 80
q-3 18 -3 40v77l-86 -32q-48 -18 -48 -64q0 -27 13 -42.5t35 -15.5q16 0 44 14z" />
    <glyph glyph-name="Aogonek" unicode="&#x104;" horiz-adv-x="716" 
d="M722 3.5q0 -5.5 -5 -5.5q-25 0 -63 2l-49 1q-50 0 -75.5 -30.5t-25.5 -85.5t24.5 -86.5t60.5 -31.5q23 0 43 11h1q3 0 5.5 -3t0.5 -5q-27 -24 -54 -34.5t-58 -10.5q-55 0 -86.5 30t-31.5 77q0 35 16 58.5t46 51.5q27 26 40 44.5t13 44.5q0 28 -18 63l-104 205h-177
l-72 -157q-13 -29 -13 -54q0 -36 25.5 -56t68.5 -20q5 0 5 -6t-5 -6q-18 0 -52 2q-38 2 -66 2q-27 0 -65 -2q-34 -2 -55 -2q-4 0 -4 6t4 6q28 0 47.5 11.5t38 41t43.5 87.5l218 477q2 3 9 3q8 0 9 -3l250 -492q34 -68 58.5 -98t47.5 -30q5 0 5 -5.5zM237 327h151l-79 157z
" />
    <glyph glyph-name="aogonek" unicode="&#x105;" horiz-adv-x="481" 
d="M482 59q3 0 4.5 -5t-2.5 -6l-2 -1q-66 -32 -102.5 -60t-52.5 -60.5t-16 -77.5q0 -91 76 -91q28 0 52 14h2q3 0 5.5 -3t-0.5 -5q-55 -45 -120 -45q-53 0 -81.5 26t-28.5 70q0 91 140 179q-18 4 -33.5 19.5t-23.5 46.5l-60 -35q-30 -18 -53.5 -25t-48.5 -7q-39 0 -64 21
t-25 54q0 31 20.5 54.5t57.5 36.5l166 59v119q0 61 -12.5 89t-40.5 28q-32 0 -50 -29t-28 -74q-11 -56 -58 -56q-25 0 -39.5 12.5t-14.5 35.5q0 30 37.5 61.5t91.5 52t99 20.5q53 0 84 -27.5t31 -82.5v-213q0 -45 8 -67t20.5 -28t32.5 -6q10 0 27 5zM295 80q-3 18 -3 40v77
l-86 -32q-48 -18 -48 -64q0 -27 13 -42.5t35 -15.5q16 0 44 14z" />
    <glyph glyph-name="Cacute" unicode="&#x106;" horiz-adv-x="669" 
d="M280 678q-4 0 -5 4.5t2 6.5q29 21 81 66q30 26 45 38q5 5 35.5 -3.5t54 -20t11.5 -13.5q-62 -15 -113.5 -33.5t-108.5 -43.5zM513 628.5q48 -7.5 75 -19.5q9 -3 11.5 -7.5t4.5 -15.5l12 -139q0 -3 -5 -4t-6 3q-34 79 -91 122t-132 43q-99 0 -153 -73t-54 -196
q0 -92 29.5 -168t83 -120.5t121.5 -44.5q64 0 114.5 42.5t90.5 129.5q1 4 6.5 3t5.5 -4l-15 -136q-2 -12 -4.5 -15.5t-11.5 -7.5q-89 -33 -183 -33q-122 0 -204 48.5t-120.5 123t-38.5 155.5q0 95 51.5 168t137 113t183.5 40q44 0 92 -7.5z" />
    <glyph glyph-name="cacute" unicode="&#x107;" horiz-adv-x="530" 
d="M201 521q-4 0 -5 4.5t2 6.5q29 21 81 66q30 26 45 38q5 5 35.5 -3.5t54 -20t11.5 -13.5q-62 -15 -113.5 -33.5t-108.5 -43.5zM388.5 472q43.5 -8 71.5 -21q7 -3 9 -6.5t2 -10.5l5 -103q0 -3 -5 -4t-7 3q-38 65 -77.5 96.5t-90.5 31.5q-71 0 -109 -56.5t-38 -150.5
q0 -62 17.5 -117t55.5 -90t96 -35q51 0 86.5 31t69.5 100q1 4 6 3t5 -4l-8 -106q-1 -8 -3 -11t-11 -7q-77 -27 -160 -27q-96 0 -157 38t-88.5 95t-27.5 115q0 68 36.5 124t100 88t141.5 32q37 0 80.5 -8z" />
    <glyph glyph-name="Ccircumflex" unicode="&#x108;" horiz-adv-x="669" 
d="M368 818q5 5 12 5q6 0 11 -5l102 -116q1 0 1 -2t-2.5 -4t-3.5 -1l-108 39l-109 -39q-2 -1 -5 2.5t-1 4.5zM513 628.5q48 -7.5 75 -19.5q9 -3 11.5 -7.5t4.5 -15.5l12 -139q0 -3 -5 -4t-6 3q-34 79 -91 122t-132 43q-99 0 -153 -73t-54 -196q0 -92 29.5 -168t83 -120.5
t121.5 -44.5q64 0 114.5 42.5t90.5 129.5q1 4 6.5 3t5.5 -4l-15 -136q-2 -12 -4.5 -15.5t-11.5 -7.5q-89 -33 -183 -33q-122 0 -204 48.5t-120.5 123t-38.5 155.5q0 95 51.5 168t137 113t183.5 40q44 0 92 -7.5z" />
    <glyph glyph-name="ccircumflex" unicode="&#x109;" horiz-adv-x="530" 
d="M283 649q5 5 12 5q6 0 11 -5l102 -116q1 0 1 -2t-2.5 -4t-3.5 -1l-108 39l-109 -39q-2 -1 -5 2.5t-1 4.5zM388.5 472q43.5 -8 71.5 -21q7 -3 9 -6.5t2 -10.5l5 -103q0 -3 -5 -4t-7 3q-38 65 -77.5 96.5t-90.5 31.5q-71 0 -109 -56.5t-38 -150.5q0 -62 17.5 -117t55.5 -90
t96 -35q51 0 86.5 31t69.5 100q1 4 6 3t5 -4l-8 -106q-1 -8 -3 -11t-11 -7q-77 -27 -160 -27q-96 0 -157 38t-88.5 95t-27.5 115q0 68 36.5 124t100 88t141.5 32q37 0 80.5 -8z" />
    <glyph glyph-name="Cdotaccent" unicode="&#x10a;" horiz-adv-x="669" 
d="M335.5 729.5q-16.5 16.5 -16.5 44.5q0 26 16.5 42t44.5 16q27 0 42.5 -15.5t15.5 -42.5q0 -29 -15 -45t-43 -16t-44.5 16.5zM513 628.5q48 -7.5 75 -19.5q9 -3 11.5 -7.5t4.5 -15.5l12 -139q0 -3 -5 -4t-6 3q-34 79 -91 122t-132 43q-99 0 -153 -73t-54 -196
q0 -92 29.5 -168t83 -120.5t121.5 -44.5q64 0 114.5 42.5t90.5 129.5q1 4 6.5 3t5.5 -4l-15 -136q-2 -12 -4.5 -15.5t-11.5 -7.5q-89 -33 -183 -33q-122 0 -204 48.5t-120.5 123t-38.5 155.5q0 95 51.5 168t137 113t183.5 40q44 0 92 -7.5z" />
    <glyph glyph-name="cdotaccent" unicode="&#x10b;" horiz-adv-x="530" 
d="M249 559q-16 16 -16 45q0 26 16.5 41.5t44.5 15.5t43 -15t15 -42q0 -29 -15 -45t-43 -16q-29 0 -45 16zM388.5 472q43.5 -8 71.5 -21q7 -3 9 -6.5t2 -10.5l5 -103q0 -3 -5 -4t-7 3q-38 65 -77.5 96.5t-90.5 31.5q-71 0 -109 -56.5t-38 -150.5q0 -62 17.5 -117t55.5 -90
t96 -35q51 0 86.5 31t69.5 100q1 4 6 3t5 -4l-8 -106q-1 -8 -3 -11t-11 -7q-77 -27 -160 -27q-96 0 -157 38t-88.5 95t-27.5 115q0 68 36.5 124t100 88t141.5 32q37 0 80.5 -8z" />
    <glyph glyph-name="Ccaron" unicode="&#x10c;" horiz-adv-x="669" 
d="M264 802v2q0 2 2.5 4t3.5 1l109 -38l108 40h1q3 0 4.5 -2.5t-0.5 -4.5l-102 -117q-4 -4 -11 -4q-8 0 -12 4zM513 628.5q48 -7.5 75 -19.5q9 -3 11.5 -7.5t4.5 -15.5l12 -139q0 -3 -5 -4t-6 3q-34 79 -91 122t-132 43q-99 0 -153 -73t-54 -196q0 -92 29.5 -168t83 -120.5
t121.5 -44.5q64 0 114.5 42.5t90.5 129.5q1 4 6.5 3t5.5 -4l-15 -136q-2 -12 -4.5 -15.5t-11.5 -7.5q-89 -33 -183 -33q-122 0 -204 48.5t-120.5 123t-38.5 155.5q0 95 51.5 168t137 113t183.5 40q44 0 92 -7.5z" />
    <glyph glyph-name="ccaron" unicode="&#x10d;" horiz-adv-x="530" 
d="M179 646q-1 0 -1 0.5v0.5q0 2 2.5 4.5t4.5 1.5l109 -39l108 40h1q3 0 4.5 -2.5t-0.5 -4.5l-102 -117q-4 -4 -11 -4q-8 0 -12 4zM388.5 472q43.5 -8 71.5 -21q7 -3 9 -6.5t2 -10.5l5 -103q0 -3 -5 -4t-7 3q-38 65 -77.5 96.5t-90.5 31.5q-71 0 -109 -56.5t-38 -150.5
q0 -62 17.5 -117t55.5 -90t96 -35q51 0 86.5 31t69.5 100q1 4 6 3t5 -4l-8 -106q-1 -8 -3 -11t-11 -7q-77 -27 -160 -27q-96 0 -157 38t-88.5 95t-27.5 115q0 68 36.5 124t100 88t141.5 32q37 0 80.5 -8z" />
    <glyph glyph-name="Dcaron" unicode="&#x10e;" horiz-adv-x="705" 
d="M208 802v2q0 2 2.5 4t3.5 1l109 -38l108 40h1q3 0 4.5 -2.5t-0.5 -4.5l-102 -117q-4 -4 -11 -4q-8 0 -12 4zM250 -1q-16 1 -39.5 2t-52.5 1l-74 -1q-20 -1 -54 -1q-2 0 -2 6t2 6q32 0 47 5t20.5 19.5t5.5 44.5v463q0 30 -5.5 44t-20 19.5t-45.5 5.5q-3 0 -3 6t3 6l53 -1
q46 -2 73 -2q41 0 84 3q52 2 70 2q101 0 179.5 -40t121.5 -109t43 -155q0 -97 -44.5 -171.5t-120 -115t-165.5 -40.5q-32 0 -76 3zM429 51.5q49 32.5 76.5 96.5t27.5 153q0 85 -26 154.5t-74 109.5t-111 40q-62 0 -85 -12t-23 -51v-450q0 -40 21 -56.5t81 -16.5
q64 0 113 32.5z" />
    <glyph glyph-name="dcaron" unicode="&#x10f;" horiz-adv-x="567" 
d="M169 646q-1 0 -1 0.5v0.5q0 2 2.5 4.5t4.5 1.5l109 -39l108 40h1q3 0 4.5 -2.5t-0.5 -4.5l-102 -117q-4 -4 -11 -4q-8 0 -12 4zM216 -1q-12 1 -30 2t-41 1l-65 -1q-18 -1 -50 -1q-2 0 -2 6t2 6q30 0 43.5 5t18 19.5t4.5 44.5v306q0 30 -4.5 44t-18 19.5t-41.5 5.5
q-3 0 -3 6t3 6l48 -1q40 -2 65 -2q31 0 62 3q40 2 60 2q84 0 145 -30t93 -83t32 -120q0 -69 -33 -124t-92 -86t-134 -31q-28 0 -62 3zM381 72q41 54 41 154q0 97 -41 160.5t-123 63.5q-34 0 -48.5 -14t-14.5 -51v-293q0 -41 14.5 -57.5t57.5 -16.5q73 0 114 54z" />
    <glyph glyph-name="Dcroat" unicode="&#x110;" horiz-adv-x="705" 
d="M491.5 587q78.5 -40 121.5 -109t43 -155q0 -97 -44.5 -171.5t-120 -115t-165.5 -40.5q-32 0 -76 3q-16 1 -39.5 2t-52.5 1l-74 -1q-20 -1 -54 -1q-2 0 -2 6t2 6q32 0 47 5t20.5 19.5t5.5 44.5v216h-50q-4 0 -4 14t4 14h50v219q0 30 -5.5 44t-20 19.5t-45.5 5.5q-3 0 -3 6
t3 6l53 -1q46 -2 73 -2q41 0 84 3q52 2 70 2q101 0 179.5 -40zM429 51.5q49 32.5 76.5 96.5t27.5 153q0 85 -26 154.5t-74 109.5t-111 40q-62 0 -85 -12t-23 -51v-217h136q2 0 3.5 -4.5t1.5 -9.5t-1.5 -9.5t-3.5 -4.5h-136v-205q0 -40 21 -56.5t81 -16.5q64 0 113 32.5z" />
    <glyph glyph-name="dcroat" unicode="&#x111;" horiz-adv-x="567" 
d="M412 440q61 -30 93 -83t32 -120q0 -69 -33 -124t-92 -86t-134 -31q-28 0 -62 3q-12 1 -30 2t-41 1l-65 -1q-18 -1 -50 -1q-2 0 -2 6t2 6q30 0 43.5 5t18 19.5t4.5 44.5v141h-39q-4 0 -4 14t4 14h39v137q0 30 -4.5 44t-18 19.5t-41.5 5.5q-3 0 -3 6t3 6l48 -1q40 -2 65 -2
q31 0 62 3q40 2 60 2q84 0 145 -30zM381 72q41 54 41 154q0 97 -41 160.5t-123 63.5q-34 0 -48.5 -14t-14.5 -51v-135h102q2 0 3.5 -4.5t1.5 -9.5t-1.5 -9.5t-3.5 -4.5h-102v-130q0 -41 14.5 -57.5t57.5 -16.5q73 0 114 54z" />
    <glyph glyph-name="Emacron" unicode="&#x112;" horiz-adv-x="552" 
d="M165 718.5q-3 5.5 -3 13.5q0 7 3 12.5t7 5.5h251q5 0 8 -5.5t3 -12.5q0 -8 -3 -13.5t-8 -5.5h-251q-4 0 -7 5.5zM500 161q3 0 5.5 -1.5t2.5 -2.5q-10 -78 -10 -142q0 -8 -3 -11.5t-12 -3.5h-442q-3 0 -3 6t3 6q32 0 46.5 5t19.5 19.5t5 44.5v463q0 30 -5 44t-20 19.5
t-46 5.5q-3 0 -3 6t3 6h424q10 0 10 -9l2 -133q0 -2 -5.5 -3t-6.5 2q-16 58 -54 86t-100 28h-30q-30 0 -44 -13t-14 -40v-204h83q58 0 89 20t31 56q0 3 5.5 3t5.5 -3l-1 -90l1 -48q2 -34 2 -54q0 -2 -6 -2t-6 2q0 41 -31.5 64.5t-90.5 23.5h-82v-226q0 -29 11 -43t35 -14h33
q78 0 125 32t69 99q0 2 4 2z" />
    <glyph glyph-name="emacron" unicode="&#x113;" horiz-adv-x="453" 
d="M121 561.5q-3 5.5 -3 13.5q0 7 3 12.5t7 5.5h251q5 0 8 -5.5t3 -12.5q0 -8 -3 -13.5t-8 -5.5h-251q-4 0 -7 5.5zM136 269q0 -111 49 -177t138 -66q25 0 51 7t46 21h1q3 0 5.5 -3.5t0.5 -6.5q-70 -56 -154 -56q-78 0 -132.5 33.5t-82.5 87.5t-28 117q0 69 34 126.5t92 91
t126 33.5q74 0 113 -39t39 -102q0 -13 -2.5 -18t-9.5 -5l-284 -1q-2 -26 -2 -43zM178.5 421q-27.5 -32 -37.5 -89l186 3q-2 118 -79 118q-42 0 -69.5 -32z" />
    <glyph glyph-name="Ebreve" unicode="&#x114;" horiz-adv-x="552" 
d="M221.5 722.5q-26.5 32.5 -26.5 94.5q0 3 5.5 3t5.5 -2q0 -18 27 -34t65 -16q37 0 64 16t27 34q0 2 5.5 2t5.5 -3q0 -62 -26 -94.5t-76 -32.5t-76.5 32.5zM500 161q3 0 5.5 -1.5t2.5 -2.5q-10 -78 -10 -142q0 -8 -3 -11.5t-12 -3.5h-442q-3 0 -3 6t3 6q32 0 46.5 5
t19.5 19.5t5 44.5v463q0 30 -5 44t-20 19.5t-46 5.5q-3 0 -3 6t3 6h424q10 0 10 -9l2 -133q0 -2 -5.5 -3t-6.5 2q-16 58 -54 86t-100 28h-30q-30 0 -44 -13t-14 -40v-204h83q58 0 89 20t31 56q0 3 5.5 3t5.5 -3l-1 -90l1 -48q2 -34 2 -54q0 -2 -6 -2t-6 2q0 41 -31.5 64.5
t-90.5 23.5h-82v-226q0 -29 11 -43t35 -14h33q78 0 125 32t69 99q0 2 4 2z" />
    <glyph glyph-name="ebreve" unicode="&#x115;" horiz-adv-x="453" 
d="M177.5 565.5q-26.5 32.5 -26.5 94.5q0 3 5.5 3t5.5 -2q0 -18 27 -34t65 -16q37 0 64 16t27 34q0 2 5.5 2t5.5 -3q0 -62 -26 -94.5t-76 -32.5t-76.5 32.5zM136 269q0 -111 49 -177t138 -66q25 0 51 7t46 21h1q3 0 5.5 -3.5t0.5 -6.5q-70 -56 -154 -56q-78 0 -132.5 33.5
t-82.5 87.5t-28 117q0 69 34 126.5t92 91t126 33.5q74 0 113 -39t39 -102q0 -13 -2.5 -18t-9.5 -5l-284 -1q-2 -26 -2 -43zM178.5 421q-27.5 -32 -37.5 -89l186 3q-2 118 -79 118q-42 0 -69.5 -32z" />
    <glyph glyph-name="Edotaccent" unicode="&#x116;" horiz-adv-x="552" 
d="M254.5 729.5q-16.5 16.5 -16.5 44.5q0 26 16.5 42t44.5 16q27 0 42.5 -15.5t15.5 -42.5q0 -29 -15 -45t-43 -16t-44.5 16.5zM500 161q3 0 5.5 -1.5t2.5 -2.5q-10 -78 -10 -142q0 -8 -3 -11.5t-12 -3.5h-442q-3 0 -3 6t3 6q32 0 46.5 5t19.5 19.5t5 44.5v463q0 30 -5 44
t-20 19.5t-46 5.5q-3 0 -3 6t3 6h424q10 0 10 -9l2 -133q0 -2 -5.5 -3t-6.5 2q-16 58 -54 86t-100 28h-30q-30 0 -44 -13t-14 -40v-204h83q58 0 89 20t31 56q0 3 5.5 3t5.5 -3l-1 -90l1 -48q2 -34 2 -54q0 -2 -6 -2t-6 2q0 41 -31.5 64.5t-90.5 23.5h-82v-226q0 -29 11 -43
t35 -14h33q78 0 125 32t69 99q0 2 4 2z" />
    <glyph glyph-name="edotaccent" unicode="&#x117;" horiz-adv-x="453" 
d="M209 559q-16 16 -16 45q0 26 16.5 41.5t44.5 15.5t43 -15t15 -42q0 -29 -15 -45t-43 -16q-29 0 -45 16zM136 269q0 -111 49 -177t138 -66q25 0 51 7t46 21h1q3 0 5.5 -3.5t0.5 -6.5q-70 -56 -154 -56q-78 0 -132.5 33.5t-82.5 87.5t-28 117q0 69 34 126.5t92 91t126 33.5
q74 0 113 -39t39 -102q0 -13 -2.5 -18t-9.5 -5l-284 -1q-2 -26 -2 -43zM178.5 421q-27.5 -32 -37.5 -89l186 3q-2 118 -79 118q-42 0 -69.5 -32z" />
    <glyph glyph-name="Eogonek" unicode="&#x118;" horiz-adv-x="552" 
d="M505 -222q3 0 5.5 -3t-0.5 -5q-55 -45 -112 -45q-51 0 -84.5 32t-33.5 78q0 80 119 165h-358q-3 0 -3 6t3 6q32 0 46.5 5t19.5 19.5t5 44.5v463q0 30 -5 44t-20 19.5t-46 5.5q-3 0 -3 6t3 6h424q10 0 10 -9l2 -133q0 -2 -5.5 -3t-6.5 2q-16 58 -54 86t-100 28h-30
q-30 0 -44 -13t-14 -40v-204h83q58 0 89 20t31 56q0 3 5.5 3t5.5 -3l-1 -90l1 -48q2 -34 2 -54q0 -2 -6 -2t-6 2q0 41 -31.5 64.5t-90.5 23.5h-82v-226q0 -29 11 -43t35 -14h33q78 0 125 32t69 99q0 2 4 2q3 0 5.5 -1.5t2.5 -2.5q-10 -78 -10 -142q0 -8 -3 -11.5t-12 -3.5
h-62q-31 -31 -44.5 -57t-13.5 -60q0 -52 26 -84t71 -32q11 0 24 3.5t19 7.5h2z" />
    <glyph glyph-name="eogonek" unicode="&#x119;" horiz-adv-x="453" 
d="M429 -222q3 0 5.5 -3t-0.5 -5q-55 -45 -112 -45q-51 0 -84.5 32t-33.5 78q0 75 107 156q-19 -3 -38 -3q-78 0 -132.5 33.5t-82.5 87.5t-28 117q0 69 34 126.5t92 91t126 33.5q74 0 113 -39t39 -102q0 -13 -2.5 -18t-9.5 -5l-284 -1q-2 -26 -2 -43q0 -111 49 -177t138 -66
q25 0 51 7t46 21h1q3 0 5.5 -3.5t0.5 -6.5q-40 -33 -83 -45q-31 -30 -44 -56t-13 -60q0 -52 26 -84t71 -32q11 0 24 3.5t19 7.5h2zM178.5 421q-27.5 -32 -37.5 -89l186 3q-2 118 -79 118q-42 0 -69.5 -32z" />
    <glyph glyph-name="Ecaron" unicode="&#x11a;" horiz-adv-x="552" 
d="M183 802v2q0 2 2.5 4t3.5 1l109 -38l108 40h1q3 0 4.5 -2.5t-0.5 -4.5l-102 -117q-4 -4 -11 -4q-8 0 -12 4zM500 161q3 0 5.5 -1.5t2.5 -2.5q-10 -78 -10 -142q0 -8 -3 -11.5t-12 -3.5h-442q-3 0 -3 6t3 6q32 0 46.5 5t19.5 19.5t5 44.5v463q0 30 -5 44t-20 19.5t-46 5.5
q-3 0 -3 6t3 6h424q10 0 10 -9l2 -133q0 -2 -5.5 -3t-6.5 2q-16 58 -54 86t-100 28h-30q-30 0 -44 -13t-14 -40v-204h83q58 0 89 20t31 56q0 3 5.5 3t5.5 -3l-1 -90l1 -48q2 -34 2 -54q0 -2 -6 -2t-6 2q0 41 -31.5 64.5t-90.5 23.5h-82v-226q0 -29 11 -43t35 -14h33
q78 0 125 32t69 99q0 2 4 2z" />
    <glyph glyph-name="ecaron" unicode="&#x11b;" horiz-adv-x="453" 
d="M138 646.5v0.5q0 2 2.5 4.5t4.5 1.5l109 -39l108 40h1q3 0 4.5 -2.5t-0.5 -4.5l-102 -117q-4 -4 -11 -4q-8 0 -12 4l-103 116q-1 0 -1 0.5zM136 269q0 -111 49 -177t138 -66q25 0 51 7t46 21h1q3 0 5.5 -3.5t0.5 -6.5q-70 -56 -154 -56q-78 0 -132.5 33.5t-82.5 87.5
t-28 117q0 69 34 126.5t92 91t126 33.5q74 0 113 -39t39 -102q0 -13 -2.5 -18t-9.5 -5l-284 -1q-2 -26 -2 -43zM178.5 421q-27.5 -32 -37.5 -89l186 3q-2 118 -79 118q-42 0 -69.5 -32z" />
    <glyph glyph-name="Gcircumflex" unicode="&#x11c;" horiz-adv-x="719" 
d="M383 818q5 5 12 5q6 0 11 -5l102 -116q1 0 1 -2t-2.5 -4t-3.5 -1l-108 39l-109 -39q-2 -1 -5 2.5t-1 4.5zM217 30q-82 42 -125 114.5t-43 161.5q0 96 49.5 171.5t136 117t193.5 41.5q47 0 95 -7.5t77 -19.5q9 -3 11.5 -7.5t3.5 -15.5l13 -139q0 -3 -5 -4t-7 3
q-35 77 -96.5 120t-140.5 43q-102 0 -155.5 -71t-53.5 -194q0 -99 34 -176.5t94.5 -120t135.5 -42.5q41 0 63 9t32 35t10 77q0 52 -6 72.5t-25.5 27.5t-67.5 7q-6 0 -6 8q0 3 1.5 5.5t3.5 2.5q85 -5 137 -5q51 0 106 3q2 0 3.5 -2.5t1.5 -4.5q0 -7 -5 -7q-18 1 -25 -6.5
t-9 -30t-2 -80.5q0 -45 3.5 -64t3.5 -24q0 -6 -2.5 -8t-9.5 -4q-129 -28 -232 -28q-110 0 -192 42z" />
    <glyph glyph-name="gcircumflex" unicode="&#x11d;" horiz-adv-x="551" 
d="M287 649q5 5 12 5q6 0 11 -5l102 -116q1 0 1 -2t-2.5 -4t-3.5 -1l-108 39l-109 -39q-2 -1 -5 2.5t-1 4.5zM151.5 21.5q-59.5 33.5 -90.5 88.5t-31 116q0 78 35.5 135.5t100.5 88t153 30.5q44 0 84.5 -8t67.5 -23q7 -3 8.5 -7t2.5 -15l5 -94q0 -3 -5.5 -3.5t-6.5 2.5
q-77 126 -179 126q-71 0 -111.5 -57t-40.5 -162q0 -102 46 -165t125 -63q40 0 58.5 8.5t25 32t6.5 74.5q0 26 -4 36.5t-17 14t-45 3.5q-6 0 -6 8q0 3 1.5 5.5t3.5 2.5q52 -4 105 -4q24 0 80 2q2 0 3.5 -2.5t1.5 -4.5q0 -7 -5 -7q-15 1 -21 -3t-8 -16.5t-2 -44.5
q0 -45 2.5 -63t2.5 -25q0 -6 -2 -7.5t-10 -4.5q-67 -28 -194 -28q-80 0 -139.5 33.5z" />
    <glyph glyph-name="Gbreve" unicode="&#x11e;" horiz-adv-x="719" 
d="M317.5 722.5q-26.5 32.5 -26.5 94.5q0 3 5.5 3t5.5 -2q0 -18 27 -34t65 -16q37 0 64 16t27 34q0 2 5.5 2t5.5 -3q0 -62 -26 -94.5t-76 -32.5t-76.5 32.5zM217 30q-82 42 -125 114.5t-43 161.5q0 96 49.5 171.5t136 117t193.5 41.5q47 0 95 -7.5t77 -19.5q9 -3 11.5 -7.5
t3.5 -15.5l13 -139q0 -3 -5 -4t-7 3q-35 77 -96.5 120t-140.5 43q-102 0 -155.5 -71t-53.5 -194q0 -99 34 -176.5t94.5 -120t135.5 -42.5q41 0 63 9t32 35t10 77q0 52 -6 72.5t-25.5 27.5t-67.5 7q-6 0 -6 8q0 3 1.5 5.5t3.5 2.5q85 -5 137 -5q51 0 106 3q2 0 3.5 -2.5
t1.5 -4.5q0 -7 -5 -7q-18 1 -25 -6.5t-9 -30t-2 -80.5q0 -45 3.5 -64t3.5 -24q0 -6 -2.5 -8t-9.5 -4q-129 -28 -232 -28q-110 0 -192 42z" />
    <glyph glyph-name="gbreve" unicode="&#x11f;" horiz-adv-x="551" 
d="M200.5 663q5.5 0 5.5 -2q0 -18 27 -34t65 -16q37 0 64 16t27 34q0 2 5.5 2t5.5 -3q0 -62 -26 -94.5t-76 -32.5t-76.5 32.5t-26.5 94.5q0 3 5.5 3zM151.5 21.5q-59.5 33.5 -90.5 88.5t-31 116q0 78 35.5 135.5t100.5 88t153 30.5q44 0 84.5 -8t67.5 -23q7 -3 8.5 -7
t2.5 -15l5 -94q0 -3 -5.5 -3.5t-6.5 2.5q-77 126 -179 126q-71 0 -111.5 -57t-40.5 -162q0 -102 46 -165t125 -63q40 0 58.5 8.5t25 32t6.5 74.5q0 26 -4 36.5t-17 14t-45 3.5q-6 0 -6 8q0 3 1.5 5.5t3.5 2.5q52 -4 105 -4q24 0 80 2q2 0 3.5 -2.5t1.5 -4.5q0 -7 -5 -7
q-15 1 -21 -3t-8 -16.5t-2 -44.5q0 -45 2.5 -63t2.5 -25q0 -6 -2 -7.5t-10 -4.5q-67 -28 -194 -28q-80 0 -139.5 33.5z" />
    <glyph glyph-name="Gdotaccent" unicode="&#x120;" horiz-adv-x="719" 
d="M350.5 729.5q-16.5 16.5 -16.5 44.5q0 26 16.5 42t44.5 16q27 0 42.5 -15.5t15.5 -42.5q0 -29 -15 -45t-43 -16t-44.5 16.5zM217 30q-82 42 -125 114.5t-43 161.5q0 96 49.5 171.5t136 117t193.5 41.5q47 0 95 -7.5t77 -19.5q9 -3 11.5 -7.5t3.5 -15.5l13 -139
q0 -3 -5 -4t-7 3q-35 77 -96.5 120t-140.5 43q-102 0 -155.5 -71t-53.5 -194q0 -99 34 -176.5t94.5 -120t135.5 -42.5q41 0 63 9t32 35t10 77q0 52 -6 72.5t-25.5 27.5t-67.5 7q-6 0 -6 8q0 3 1.5 5.5t3.5 2.5q85 -5 137 -5q51 0 106 3q2 0 3.5 -2.5t1.5 -4.5q0 -7 -5 -7
q-18 1 -25 -6.5t-9 -30t-2 -80.5q0 -45 3.5 -64t3.5 -24q0 -6 -2.5 -8t-9.5 -4q-129 -28 -232 -28q-110 0 -192 42z" />
    <glyph glyph-name="gdotaccent" unicode="&#x121;" horiz-adv-x="551" 
d="M253 559q-16 16 -16 45q0 26 16.5 41.5t44.5 15.5t43 -15t15 -42q0 -29 -15 -45t-43 -16q-29 0 -45 16zM151.5 21.5q-59.5 33.5 -90.5 88.5t-31 116q0 78 35.5 135.5t100.5 88t153 30.5q44 0 84.5 -8t67.5 -23q7 -3 8.5 -7t2.5 -15l5 -94q0 -3 -5.5 -3.5t-6.5 2.5
q-77 126 -179 126q-71 0 -111.5 -57t-40.5 -162q0 -102 46 -165t125 -63q40 0 58.5 8.5t25 32t6.5 74.5q0 26 -4 36.5t-17 14t-45 3.5q-6 0 -6 8q0 3 1.5 5.5t3.5 2.5q52 -4 105 -4q24 0 80 2q2 0 3.5 -2.5t1.5 -4.5q0 -7 -5 -7q-15 1 -21 -3t-8 -16.5t-2 -44.5
q0 -45 2.5 -63t2.5 -25q0 -6 -2 -7.5t-10 -4.5q-67 -28 -194 -28q-80 0 -139.5 33.5z" />
    <glyph glyph-name="Gcommaaccent" unicode="&#x122;" horiz-adv-x="719" 
d="M685.5 244.5q1.5 -2.5 1.5 -4.5q0 -7 -5 -7q-18 1 -25 -6.5t-9 -30t-2 -80.5q0 -45 3.5 -64t3.5 -24q0 -6 -2.5 -8t-9.5 -4q-129 -28 -232 -28q-110 0 -192 42t-125 114.5t-43 161.5q0 96 49.5 171.5t136 117t193.5 41.5q47 0 95 -7.5t77 -19.5q9 -3 11.5 -7.5t3.5 -15.5
l13 -139q0 -3 -5 -4t-7 3q-35 77 -96.5 120t-140.5 43q-102 0 -155.5 -71t-53.5 -194q0 -99 34 -176.5t94.5 -120t135.5 -42.5q41 0 63 9t32 35t10 77q0 52 -6 72.5t-25.5 27.5t-67.5 7q-6 0 -6 8q0 3 1.5 5.5t3.5 2.5q85 -5 137 -5q51 0 106 3q2 0 3.5 -2.5zM465 -91
q18 -22 18 -59q0 -39 -20 -69t-56 -56l-2 -1q-4 0 -6 4.5t1 6.5q22 16 35 32.5t13 34.5q0 23 -10 33q-10 -19 -41 -19q-21 0 -35 16t-14 41q0 27 19 42.5t46 15.5q34 0 52 -22z" />
    <glyph glyph-name="gcommaaccent" unicode="&#x123;" horiz-adv-x="551" 
d="M526.5 191.5q1.5 -2.5 1.5 -4.5q0 -7 -5 -7q-15 1 -21 -3t-8 -16.5t-2 -44.5q0 -45 2.5 -63t2.5 -25q0 -6 -2 -7.5t-10 -4.5q-67 -28 -194 -28q-80 0 -139.5 33.5t-90.5 88.5t-31 116q0 78 35.5 135.5t100.5 88t153 30.5q44 0 84.5 -8t67.5 -23q7 -3 8.5 -7t2.5 -15
l5 -94q0 -3 -5.5 -3.5t-6.5 2.5q-77 126 -179 126q-71 0 -111.5 -57t-40.5 -162q0 -102 46 -165t125 -63q40 0 58.5 8.5t25 32t6.5 74.5q0 26 -4 36.5t-17 14t-45 3.5q-6 0 -6 8q0 3 1.5 5.5t3.5 2.5q52 -4 105 -4q24 0 80 2q2 0 3.5 -2.5zM364 -91q18 -22 18 -59
q0 -39 -20 -69t-56 -56l-2 -1q-4 0 -6 4.5t1 6.5q22 16 35 32.5t13 34.5q0 23 -10 33q-10 -19 -41 -19q-21 0 -35 16t-14 41q0 27 19 42.5t46 15.5q34 0 52 -22z" />
    <glyph glyph-name="Hcircumflex" unicode="&#x124;" horiz-adv-x="764" 
d="M272 697.5q-3 3.5 -1 4.5l103 116q5 5 12 5q6 0 11 -5l102 -116q1 0 1 -2t-2.5 -4t-3.5 -1l-108 39l-109 -39q-2 -1 -5 2.5zM735 6q0 -6 -3 -6q-35 0 -56 1l-77 1l-90 -1q-18 -1 -49 -1q-3 0 -3 6t3 6q37 0 54 5t23 19t6 45v230h-323v-230q0 -30 6 -44.5t23 -19.5t54 -5
q2 0 2 -6t-2 -6q-35 0 -56 1l-87 1l-75 -1q-20 -1 -55 -1q-2 0 -2 6t2 6q35 0 51 5t22 19.5t6 44.5v463q0 30 -6 44t-21.5 19.5t-49.5 5.5q-3 0 -3 6t3 6l54 -1q46 -2 74 -2q38 0 88 2l55 1q2 0 2 -6t-2 -6q-36 0 -53 -6t-23.5 -20.5t-6.5 -44.5v-203h323v203q0 30 -6 44.5
t-23 20.5t-54 6q-3 0 -3 6t3 6l49 -1q50 -2 90 -2q27 0 77 2l56 1q3 0 3 -6t-3 -6q-34 0 -50.5 -5.5t-22 -19.5t-5.5 -44v-463q0 -30 5.5 -44.5t21.5 -19.5t51 -5q3 0 3 -6z" />
    <glyph glyph-name="hcircumflex" unicode="&#x125;" horiz-adv-x="632" 
d="M205 528.5q-3 3.5 -1 4.5l103 116q5 5 12 5q6 0 11 -5l102 -116q1 0 1 -2t-2.5 -4t-3.5 -1l-108 39l-109 -39q-2 -1 -5 2.5zM604 6q0 -6 -3 -6q-31 0 -48 1l-66 1l-67 -1q-17 -1 -48 -1q-3 0 -3 6t3 6q28 0 41 5t18 19.5t5 44.5v142h-241v-142q0 -30 5 -44t18.5 -19.5
t41.5 -5.5q2 0 2 -6t-2 -6q-31 0 -48 1l-67 1l-65 -1q-18 -1 -50 -1q-2 0 -2 6t2 6q29 0 42.5 5t18.5 19.5t5 44.5v306q0 30 -5 44t-18.5 19.5t-40.5 5.5q-3 0 -3 6t3 6l48 -1q40 -2 65 -2q27 0 67 2l48 1q2 0 2 -6t-2 -6q-40 0 -52.5 -14t-12.5 -57v-136h241v136
q0 30 -5 44.5t-18 20.5t-41 6q-3 0 -3 6t3 6l48 -1q40 -2 67 -2q24 0 66 2l48 1q3 0 3 -6t-3 -6q-28 0 -41.5 -5.5t-18.5 -19.5t-5 -44v-306q0 -30 5 -44.5t18 -19.5t42 -5q3 0 3 -6z" />
    <glyph glyph-name="Hbar" unicode="&#x126;" horiz-adv-x="764" 
d="M735 6q0 -6 -3 -6q-35 0 -56 1l-77 1l-90 -1q-18 -1 -49 -1q-3 0 -3 6t3 6q37 0 54 5t23 19t6 45v137h-323v-137q0 -30 6 -44.5t23 -19.5t54 -5q2 0 2 -6t-2 -6q-35 0 -56 1l-87 1l-75 -1q-20 -1 -55 -1q-2 0 -2 6t2 6q35 0 51 5t22 19.5t6 44.5v463q0 30 -6 44
t-21.5 19.5t-49.5 5.5q-3 0 -3 6t3 6l54 -1q46 -2 74 -2q38 0 88 2l55 1q2 0 2 -6t-2 -6q-36 0 -53 -6t-23.5 -20.5t-6.5 -44.5v-109h323v109q0 30 -6 44.5t-23 20.5t-54 6q-3 0 -3 6t3 6l49 -1q50 -2 90 -2q27 0 77 2l56 1q3 0 3 -6t-3 -6q-34 0 -50.5 -5.5t-22 -19.5
t-5.5 -44v-463q0 -30 5.5 -44.5t21.5 -19.5t51 -5q3 0 3 -6zM220 246h323v159h-323v-159z" />
    <glyph glyph-name="hbar" unicode="&#x127;" horiz-adv-x="620" 
d="M604 6q0 -6 -3 -6q-31 0 -48 1l-66 1l-67 -1q-17 -1 -48 -1q-3 0 -3 6t3 6q28 0 41 5t18 19.5t5 44.5v72h-241v-72q0 -30 5 -44t18.5 -19.5t41.5 -5.5q2 0 2 -6t-2 -6q-31 0 -48 1l-67 1l-65 -1q-18 -1 -50 -1q-2 0 -2 6t2 6q29 0 42.5 5t18.5 19.5t5 44.5v306
q0 30 -5 44t-18.5 19.5t-40.5 5.5q-3 0 -3 6t3 6l48 -1q40 -2 65 -2q27 0 67 2l48 1q2 0 2 -6t-2 -6q-40 0 -52.5 -14t-12.5 -57v-66h241v66q0 30 -5 44.5t-18 20.5t-41 6q-3 0 -3 6t3 6l48 -1q40 -2 67 -2q24 0 66 2l48 1q3 0 3 -6t-3 -6q-28 0 -41.5 -5.5t-18.5 -19.5
t-5 -44v-306q0 -30 5 -44.5t18 -19.5t42 -5q3 0 3 -6zM195 179h241v115h-241v-115z" />
    <glyph glyph-name="Itilde" unicode="&#x128;" horiz-adv-x="342" 
d="M46 697q-2 0 -4.5 2.5t-1.5 4.5q43 81 88 81q10 0 26 -4.5t21 -5.5q46 -14 73 -14q17 0 27.5 5.5t24.5 21.5h1q3 0 5 -2.5t1 -4.5q-27 -49 -44 -65t-39 -16q-20 0 -57 11q-17 5 -35 9t-34 4q-19 0 -27 -5t-24 -22h-1zM232 36q5 -14 19.5 -19t46.5 -5q3 0 3 -6t-3 -6
q-33 0 -52 1l-76 1l-74 -1q-20 -1 -54 -1q-2 0 -2 6t2 6q32 0 47 5t20.5 19.5t5.5 44.5v463q0 30 -5.5 44t-20.5 19.5t-47 5.5q-2 0 -2 6t2 6l54 -1q46 -2 74 -2q31 0 77 2l51 1q3 0 3 -6t-3 -6q-31 0 -46 -6t-20 -20.5t-5 -44.5v-461q0 -31 5 -45z" />
    <glyph glyph-name="itilde" unicode="&#x129;" horiz-adv-x="303" 
d="M262.5 610q10.5 6 23.5 21h1q3 0 5.5 -2.5t0.5 -4.5q-26 -48 -43.5 -64.5t-39.5 -16.5q-19 0 -56 11q-4 1 -26.5 7t-42.5 6q-19 0 -27 -5t-24 -22h-1q-3 0 -5.5 2.5t-1.5 4.5q19 34 40.5 57.5t47.5 23.5q10 0 46 -10q6 -1 30 -7.5t45 -6.5q17 0 27.5 6zM207 36.5
q5 -14.5 18 -19.5t42 -5q2 0 2 -6t-2 -6q-31 0 -48 1l-68 1l-65 -1q-18 -1 -50 -1q-2 0 -2 6t2 6q29 0 42.5 5t18.5 19.5t5 44.5v306q0 30 -5 44t-18.5 19.5t-42.5 5.5q-2 0 -2 6t2 6l50 -1q40 -2 65 -2q27 0 69 2l47 1q2 0 2 -6t-2 -6q-28 0 -41.5 -6t-18.5 -20.5t-5 -44.5
v-304q0 -30 5 -44.5z" />
    <glyph glyph-name="Imacron" unicode="&#x12a;" horiz-adv-x="342" 
d="M38 718.5q-3 5.5 -3 13.5q0 7 3 12.5t7 5.5h251q5 0 8 -5.5t3 -12.5q0 -8 -3 -13.5t-8 -5.5h-251q-4 0 -7 5.5zM232 36q5 -14 19.5 -19t46.5 -5q3 0 3 -6t-3 -6q-33 0 -52 1l-76 1l-74 -1q-20 -1 -54 -1q-2 0 -2 6t2 6q32 0 47 5t20.5 19.5t5.5 44.5v463q0 30 -5.5 44
t-20.5 19.5t-47 5.5q-2 0 -2 6t2 6l54 -1q46 -2 74 -2q31 0 77 2l51 1q3 0 3 -6t-3 -6q-31 0 -46 -6t-20 -20.5t-5 -44.5v-461q0 -31 5 -45z" />
    <glyph glyph-name="imacron" unicode="&#x12b;" horiz-adv-x="303" 
d="M21 561.5q-3 5.5 -3 13.5q0 7 3 12.5t7 5.5h251q5 0 8 -5.5t3 -12.5q0 -8 -3 -13.5t-8 -5.5h-251q-4 0 -7 5.5zM207 36.5q5 -14.5 18 -19.5t42 -5q2 0 2 -6t-2 -6q-31 0 -48 1l-68 1l-65 -1q-18 -1 -50 -1q-2 0 -2 6t2 6q29 0 42.5 5t18.5 19.5t5 44.5v306q0 30 -5 44
t-18.5 19.5t-42.5 5.5q-2 0 -2 6t2 6l50 -1q40 -2 65 -2q27 0 69 2l47 1q2 0 2 -6t-2 -6q-28 0 -41.5 -6t-18.5 -20.5t-5 -44.5v-304q0 -30 5 -44.5z" />
    <glyph glyph-name="Ibreve" unicode="&#x12c;" horiz-adv-x="342" 
d="M94.5 722.5q-26.5 32.5 -26.5 94.5q0 3 5.5 3t5.5 -2q0 -18 27 -34t65 -16q37 0 64 16t27 34q0 2 5.5 2t5.5 -3q0 -62 -26 -94.5t-76 -32.5t-76.5 32.5zM232 36q5 -14 19.5 -19t46.5 -5q3 0 3 -6t-3 -6q-33 0 -52 1l-76 1l-74 -1q-20 -1 -54 -1q-2 0 -2 6t2 6q32 0 47 5
t20.5 19.5t5.5 44.5v463q0 30 -5.5 44t-20.5 19.5t-47 5.5q-2 0 -2 6t2 6l54 -1q46 -2 74 -2q31 0 77 2l51 1q3 0 3 -6t-3 -6q-31 0 -46 -6t-20 -20.5t-5 -44.5v-461q0 -31 5 -45z" />
    <glyph glyph-name="ibreve" unicode="&#x12d;" horiz-adv-x="303" 
d="M56.5 663q5.5 0 5.5 -2q0 -18 27 -34t65 -16q37 0 64 16t27 34q0 2 5.5 2t5.5 -3q0 -62 -26 -94.5t-76 -32.5t-76.5 32.5t-26.5 94.5q0 3 5.5 3zM207 36.5q5 -14.5 18 -19.5t42 -5q2 0 2 -6t-2 -6q-31 0 -48 1l-68 1l-65 -1q-18 -1 -50 -1q-2 0 -2 6t2 6q29 0 42.5 5
t18.5 19.5t5 44.5v306q0 30 -5 44t-18.5 19.5t-42.5 5.5q-2 0 -2 6t2 6l50 -1q40 -2 65 -2q27 0 69 2l47 1q2 0 2 -6t-2 -6q-28 0 -41.5 -6t-18.5 -20.5t-5 -44.5v-304q0 -30 5 -44.5z" />
    <glyph glyph-name="Iogonek" unicode="&#x12e;" horiz-adv-x="342" 
d="M301 6q0 -6 -3 -6q-32 0 -49 1l-71 1q-19 -42 -19 -93q0 -37 11.5 -68.5t31.5 -50.5t43 -19q19 0 31 7h2q3 0 5.5 -3t-0.5 -5q-24 -24 -47.5 -34.5t-55.5 -10.5q-49 0 -76.5 28.5t-27.5 78.5q0 83 84 170l-67 -1q-19 -1 -51 -1q-2 0 -2 6t2 6q32 0 47 5t20.5 19.5
t5.5 44.5v463q0 30 -5.5 44t-20.5 19.5t-47 5.5q-2 0 -2 6t2 6l54 -1q46 -2 74 -2q31 0 77 2l51 1q3 0 3 -6t-3 -6q-31 0 -46 -6t-20 -20.5t-5 -44.5v-461q0 -31 5 -45t19.5 -19t46.5 -5q3 0 3 -6z" />
    <glyph glyph-name="iogonek" unicode="&#x12f;" horiz-adv-x="303" 
d="M269 6q0 -6 -2 -6q-29 0 -45 1l-63 1q-19 -42 -19 -93q0 -37 11.5 -68.5t31.5 -50.5t43 -19q19 0 31 7h2q3 0 5.5 -3t-0.5 -5q-24 -24 -47.5 -34.5t-55.5 -10.5q-49 0 -76.5 28.5t-27.5 78.5q0 83 84 170l-60 -1q-16 -1 -45 -1q-2 0 -2 6t2 6q29 0 42.5 5t18.5 19.5
t5 44.5v306q0 30 -5 44t-18.5 19.5t-42.5 5.5q-2 0 -2 6t2 6l50 -1q40 -2 65 -2q27 0 69 2l47 1q2 0 2 -6t-2 -6q-28 0 -41.5 -6t-18.5 -20.5t-5 -44.5v-304q0 -30 5 -44.5t18 -19.5t42 -5q2 0 2 -6z" />
    <glyph glyph-name="Idotaccent" unicode="&#x130;" horiz-adv-x="342" 
d="M127.5 729.5q-16.5 16.5 -16.5 44.5q0 26 16.5 42t44.5 16q27 0 42.5 -15.5t15.5 -42.5q0 -29 -15 -45t-43 -16t-44.5 16.5zM232 36q5 -14 19.5 -19t46.5 -5q3 0 3 -6t-3 -6q-33 0 -52 1l-76 1l-74 -1q-20 -1 -54 -1q-2 0 -2 6t2 6q32 0 47 5t20.5 19.5t5.5 44.5v463
q0 30 -5.5 44t-20.5 19.5t-47 5.5q-2 0 -2 6t2 6l54 -1q46 -2 74 -2q31 0 77 2l51 1q3 0 3 -6t-3 -6q-31 0 -46 -6t-20 -20.5t-5 -44.5v-461q0 -31 5 -45z" />
    <glyph glyph-name="dotlessi" unicode="&#x131;" horiz-adv-x="303" 
d="M207 36.5q5 -14.5 18 -19.5t42 -5q2 0 2 -6t-2 -6q-31 0 -48 1l-68 1l-65 -1q-18 -1 -50 -1q-2 0 -2 6t2 6q29 0 42.5 5t18.5 19.5t5 44.5v306q0 30 -5 44t-18.5 19.5t-42.5 5.5q-2 0 -2 6t2 6l50 -1q40 -2 65 -2q27 0 69 2l47 1q2 0 2 -6t-2 -6q-28 0 -41.5 -6
t-18.5 -20.5t-5 -44.5v-304q0 -30 5 -44.5z" />
    <glyph glyph-name="IJ" unicode="&#x132;" horiz-adv-x="699" 
d="M226 305q5 -14 20 -19t48 -5q2 0 2 -6t-2 -6q-34 0 -53 1l-76 1l-73 -1q-20 -1 -55 -1q-2 0 -2 6t2 6q32 0 47 5t20.5 19.5t5.5 44.5v194q0 30 -5.5 44t-20.5 19.5t-47 5.5q-2 0 -2 6t2 6l55 -1q46 -2 73 -2q31 0 77 2l52 1q2 0 2 -6t-2 -6q-32 0 -47 -6t-20.5 -20.5
t-5.5 -44.5v-192q0 -31 5 -45zM673 619q0 -6 -3 -6q-26 0 -38.5 -6t-16.5 -20.5t-4 -44.5v-284q0 -129 -72.5 -200t-193.5 -71q-67 0 -123 20.5t-88.5 53.5t-32.5 69q0 25 16 42t46 17q32 0 44 -18.5t20 -56.5q7 -34 17 -55t34 -36t68 -15q152 0 152 192v344q0 30 -6.5 44
t-23.5 19.5t-54 5.5q-2 0 -2 6t2 6l62 -1q48 -2 77 -2q28 0 70 2l47 1q3 0 3 -6z" />
    <glyph glyph-name="ij" unicode="&#x133;" horiz-adv-x="591" 
d="M193 255.5q4 -13.5 16.5 -17.5t44.5 -4q2 0 2 -6t-2 -6l-48 1q-40 2 -68 2q-25 0 -65 -2l-50 -1q-2 0 -2 6t2 6q32 0 45 4t17 17.5t4 47.5v84q0 34 -4 47.5t-17 17.5t-45 4q-2 0 -2 6t2 6l50 -1q40 -2 65 -2q27 0 69 2l47 1q2 0 2 -6t-2 -6q-32 0 -44.5 -4.5t-16.5 -18
t-4 -48.5v-82q0 -34 4 -47.5zM563 462q0 -6 -3 -6q-26 0 -33.5 -13.5t-7.5 -57.5v-185q0 -102 -61.5 -157.5t-166.5 -55.5q-58 0 -106 15.5t-75.5 41t-27.5 54.5q0 26 15 40.5t39 14.5q26 0 38 -15t24 -46q10 -27 20 -43.5t30 -28.5t53 -12q61 0 89.5 35.5t28.5 98.5v245
q0 30 -5 44t-19 19.5t-42 5.5q-2 0 -2 6t2 6l52 -1q40 -2 63 -2q21 0 55 2l37 1q3 0 3 -6z" />
    <glyph glyph-name="Jcircumflex" unicode="&#x134;" horiz-adv-x="339" 
d="M164 818q5 5 12 5q6 0 11 -5l102 -116q1 0 1 -2t-2.5 -4t-3.5 -1l-108 39l-109 -39q-2 -1 -5 2.5t-1 4.5zM301 619q0 -6 -3 -6q-26 0 -38.5 -6t-16.5 -20.5t-4 -44.5v-546q0 -112 -55.5 -175t-154.5 -63q-38 0 -62 16t-24 44q0 20 13 35.5t39 15.5q25 0 38.5 -15
t24.5 -42q6 -16 12 -24.5t15 -8.5q21 0 31 34t10 113v618q0 30 -6.5 44t-23.5 19.5t-54 5.5q-2 0 -2 6t2 6l62 -1q48 -2 77 -2q28 0 70 2l47 1q3 0 3 -6z" />
    <glyph glyph-name="jcircumflex" unicode="&#x135;" horiz-adv-x="273" 
d="M134 649q5 5 12 5q6 0 11 -5l102 -116q1 0 1 -2t-2.5 -4t-3.5 -1l-108 39l-109 -39q-2 -1 -5 2.5t-1 4.5zM94 387q0 30 -4 44t-15 19.5t-33 5.5q-2 0 -2 6t2 6l44 -1q38 -2 59 -2q25 0 59 2l39 1q3 0 3 -6t-3 -6q-31 0 -40.5 -14t-9.5 -57v-316q0 -76 -14.5 -121.5
t-49 -75.5t-100.5 -53q-2 -1 -4.5 4t0.5 6q33 21 51 71t18 122v365z" />
    <glyph glyph-name="Kcommaaccent" unicode="&#x136;" horiz-adv-x="655" 
d="M667 6q0 -6 -3 -6h-112q-16 0 -27 -1t-18 -1q-16 0 -27.5 7.5t-28 27.5t-58.5 77q-5 7 -11.5 15.5t-14.5 19.5l-131 176l-22 -22v-218q0 -31 5 -45t19.5 -19t46.5 -5q4 0 4 -6t-4 -6q-33 0 -52 1l-75 1l-74 -1q-20 -1 -54 -1q-2 0 -2 6t2 6q32 0 47 5t20.5 19.5t5.5 44.5
v463q0 30 -5.5 44t-20 19.5t-45.5 5.5q-3 0 -3 6t3 6l53 -1q46 -2 73 -2q30 0 76 2l51 1q3 0 3 -6t-3 -6q-31 0 -45.5 -6t-20 -20.5t-5.5 -44.5v-212l188 192q29 29 29 53q0 18 -16 28t-45 10q-3 0 -3 6t3 6l47 -1q44 -2 82 -2q41 0 85 2l45 1q3 0 3 -6t-3 -6
q-46 0 -101 -26.5t-100 -70.5l-113 -115l148 -200q65 -93 97.5 -131.5t52.5 -48t51 -9.5q3 0 3 -6zM397 -91q18 -22 18 -59q0 -39 -20 -69t-56 -56l-2 -1q-4 0 -6 4.5t1 6.5q22 16 35 32.5t13 34.5q0 23 -10 33q-10 -19 -41 -19q-21 0 -35 16t-14 41q0 27 19 42.5t46 15.5
q34 0 52 -22z" />
    <glyph glyph-name="kcommaaccent" unicode="&#x137;" horiz-adv-x="554" 
d="M570 6q0 -6 -3 -6h-133q-6 0 -22 -0.5t-50.5 49t-69.5 96.5l-70 94l-27 -27v-131q0 -30 5 -44t18.5 -19.5t41.5 -5.5q2 0 2 -6t-2 -6q-31 0 -48 1l-67 1l-65 -1q-18 -1 -50 -1q-2 0 -2 6t2 6q29 0 42.5 5t18.5 19.5t5 44.5v306q0 30 -5 44t-18.5 19.5t-40.5 5.5
q-3 0 -3 6t3 6l48 -1q40 -2 65 -2q27 0 67 2l48 1q2 0 2 -6t-2 -6q-40 0 -52.5 -14t-12.5 -57v-133l121 120q42 42 42 65q0 19 -31 19q-2 0 -2 6t2 6l42 -1q38 -2 71 -2q43 0 77 2q10 1 23 1q3 0 3 -6t-3 -6q-39 0 -99 -29t-102 -71l-47 -47l85 -111q63 -84 95.5 -122
t52.5 -51t42 -13q3 0 3 -6zM353 -91q18 -22 18 -59q0 -39 -20 -69t-56 -56l-2 -1q-4 0 -6 4.5t1 6.5q22 16 35 32.5t13 34.5q0 23 -10 33q-10 -19 -41 -19q-21 0 -35 16t-14 41q0 27 19 42.5t46 15.5q34 0 52 -22z" />
    <glyph glyph-name="kgreenlandic" unicode="&#x138;" horiz-adv-x="554" 
d="M570 6q0 -6 -3 -6h-133q-6 0 -22 -0.5t-50.5 49t-69.5 96.5l-70 94l-27 -27v-131q0 -30 5 -44t18.5 -19.5t41.5 -5.5q2 0 2 -6t-2 -6q-31 0 -48 1l-67 1l-65 -1q-18 -1 -50 -1q-2 0 -2 6t2 6q29 0 42.5 5t18.5 19.5t5 44.5v306q0 30 -5 44t-18.5 19.5t-40.5 5.5
q-3 0 -3 6t3 6l48 -1q40 -2 65 -2q27 0 67 2l48 1q2 0 2 -6t-2 -6q-40 0 -52.5 -14t-12.5 -57v-133l121 120q42 42 42 65q0 19 -31 19q-2 0 -2 6t2 6l42 -1q38 -2 71 -2q43 0 77 2q10 1 23 1q3 0 3 -6t-3 -6q-39 0 -99 -29t-102 -71l-47 -47l85 -111q63 -84 95.5 -122
t52.5 -51t42 -13q3 0 3 -6z" />
    <glyph glyph-name="Lacute" unicode="&#x139;" horiz-adv-x="545" 
d="M64 678q-4 0 -5 4.5t2 6.5q29 21 81 66q30 26 45 38q5 5 35.5 -3.5t54 -20t11.5 -13.5q-62 -15 -113.5 -33.5t-108.5 -43.5zM213 85q0 -26 4 -37.5t15.5 -15.5t37.5 -4h34q78 0 135 41.5t76 112.5q0 2 4 2q2 0 4.5 -1.5t2.5 -2.5q-9 -99 -9 -165q0 -8 -3.5 -11.5
t-11.5 -3.5h-472q-2 0 -2 6t2 6q32 0 46.5 5t20 19.5t5.5 44.5v463q0 30 -5.5 44t-20.5 19.5t-46 5.5q-2 0 -2 6t2 6l51 -1q46 -2 76 -2t76 2l51 1q3 0 3 -6t-3 -6q-31 0 -46 -5.5t-20 -20t-5 -44.5v-458z" />
    <glyph glyph-name="lacute" unicode="&#x13a;" horiz-adv-x="468" 
d="M77 521q-4 0 -5 4.5t2 6.5q29 21 81 66q30 26 45 38q5 5 35.5 -3.5t54 -20t11.5 -13.5q-62 -15 -113.5 -33.5t-108.5 -43.5zM189 85q0 -27 5 -40t19.5 -18.5t43.5 -5.5h11q57 0 104 37t69 100q1 2 6.5 1.5t5.5 -2.5q-7 -53 -7 -142q0 -8 -3.5 -11.5t-12.5 -3.5h-400
q-2 0 -2 6t2 6q26 0 38 5t16.5 19.5t4.5 44.5v306q0 30 -4.5 44t-16.5 19.5t-38 5.5q-2 0 -2 6t2 6l49 -1q42 -2 65 -2q26 0 68 2l46 1q3 0 3 -6t-3 -6q-30 0 -44.5 -5.5t-19.5 -20t-5 -44.5v-301z" />
    <glyph glyph-name="Lcommaaccent" unicode="&#x13b;" horiz-adv-x="545" 
d="M519 184q2 0 4.5 -1.5t2.5 -2.5q-9 -99 -9 -165q0 -8 -3.5 -11.5t-11.5 -3.5h-472q-2 0 -2 6t2 6q32 0 46.5 5t20 19.5t5.5 44.5v463q0 30 -5.5 44t-20.5 19.5t-46 5.5q-2 0 -2 6t2 6l51 -1q46 -2 76 -2t76 2l51 1q3 0 3 -6t-3 -6q-31 0 -46 -5.5t-20 -20t-5 -44.5v-458
q0 -26 4 -37.5t15.5 -15.5t37.5 -4h34q78 0 135 41.5t76 112.5q0 2 4 2zM339 -91q18 -22 18 -59q0 -39 -20 -69t-56 -56l-2 -1q-4 0 -6 4.5t1 6.5q22 16 35 32.5t13 34.5q0 23 -10 33q-10 -19 -41 -19q-21 0 -35 16t-14 41q0 27 19 42.5t46 15.5q34 0 52 -22z" />
    <glyph glyph-name="lcommaaccent" unicode="&#x13c;" horiz-adv-x="468" 
d="M447.5 159.5q5.5 -0.5 5.5 -2.5q-7 -53 -7 -142q0 -8 -3.5 -11.5t-12.5 -3.5h-400q-2 0 -2 6t2 6q26 0 38 5t16.5 19.5t4.5 44.5v306q0 30 -4.5 44t-16.5 19.5t-38 5.5q-2 0 -2 6t2 6l49 -1q42 -2 65 -2q26 0 68 2l46 1q3 0 3 -6t-3 -6q-30 0 -44.5 -5.5t-19.5 -20
t-5 -44.5v-301q0 -27 5 -40t19.5 -18.5t43.5 -5.5h11q57 0 104 37t69 100q1 2 6.5 1.5zM318 -91q18 -22 18 -59q0 -39 -20 -69t-56 -56l-2 -1q-4 0 -6 4.5t1 6.5q22 16 35 32.5t13 34.5q0 23 -10 33q-10 -19 -41 -19q-21 0 -35 16t-14 41q0 27 19 42.5t46 15.5q34 0 52 -22z
" />
    <glyph glyph-name="Lcaron" unicode="&#x13d;" horiz-adv-x="545" 
d="M374 623.5q21 -6.5 40 -17t17 -18.5l-59 -236q-1 -2 -6 -1.5t-5 2.5l-8 272q0 5 21 -1.5zM213 85q0 -26 4 -37.5t15.5 -15.5t37.5 -4h34q78 0 135 41.5t76 112.5q0 2 4 2q2 0 4.5 -1.5t2.5 -2.5q-9 -99 -9 -165q0 -8 -3.5 -11.5t-11.5 -3.5h-472q-2 0 -2 6t2 6
q32 0 46.5 5t20 19.5t5.5 44.5v463q0 30 -5.5 44t-20.5 19.5t-46 5.5q-2 0 -2 6t2 6l51 -1q46 -2 76 -2t76 2l51 1q3 0 3 -6t-3 -6q-31 0 -46 -5.5t-20 -20t-5 -44.5v-458z" />
    <glyph glyph-name="lcaron" unicode="&#x13e;" horiz-adv-x="468" 
d="M358 466.5q21 -6.5 40 -17t17 -18.5l-59 -236q-1 -2 -6 -1.5t-5 2.5l-8 272q0 5 21 -1.5zM189 85q0 -27 5 -40t19.5 -18.5t43.5 -5.5h11q57 0 104 37t69 100q1 2 6.5 1.5t5.5 -2.5q-7 -53 -7 -142q0 -8 -3.5 -11.5t-12.5 -3.5h-400q-2 0 -2 6t2 6q26 0 38 5t16.5 19.5
t4.5 44.5v306q0 30 -4.5 44t-16.5 19.5t-38 5.5q-2 0 -2 6t2 6l49 -1q42 -2 65 -2q26 0 68 2l46 1q3 0 3 -6t-3 -6q-30 0 -44.5 -5.5t-19.5 -20t-5 -44.5v-301z" />
    <glyph glyph-name="Ldot" unicode="&#x13f;" horiz-adv-x="545" 
d="M213 85q0 -26 4 -37.5t15.5 -15.5t37.5 -4h34q78 0 135 41.5t76 112.5q0 2 4 2q2 0 4.5 -1.5t2.5 -2.5q-9 -99 -9 -165q0 -8 -3.5 -11.5t-11.5 -3.5h-472q-2 0 -2 6t2 6q32 0 46.5 5t20 19.5t5.5 44.5v463q0 30 -5.5 44t-20.5 19.5t-46 5.5q-2 0 -2 6t2 6l51 -1
q46 -2 76 -2t76 2l51 1q3 0 3 -6t-3 -6q-31 0 -46 -5.5t-20 -20t-5 -44.5v-458zM383.5 272.5q-16.5 16.5 -16.5 44.5q0 26 16.5 42t44.5 16t43.5 -15.5t15.5 -42.5q0 -29 -15.5 -45t-43.5 -16t-44.5 16.5z" />
    <glyph glyph-name="ldot" unicode="&#x140;" horiz-adv-x="468" 
d="M189 85q0 -27 5 -40t19.5 -18.5t43.5 -5.5h11q56 0 102 28t69 76q0 2 3 2t5.5 -2t2.5 -3q-4 -56 -4 -107q0 -8 -3.5 -11.5t-12.5 -3.5h-400q-2 0 -2 6t2 6q26 0 38 5t16.5 19.5t4.5 44.5v306q0 30 -4.5 44t-16.5 19.5t-38 5.5q-2 0 -2 6t2 6l49 -1q42 -2 65 -2q26 0 68 2
l46 1q3 0 3 -6t-3 -6q-30 0 -44.5 -5.5t-20 -20t-5.5 -44.5zM290.5 176.5q-16.5 16.5 -16.5 44.5q0 26 16.5 42t44.5 16t43.5 -15.5t15.5 -42.5q0 -29 -15.5 -45t-43.5 -16t-44.5 16.5z" />
    <glyph glyph-name="Lslash" unicode="&#x141;" horiz-adv-x="545" 
d="M519 184q2 0 4.5 -1.5t2.5 -2.5q-9 -99 -9 -165q0 -8 -3.5 -11.5t-11.5 -3.5h-472q-2 0 -2 6t2 6q32 0 46.5 5t20 19.5t5.5 44.5v165l-53 -31q-4 -2 -11 10.5t-3 14.5l67 39v265q0 30 -5.5 44t-20.5 19.5t-46 5.5q-2 0 -2 6t2 6l51 -1q46 -2 76 -2t76 2l51 1q3 0 3 -6
t-3 -6q-31 0 -46 -5.5t-20 -20t-5 -44.5v-200l112 64q3 2 10 -10.5t3 -14.5l-125 -72v-225q0 -26 4 -37.5t15.5 -15.5t37.5 -4h34q78 0 135 41.5t76 112.5q0 2 4 2z" />
    <glyph glyph-name="lslash" unicode="&#x142;" horiz-adv-x="468" 
d="M447.5 159.5q5.5 -0.5 5.5 -2.5q-7 -53 -7 -142q0 -8 -3.5 -11.5t-12.5 -3.5h-400q-2 0 -2 6t2 6q26 0 38 5t16.5 19.5t4.5 44.5v81l-40 -23q-4 -2 -11 10.5t-3 14.5l54 31v192q0 30 -4.5 44t-16.5 19.5t-38 5.5q-2 0 -2 6t2 6l49 -1q42 -2 65 -2q26 0 68 2l46 1
q3 0 3 -6t-3 -6q-30 0 -44.5 -5.5t-19.5 -20t-5 -44.5v-133l103 59h1q4 0 10 -11.5t2 -12.5l-116 -68v-135q0 -27 5 -40t19.5 -18.5t43.5 -5.5h11q57 0 104 37t69 100q1 2 6.5 1.5z" />
    <glyph glyph-name="Nacute" unicode="&#x143;" horiz-adv-x="735" 
d="M283 678q-4 0 -5 4.5t2 6.5q29 21 81 66q30 26 45 38q5 5 35.5 -3.5t54 -20t11.5 -13.5q-62 -15 -113.5 -33.5t-108.5 -43.5zM725 619q0 -6 -2 -6q-40 0 -63 -31.5t-23 -84.5v-512q0 -3 -4.5 -4t-6.5 1l-469 534v-389q0 -53 22 -84t61 -31q2 0 2 -6t-2 -6q-28 0 -43 1
l-54 1l-62 -1q-17 -1 -49 -1q-3 0 -3 6t3 6q44 0 69.5 31t25.5 84v423q-33 36 -56.5 49.5t-48.5 13.5q-2 0 -2 6t2 6l42 -1q13 -1 38 -1l76 1q14 1 34 1q8 0 12 -4t14 -17q17 -23 24 -31l346 -399v323q0 54 -22 85t-61 31q-2 0 -2 6t2 6l43 -1q32 -2 54 -2q20 0 56 2l45 1
q2 0 2 -6z" />
    <glyph glyph-name="nacute" unicode="&#x144;" horiz-adv-x="593" 
d="M218 521q-4 0 -5 4.5t2 6.5q29 21 81 66q30 26 45 38q5 5 35.5 -3.5t54 -20t11.5 -13.5q-62 -15 -113.5 -33.5t-108.5 -43.5zM566 6q0 -6 -2 -6q-25 0 -39 1l-52 1l-60 -1q-15 -1 -40 -1q-2 0 -2 6t2 6q23 0 34 6t15 20.5t4 44.5v199q0 94 -27.5 129.5t-75.5 35.5
q-40 0 -74.5 -20t-64.5 -65v-279q0 -30 3.5 -44.5t14 -20.5t32.5 -6q2 0 2 -6t-2 -6q-29 0 -46 1l-58 1l-55 -1q-16 -1 -45 -1q-2 0 -2 6t2 6q23 0 34.5 5t15.5 19.5t4 44.5v306q0 30 -4 44t-14.5 19.5t-32.5 5.5q-3 0 -3 6t3 6l65 -1l67 1q12 0 15.5 -3.5t3.5 -15.5v-55
q38 44 82 65t97 21q70 0 116 -39.5t46 -135.5v-224q0 -30 3 -44.5t11 -19.5t25 -5q2 0 2 -6z" />
    <glyph glyph-name="Ncommaaccent" unicode="&#x145;" horiz-adv-x="735" 
d="M725 619q0 -6 -2 -6q-40 0 -63 -31.5t-23 -84.5v-512q0 -3 -4.5 -4t-6.5 1l-469 534v-389q0 -53 22 -84t61 -31q2 0 2 -6t-2 -6q-28 0 -43 1l-54 1l-62 -1q-17 -1 -49 -1q-3 0 -3 6t3 6q44 0 69.5 31t25.5 84v423q-33 36 -56.5 49.5t-48.5 13.5q-2 0 -2 6t2 6l42 -1
q13 -1 38 -1l76 1q14 1 34 1q8 0 12 -4t14 -17q17 -23 24 -31l346 -399v323q0 54 -22 85t-61 31q-2 0 -2 6t2 6l43 -1q32 -2 54 -2q20 0 56 2l45 1q2 0 2 -6zM421 -91q18 -22 18 -59q0 -39 -20 -69t-56 -56l-2 -1q-4 0 -6 4.5t1 6.5q22 16 35 32.5t13 34.5q0 23 -10 33
q-10 -19 -41 -19q-21 0 -35 16t-14 41q0 27 19 42.5t46 15.5q34 0 52 -22z" />
    <glyph glyph-name="ncommaaccent" unicode="&#x146;" horiz-adv-x="593" 
d="M566 6q0 -6 -2 -6q-25 0 -39 1l-52 1l-60 -1q-15 -1 -40 -1q-2 0 -2 6t2 6q23 0 34 6t15 20.5t4 44.5v199q0 94 -27.5 129.5t-75.5 35.5q-40 0 -74.5 -20t-64.5 -65v-279q0 -30 3.5 -44.5t14 -20.5t32.5 -6q2 0 2 -6t-2 -6q-29 0 -46 1l-58 1l-55 -1q-16 -1 -45 -1
q-2 0 -2 6t2 6q23 0 34.5 5t15.5 19.5t4 44.5v306q0 30 -4 44t-14.5 19.5t-32.5 5.5q-3 0 -3 6t3 6l65 -1l67 1q12 0 15.5 -3.5t3.5 -15.5v-55q38 44 82 65t97 21q70 0 116 -39.5t46 -135.5v-224q0 -30 3 -44.5t11 -19.5t25 -5q2 0 2 -6zM358 -91q18 -22 18 -59
q0 -39 -20 -69t-56 -56l-2 -1q-4 0 -6 4.5t1 6.5q22 16 35 32.5t13 34.5q0 23 -10 33q-10 -19 -41 -19q-21 0 -35 16t-14 41q0 27 19 42.5t46 15.5q34 0 52 -22z" />
    <glyph glyph-name="Ncaron" unicode="&#x147;" horiz-adv-x="735" 
d="M267 802v2q0 2 2.5 4t3.5 1l109 -38l108 40h1q3 0 4.5 -2.5t-0.5 -4.5l-102 -117q-4 -4 -11 -4q-8 0 -12 4zM725 619q0 -6 -2 -6q-40 0 -63 -31.5t-23 -84.5v-512q0 -3 -4.5 -4t-6.5 1l-469 534v-389q0 -53 22 -84t61 -31q2 0 2 -6t-2 -6q-28 0 -43 1l-54 1l-62 -1
q-17 -1 -49 -1q-3 0 -3 6t3 6q44 0 69.5 31t25.5 84v423q-33 36 -56.5 49.5t-48.5 13.5q-2 0 -2 6t2 6l42 -1q13 -1 38 -1l76 1q14 1 34 1q8 0 12 -4t14 -17q17 -23 24 -31l346 -399v323q0 54 -22 85t-61 31q-2 0 -2 6t2 6l43 -1q32 -2 54 -2q20 0 56 2l45 1q2 0 2 -6z" />
    <glyph glyph-name="ncaron" unicode="&#x148;" horiz-adv-x="593" 
d="M195 646.5v0.5q0 2 2.5 4.5t4.5 1.5l109 -39l108 40h1q3 0 4.5 -2.5t-0.5 -4.5l-102 -117q-4 -4 -11 -4q-8 0 -12 4l-103 116q-1 0 -1 0.5zM566 6q0 -6 -2 -6q-25 0 -39 1l-52 1l-60 -1q-15 -1 -40 -1q-2 0 -2 6t2 6q23 0 34 6t15 20.5t4 44.5v199q0 94 -27.5 129.5
t-75.5 35.5q-40 0 -74.5 -20t-64.5 -65v-279q0 -30 3.5 -44.5t14 -20.5t32.5 -6q2 0 2 -6t-2 -6q-29 0 -46 1l-58 1l-55 -1q-16 -1 -45 -1q-2 0 -2 6t2 6q23 0 34.5 5t15.5 19.5t4 44.5v306q0 30 -4 44t-14.5 19.5t-32.5 5.5q-3 0 -3 6t3 6l65 -1l67 1q12 0 15.5 -3.5
t3.5 -15.5v-55q38 44 82 65t97 21q70 0 116 -39.5t46 -135.5v-224q0 -30 3 -44.5t11 -19.5t25 -5q2 0 2 -6z" />
    <glyph glyph-name="napostrophe" unicode="&#x149;" horiz-adv-x="602" 
d="M64.5 677.5q-14.5 15.5 -14.5 40.5q0 27 17.5 42.5t47.5 15.5q35 0 54.5 -27t19.5 -77q0 -45 -20 -83.5t-60 -77.5q-1 -1 -3 -1q-3 0 -5 3t0 5q49 50 49 118q0 28 -10 41q-9 -15 -37 -15q-24 0 -38.5 15.5zM566 6q0 -6 -2 -6q-25 0 -39 1l-52 1l-60 -1q-15 -1 -40 -1
q-2 0 -2 6t2 6q23 0 34 6t15 20.5t4 44.5v199q0 94 -27.5 129.5t-75.5 35.5q-40 0 -74.5 -20t-64.5 -65v-279q0 -30 3.5 -44.5t14 -20.5t32.5 -6q2 0 2 -6t-2 -6q-29 0 -46 1l-58 1l-55 -1q-16 -1 -45 -1q-2 0 -2 6t2 6q23 0 34.5 5t15.5 19.5t4 44.5v306q0 30 -4 44
t-14.5 19.5t-32.5 5.5q-3 0 -3 6t3 6l65 -1l67 1q12 0 15.5 -3.5t3.5 -15.5v-55q38 44 82 65t97 21q70 0 116 -39.5t46 -135.5v-224q0 -30 3 -44.5t11 -19.5t25 -5q2 0 2 -6z" />
    <glyph glyph-name="Eng" unicode="&#x14a;" horiz-adv-x="735" 
d="M725 619q0 -6 -2 -6q-40 0 -63 -31.5t-23 -84.5v-512q0 -81 -36 -128.5t-97 -47.5q-47 0 -76 18t-29 47q0 22 14.5 37.5t37.5 15.5q29 0 38.5 -14t12.5 -39q2 -19 7 -28.5t21 -9.5q36 0 57 40.5t21 107.5v18l-451 514v-389q0 -53 22 -84t61 -31q2 0 2 -6t-2 -6
q-28 0 -43 1l-54 1l-62 -1q-17 -1 -49 -1q-3 0 -3 6t3 6q44 0 69.5 31t25.5 84v423q-33 36 -56.5 49.5t-48.5 13.5q-2 0 -2 6t2 6l42 -1q13 -1 38 -1l76 1q14 1 34 1q8 0 12 -4t14 -17q17 -23 24 -31l346 -399v323q0 54 -22 85t-61 31q-2 0 -2 6t2 6l43 -1q32 -2 54 -2
q20 0 56 2l45 1q2 0 2 -6z" />
    <glyph glyph-name="eng" unicode="&#x14b;" horiz-adv-x="585" 
d="M479 440.5q46 -39.5 46 -135.5v-236q0 -75 -15.5 -121.5t-51.5 -76.5t-102 -52q-3 -1 -5.5 4t0.5 6q34 23 54.5 73.5t20.5 119.5v261q0 94 -27.5 129t-75.5 35q-40 0 -74.5 -20t-64.5 -65v-279q0 -30 3.5 -44.5t14 -20.5t32.5 -6q2 0 2 -6t-2 -6q-29 0 -46 1l-58 1
l-55 -1q-16 -1 -45 -1q-2 0 -2 6t2 6q23 0 34.5 5t15.5 19.5t4 44.5v306q0 30 -4 44t-14.5 19.5t-32.5 5.5q-3 0 -3 6t3 6l65 -1l67 1q12 0 15.5 -3.5t3.5 -15.5v-55q38 44 82 65t97 21q70 0 116 -39.5z" />
    <glyph glyph-name="Omacron" unicode="&#x14c;" horiz-adv-x="766" 
d="M255 718.5q-3 5.5 -3 13.5q0 7 3 12.5t7 5.5h251q5 0 8 -5.5t3 -12.5q0 -8 -3 -13.5t-8 -5.5h-251q-4 0 -7 5.5zM200.5 31.5q-72.5 43.5 -112 118t-39.5 162.5q0 103 52 176.5t133.5 110.5t166.5 37q95 0 167 -44.5t110.5 -117.5t38.5 -155q0 -91 -48 -167t-128.5 -120
t-174.5 -44q-93 0 -165.5 43.5zM499.5 45.5q44.5 32.5 69.5 95t25 149.5q0 92 -28 164.5t-81 113.5t-124 41q-91 0 -140 -68.5t-49 -191.5q0 -97 29.5 -173.5t81 -119.5t116.5 -43q56 0 100.5 32.5z" />
    <glyph glyph-name="omacron" unicode="&#x14d;" horiz-adv-x="567" 
d="M151 558.5q-3 5.5 -3 13.5q0 7 3 12.5t7 5.5h251q5 0 8 -5.5t3 -12.5q0 -8 -3 -13.5t-8 -5.5h-251q-4 0 -7 5.5zM148 21.5q-56 33.5 -87 90t-31 122.5q0 76 39.5 132t101 85t126.5 29q71 0 125.5 -34.5t84.5 -90t30 -116.5q0 -67 -35 -124.5t-95 -92t-132 -34.5
q-71 0 -127 33.5zM388.5 66q34.5 55 34.5 152q0 66 -20 120t-56.5 85.5t-84.5 31.5q-58 0 -88 -48t-30 -142q0 -71 20.5 -129.5t55.5 -91.5t78 -33q56 0 90.5 55z" />
    <glyph glyph-name="Obreve" unicode="&#x14e;" horiz-adv-x="766" 
d="M311.5 722.5q-26.5 32.5 -26.5 94.5q0 3 5.5 3t5.5 -2q0 -18 27 -34t65 -16q37 0 64 16t27 34q0 2 5.5 2t5.5 -3q0 -62 -26 -94.5t-76 -32.5t-76.5 32.5zM200.5 31.5q-72.5 43.5 -112 118t-39.5 162.5q0 103 52 176.5t133.5 110.5t166.5 37q95 0 167 -44.5t110.5 -117.5
t38.5 -155q0 -91 -48 -167t-128.5 -120t-174.5 -44q-93 0 -165.5 43.5zM499.5 45.5q44.5 32.5 69.5 95t25 149.5q0 92 -28 164.5t-81 113.5t-124 41q-91 0 -140 -68.5t-49 -191.5q0 -97 29.5 -173.5t81 -119.5t116.5 -43q56 0 100.5 32.5z" />
    <glyph glyph-name="obreve" unicode="&#x14f;" horiz-adv-x="567" 
d="M186.5 660q5.5 0 5.5 -2q0 -18 27 -34t65 -16q37 0 64 16t27 34q0 2 5.5 2t5.5 -3q0 -62 -26 -94.5t-76 -32.5t-76.5 32.5t-26.5 94.5q0 3 5.5 3zM148 21.5q-56 33.5 -87 90t-31 122.5q0 76 39.5 132t101 85t126.5 29q71 0 125.5 -34.5t84.5 -90t30 -116.5
q0 -67 -35 -124.5t-95 -92t-132 -34.5q-71 0 -127 33.5zM388.5 66q34.5 55 34.5 152q0 66 -20 120t-56.5 85.5t-84.5 31.5q-58 0 -88 -48t-30 -142q0 -71 20.5 -129.5t55.5 -91.5t78 -33q56 0 90.5 55z" />
    <glyph glyph-name="Ohungarumlaut" unicode="&#x150;" horiz-adv-x="766" 
d="M274 667q-4 0 -5.5 4t0.5 7q54 67 90 127q2 3 8 3q12 0 36 -8.5t39 -18t7 -13.5q-91 -41 -172 -100zM426 667q-3 0 -5 4t0 7q37 43 90 127q2 3 8 3q12 0 36 -8.5t39 -18t7 -13.5q-91 -41 -172 -100zM200.5 31.5q-72.5 43.5 -112 118t-39.5 162.5q0 103 52 176.5
t133.5 110.5t166.5 37q95 0 167 -44.5t110.5 -117.5t38.5 -155q0 -91 -48 -167t-128.5 -120t-174.5 -44q-93 0 -165.5 43.5zM499.5 45.5q44.5 32.5 69.5 95t25 149.5q0 92 -28 164.5t-81 113.5t-124 41q-91 0 -140 -68.5t-49 -191.5q0 -97 29.5 -173.5t81 -119.5t116.5 -43
q56 0 100.5 32.5z" />
    <glyph glyph-name="ohungarumlaut" unicode="&#x151;" horiz-adv-x="567" 
d="M174 531q-4 0 -5.5 3.5t0.5 6.5q41 50 78 113q2 3 9 3q12 0 34 -7t35.5 -15t5.5 -12q-35 -15 -63 -31.5t-65 -42.5q-3 -2 -26 -17q-1 -1 -3 -1zM314 531q-4 0 -5.5 3.5t0.5 6.5q41 50 78 113q2 3 9 3q12 0 34 -7t35.5 -15t5.5 -12q-35 -15 -63 -31.5t-65 -42.5
q-3 -2 -26 -17q-1 -1 -3 -1zM148 21.5q-56 33.5 -87 90t-31 122.5q0 76 39.5 132t101 85t126.5 29q71 0 125.5 -34.5t84.5 -90t30 -116.5q0 -67 -35 -124.5t-95 -92t-132 -34.5q-71 0 -127 33.5zM388.5 66q34.5 55 34.5 152q0 66 -20 120t-56.5 85.5t-84.5 31.5
q-58 0 -88 -48t-30 -142q0 -71 20.5 -129.5t55.5 -91.5t78 -33q56 0 90.5 55z" />
    <glyph glyph-name="OE" unicode="&#x152;" horiz-adv-x="932" 
d="M880 161q3 0 5.5 -1.5t2.5 -2.5q-10 -78 -10 -142q0 -8 -3 -11.5t-12 -3.5h-319q-20 0 -64 -2q-42 -2 -64 -2q-108 0 -191.5 40t-129.5 109.5t-46 155.5q0 97 48 171t128.5 114.5t176.5 40.5q50 0 75 -1l77 -1h292q9 0 9 -9l2 -133q0 -2 -5 -3t-6 2q-6 24 -27.5 51
t-52 46t-63.5 19h-42q-30 0 -43.5 -13.5t-13.5 -41.5v-204h83q58 0 88.5 20t30.5 56q0 3 6 3t6 -3l-1 -56q-1 -12 -1 -34l1 -48q2 -34 2 -54q0 -2 -6 -2t-6 2q0 41 -31.5 64.5t-90.5 23.5h-81v-226q0 -57 45 -57h45q37 0 75.5 18t67 48.5t39.5 64.5q0 2 4 2zM492 544
q0 27 -5.5 39.5t-22 17.5t-51.5 5q-71 0 -125.5 -33t-85 -97t-30.5 -153q0 -86 29 -155.5t82.5 -109.5t123.5 -40q38 0 55.5 5t23.5 17.5t6 40.5v463z" />
    <glyph glyph-name="oe" unicode="&#x153;" horiz-adv-x="792" 
d="M489 242q0 -103 41.5 -158t116.5 -55q34 0 60.5 7t50.5 22l2 1q2 0 4.5 -4t0.5 -6q-37 -33 -74.5 -47t-83.5 -14q-49 0 -94.5 26.5t-76.5 71.5q-35 -45 -86.5 -71.5t-110.5 -26.5q-64 0 -112.5 33t-75 88.5t-26.5 120.5q0 78 37 135t94.5 86t116.5 29q56 0 100.5 -25
t72.5 -67q31 42 79 65.5t101 23.5q68 0 107.5 -38.5t39.5 -102.5q0 -13 -2.5 -18t-9.5 -5l-267 -1q-5 -35 -5 -70zM534 424q-26 -33 -37 -92l167 4q0 121 -68 121q-36 0 -62 -33zM354.5 66q32.5 53 32.5 145q0 64 -18 119t-51.5 88t-77.5 33q-54 0 -81 -47t-27 -134
q0 -69 17 -128t48.5 -94t72.5 -35q52 0 84.5 53z" />
    <glyph glyph-name="Racute" unicode="&#x154;" horiz-adv-x="698" 
d="M158 678q-4 0 -5 4.5t2 6.5q29 21 81 66q30 26 45 38q5 5 35.5 -3.5t54 -20t11.5 -13.5q-62 -15 -113.5 -33.5t-108.5 -43.5zM710 6q0 -6 -2 -6h-178q-22 0 -82 82.5t-145 230.5q-8 -1 -23 -1q-39 0 -55 1v-232q0 -31 5 -45t19.5 -19t46.5 -5q2 0 2 -6t-2 -6q-33 0 -52 1
l-76 1l-73 -1q-20 -1 -54 -1q-3 0 -3 6t3 6q32 0 46.5 5t20 19.5t5.5 44.5v463q0 30 -5 44t-20 19.5t-46 5.5q-2 0 -2 6t2 6l53 -1q46 -2 73 -2q29 0 64 3q11 1 28.5 2t41.5 1q92 0 142.5 -33.5t50.5 -93.5q0 -46 -28 -88t-73 -68q80 -126 134.5 -197t97 -103.5t82.5 -32.5
q2 0 2 -6zM283 338q36 0 57 11t30.5 38t9.5 76q0 82 -24 113t-69 31q-34 0 -48 -15t-14 -50v-200q24 -4 58 -4z" />
    <glyph glyph-name="racute" unicode="&#x155;" horiz-adv-x="547" 
d="M141 521q-4 0 -5 4.5t2 6.5q29 21 81 66q30 26 45 38q5 5 35.5 -3.5t54 -20t11.5 -13.5q-62 -15 -113.5 -33.5t-108.5 -43.5zM569 6q0 -6 -3 -6h-164q-15 0 -53.5 60t-91.5 165q-21 -3 -42 -3h-17v-141q0 -31 4.5 -45t17 -19t40.5 -5q2 0 2 -6t-2 -6q-30 0 -47 1l-68 1
l-65 -1q-18 -1 -50 -1q-2 0 -2 6t2 6q28 0 41 5t18 19.5t5 44.5v306q0 30 -4.5 44t-17.5 19.5t-40 5.5q-3 0 -3 6t3 6l49 -1q40 -2 64 -2q19 0 35 1t28 2q33 3 62 3q78 0 119 -25t41 -72q0 -39 -25 -72t-69 -54q54 -91 93 -142t71 -72.5t66 -21.5q3 0 3 -6zM222 241
q57 0 79 26.5t22 79.5q0 104 -76 104q-21 0 -31 -5t-14 -18.5t-4 -42.5v-143q7 -1 24 -1z" />
    <glyph glyph-name="Rcommaaccent" unicode="&#x156;" horiz-adv-x="698" 
d="M710 6q0 -6 -2 -6h-178q-22 0 -82 82.5t-145 230.5q-8 -1 -23 -1q-39 0 -55 1v-232q0 -31 5 -45t19.5 -19t46.5 -5q2 0 2 -6t-2 -6q-33 0 -52 1l-76 1l-73 -1q-20 -1 -54 -1q-3 0 -3 6t3 6q32 0 46.5 5t20 19.5t5.5 44.5v463q0 30 -5 44t-20 19.5t-46 5.5q-2 0 -2 6t2 6
l53 -1q46 -2 73 -2q29 0 64 3q11 1 28.5 2t41.5 1q92 0 142.5 -33.5t50.5 -93.5q0 -46 -28 -88t-73 -68q80 -126 134.5 -197t97 -103.5t82.5 -32.5q2 0 2 -6zM283 338q36 0 57 11t30.5 38t9.5 76q0 82 -24 113t-69 31q-34 0 -48 -15t-14 -50v-200q24 -4 58 -4zM392 -91
q18 -22 18 -59q0 -39 -20 -69t-56 -56l-2 -1q-4 0 -6 4.5t1 6.5q22 16 35 32.5t13 34.5q0 23 -10 33q-10 -19 -41 -19q-21 0 -35 16t-14 41q0 27 19 42.5t46 15.5q34 0 52 -22z" />
    <glyph glyph-name="rcommaaccent" unicode="&#x157;" horiz-adv-x="547" 
d="M569 6q0 -6 -3 -6h-164q-15 0 -53.5 60t-91.5 165q-21 -3 -42 -3h-17v-141q0 -31 4.5 -45t17 -19t40.5 -5q2 0 2 -6t-2 -6q-30 0 -47 1l-68 1l-65 -1q-18 -1 -50 -1q-2 0 -2 6t2 6q28 0 41 5t18 19.5t5 44.5v306q0 30 -4.5 44t-17.5 19.5t-40 5.5q-3 0 -3 6t3 6l49 -1
q40 -2 64 -2q19 0 35 1t28 2q33 3 62 3q78 0 119 -25t41 -72q0 -39 -25 -72t-69 -54q54 -91 93 -142t71 -72.5t66 -21.5q3 0 3 -6zM222 241q57 0 79 26.5t22 79.5q0 104 -76 104q-21 0 -31 -5t-14 -18.5t-4 -42.5v-143q7 -1 24 -1zM336 -91q18 -22 18 -59q0 -39 -20 -69
t-56 -56l-2 -1q-4 0 -6 4.5t1 6.5q22 16 35 32.5t13 34.5q0 23 -10 33q-10 -19 -41 -19q-21 0 -35 16t-14 41q0 27 19 42.5t46 15.5q34 0 52 -22z" />
    <glyph glyph-name="Rcaron" unicode="&#x158;" horiz-adv-x="698" 
d="M142 802v2q0 2 2.5 4t3.5 1l109 -38l108 40h1q3 0 4.5 -2.5t-0.5 -4.5l-102 -117q-4 -4 -11 -4q-8 0 -12 4zM710 6q0 -6 -2 -6h-178q-22 0 -82 82.5t-145 230.5q-8 -1 -23 -1q-39 0 -55 1v-232q0 -31 5 -45t19.5 -19t46.5 -5q2 0 2 -6t-2 -6q-33 0 -52 1l-76 1l-73 -1
q-20 -1 -54 -1q-3 0 -3 6t3 6q32 0 46.5 5t20 19.5t5.5 44.5v463q0 30 -5 44t-20 19.5t-46 5.5q-2 0 -2 6t2 6l53 -1q46 -2 73 -2q29 0 64 3q11 1 28.5 2t41.5 1q92 0 142.5 -33.5t50.5 -93.5q0 -46 -28 -88t-73 -68q80 -126 134.5 -197t97 -103.5t82.5 -32.5q2 0 2 -6z
M283 338q36 0 57 11t30.5 38t9.5 76q0 82 -24 113t-69 31q-34 0 -48 -15t-14 -50v-200q24 -4 58 -4z" />
    <glyph glyph-name="rcaron" unicode="&#x159;" horiz-adv-x="547" 
d="M118 646.5v0.5q0 2 2.5 4.5t4.5 1.5l109 -39l108 40h1q3 0 4.5 -2.5t-0.5 -4.5l-102 -117q-4 -4 -11 -4q-8 0 -12 4l-103 116q-1 0 -1 0.5zM569 6q0 -6 -3 -6h-164q-15 0 -53.5 60t-91.5 165q-21 -3 -42 -3h-17v-141q0 -31 4.5 -45t17 -19t40.5 -5q2 0 2 -6t-2 -6
q-30 0 -47 1l-68 1l-65 -1q-18 -1 -50 -1q-2 0 -2 6t2 6q28 0 41 5t18 19.5t5 44.5v306q0 30 -4.5 44t-17.5 19.5t-40 5.5q-3 0 -3 6t3 6l49 -1q40 -2 64 -2q19 0 35 1t28 2q33 3 62 3q78 0 119 -25t41 -72q0 -39 -25 -72t-69 -54q54 -91 93 -142t71 -72.5t66 -21.5
q3 0 3 -6zM222 241q57 0 79 26.5t22 79.5q0 104 -76 104q-21 0 -31 -5t-14 -18.5t-4 -42.5v-143q7 -1 24 -1z" />
    <glyph glyph-name="Sacute" unicode="&#x15a;" horiz-adv-x="515" 
d="M172 678q-4 0 -5 4.5t2 6.5q29 21 81 66q30 26 45 38q5 5 35.5 -3.5t54 -20t11.5 -13.5q-62 -15 -113.5 -33.5t-108.5 -43.5zM192.5 460q18.5 -28 45.5 -49t73 -51q50 -32 80 -56t51 -58.5t21 -79.5q0 -52 -28 -92.5t-77.5 -63t-110.5 -22.5q-45 0 -94 12.5t-66 27.5
q-5 4 -7.5 7.5t-2.5 11.5l-3 159v1q0 4 5 4.5t6 -3.5q30 -61 52.5 -99t57 -67t78.5 -29q40 0 66 21.5t26 73.5q0 44 -19.5 77t-47.5 56t-77 55q-48 31 -74.5 53t-45.5 53t-19 73q0 53 30.5 89.5t78.5 54t101 17.5q35 0 71 -6.5t58 -15.5q9 -4 12 -8.5t3 -11.5v-147
q0 -3 -5 -4.5t-6 1.5l-8 19q-25 63 -58.5 107t-93.5 44q-40 0 -65.5 -23t-25.5 -67q0 -36 18.5 -64z" />
    <glyph glyph-name="sacute" unicode="&#x15b;" horiz-adv-x="422" 
d="M130 521q-4 0 -5 4.5t2 6.5q29 21 81 66q30 26 45 38q5 5 35.5 -3.5t54 -20t11.5 -13.5q-62 -15 -113.5 -33.5t-108.5 -43.5zM158.5 345.5q15.5 -20.5 38 -35t61.5 -34.5q45 -24 70.5 -40.5t44 -42.5t18.5 -62q0 -40 -23.5 -72.5t-64.5 -51.5t-92 -19q-46 0 -89.5 11.5
t-60.5 25.5q-8 5 -8 21l-5 113q0 4 5 5t7 -3q38 -66 77 -108t89 -42q30 0 50 18t20 54q0 32 -16.5 56t-40.5 40.5t-64 38.5q-59 32 -90 60.5t-31 74.5q0 58 51 92.5t123 34.5q32 0 67 -7t56 -16q9 -3 12 -7.5t3 -12.5v-95q0 -3 -5 -4.5t-7 1.5q-19 40 -53 79t-90 39
q-34 0 -51 -17.5t-17 -45.5t15.5 -48.5z" />
    <glyph glyph-name="Scircumflex" unicode="&#x15c;" horiz-adv-x="515" 
d="M260 818q5 5 12 5q6 0 11 -5l102 -116q1 0 1 -2t-2.5 -4t-3.5 -1l-108 39l-109 -39q-2 -1 -5 2.5t-1 4.5zM192.5 460q18.5 -28 45.5 -49t73 -51q50 -32 80 -56t51 -58.5t21 -79.5q0 -52 -28 -92.5t-77.5 -63t-110.5 -22.5q-45 0 -94 12.5t-66 27.5q-5 4 -7.5 7.5
t-2.5 11.5l-3 159v1q0 4 5 4.5t6 -3.5q30 -61 52.5 -99t57 -67t78.5 -29q40 0 66 21.5t26 73.5q0 44 -19.5 77t-47.5 56t-77 55q-48 31 -74.5 53t-45.5 53t-19 73q0 53 30.5 89.5t78.5 54t101 17.5q35 0 71 -6.5t58 -15.5q9 -4 12 -8.5t3 -11.5v-147q0 -3 -5 -4.5t-6 1.5
l-8 19q-25 63 -58.5 107t-93.5 44q-40 0 -65.5 -23t-25.5 -67q0 -36 18.5 -64z" />
    <glyph glyph-name="scircumflex" unicode="&#x15d;" horiz-adv-x="422" 
d="M212 649q5 5 12 5q6 0 11 -5l102 -116q1 0 1 -2t-2.5 -4t-3.5 -1l-108 39l-109 -39q-2 -1 -5 2.5t-1 4.5zM158.5 345.5q15.5 -20.5 38 -35t61.5 -34.5q45 -24 70.5 -40.5t44 -42.5t18.5 -62q0 -40 -23.5 -72.5t-64.5 -51.5t-92 -19q-46 0 -89.5 11.5t-60.5 25.5
q-8 5 -8 21l-5 113q0 4 5 5t7 -3q38 -66 77 -108t89 -42q30 0 50 18t20 54q0 32 -16.5 56t-40.5 40.5t-64 38.5q-59 32 -90 60.5t-31 74.5q0 58 51 92.5t123 34.5q32 0 67 -7t56 -16q9 -3 12 -7.5t3 -12.5v-95q0 -3 -5 -4.5t-7 1.5q-19 40 -53 79t-90 39q-34 0 -51 -17.5
t-17 -45.5t15.5 -48.5z" />
    <glyph glyph-name="Scedilla" unicode="&#x15e;" horiz-adv-x="515" 
d="M411 45.5q-52 -48.5 -134 -56.5q-2 -16 -2 -21q0 -20 9.5 -34t30.5 -26q26 -16 40.5 -33.5t14.5 -44.5q0 -42 -30.5 -73.5t-91.5 -31.5q-75 0 -75 48q0 15 12 27t28 12q19 0 27 -8.5t13 -24.5q5 -15 11.5 -22.5t23.5 -7.5q22 0 22 24q0 26 -18.5 47t-64.5 47q-9 3 -9 12
q0 7 4 16q16 37 36 93h-11q-45 0 -94 12.5t-66 27.5q-5 4 -7.5 7.5t-2.5 11.5l-3 159v1q0 4 5 4.5t6 -3.5q30 -61 52.5 -99t57 -67t78.5 -29q40 0 66 21.5t26 73.5q0 44 -19.5 77t-47.5 56t-77 55q-48 31 -74.5 53t-45.5 53t-19 73q0 53 30.5 89.5t78.5 54t101 17.5
q35 0 71 -6.5t58 -15.5q9 -4 12 -8.5t3 -11.5v-147q0 -3 -5 -4.5t-6 1.5l-8 19q-25 63 -58.5 107t-93.5 44q-40 0 -65.5 -23t-25.5 -67q0 -36 18.5 -64t45.5 -49t73 -51q50 -32 80 -56t51 -58.5t21 -79.5q0 -72 -52 -120.5z" />
    <glyph glyph-name="scedilla" unicode="&#x15f;" horiz-adv-x="422" 
d="M345 32.5q-46 -40.5 -118 -44.5q-2 -14 -2 -21q0 -19 9.5 -33t30.5 -26q26 -16 40.5 -33.5t14.5 -44.5q0 -42 -30.5 -73.5t-91.5 -31.5q-75 0 -75 48q0 15 12 27t28 12q19 0 27 -8.5t13 -24.5q5 -15 11.5 -22.5t23.5 -7.5q22 0 22 24q0 26 -18.5 47t-64.5 47q-9 3 -9 12
q0 7 4 16q22 54 36 93q-46 1 -88.5 12t-58.5 25q-8 5 -8 21l-5 113q0 4 5 5t7 -3q38 -66 77 -108t89 -42q30 0 50 18t20 54q0 32 -16.5 56t-40.5 40.5t-64 38.5q-59 32 -90 60.5t-31 74.5q0 58 51 92.5t123 34.5q32 0 67 -7t56 -16q9 -3 12 -7.5t3 -12.5v-95q0 -3 -5 -4.5
t-7 1.5q-19 40 -53 79t-90 39q-34 0 -51 -17.5t-17 -45.5t15.5 -48.5t38 -35t61.5 -34.5q45 -24 70.5 -40.5t44 -42.5t18.5 -62q0 -58 -46 -98.5z" />
    <glyph glyph-name="Scaron" unicode="&#x160;" horiz-adv-x="515" 
d="M156 802v2q0 2 2.5 4t3.5 1l109 -38l108 40h1q3 0 4.5 -2.5t-0.5 -4.5l-102 -117q-4 -4 -11 -4q-8 0 -12 4zM192.5 460q18.5 -28 45.5 -49t73 -51q50 -32 80 -56t51 -58.5t21 -79.5q0 -52 -28 -92.5t-77.5 -63t-110.5 -22.5q-45 0 -94 12.5t-66 27.5q-5 4 -7.5 7.5
t-2.5 11.5l-3 159v1q0 4 5 4.5t6 -3.5q30 -61 52.5 -99t57 -67t78.5 -29q40 0 66 21.5t26 73.5q0 44 -19.5 77t-47.5 56t-77 55q-48 31 -74.5 53t-45.5 53t-19 73q0 53 30.5 89.5t78.5 54t101 17.5q35 0 71 -6.5t58 -15.5q9 -4 12 -8.5t3 -11.5v-147q0 -3 -5 -4.5t-6 1.5
l-8 19q-25 63 -58.5 107t-93.5 44q-40 0 -65.5 -23t-25.5 -67q0 -36 18.5 -64z" />
    <glyph glyph-name="scaron" unicode="&#x161;" horiz-adv-x="422" 
d="M108 646q-1 0 -1 0.5v0.5q0 2 2.5 4.5t4.5 1.5l109 -39l108 40h1q3 0 4.5 -2.5t-0.5 -4.5l-102 -117q-4 -4 -11 -4q-8 0 -12 4zM158.5 345.5q15.5 -20.5 38 -35t61.5 -34.5q45 -24 70.5 -40.5t44 -42.5t18.5 -62q0 -40 -23.5 -72.5t-64.5 -51.5t-92 -19q-46 0 -89.5 11.5
t-60.5 25.5q-8 5 -8 21l-5 113q0 4 5 5t7 -3q38 -66 77 -108t89 -42q30 0 50 18t20 54q0 32 -16.5 56t-40.5 40.5t-64 38.5q-59 32 -90 60.5t-31 74.5q0 58 51 92.5t123 34.5q32 0 67 -7t56 -16q9 -3 12 -7.5t3 -12.5v-95q0 -3 -5 -4.5t-7 1.5q-19 40 -53 79t-90 39
q-34 0 -51 -17.5t-17 -45.5t15.5 -48.5z" />
    <glyph glyph-name="uni0162" unicode="&#x162;" horiz-adv-x="643" 
d="M600.5 654q5.5 0 5.5 -4q-3 -30 -6.5 -96t-3.5 -106q0 -3 -5 -3t-6 3q-15 77 -56 115.5t-101 38.5q-29 0 -38.5 -12.5t-9.5 -47.5v-461q0 -31 6 -45t23 -19t54 -5q3 0 3 -6t-3 -6q-34 0 -54 1l-76 1q-6 -24 -6 -40q0 -19 8.5 -30.5t28.5 -23.5q26 -16 40.5 -33.5
t14.5 -44.5q0 -42 -30.5 -73.5t-91.5 -31.5q-75 0 -75 48q0 15 12 27t28 12q19 0 27 -8.5t13 -24.5q5 -15 11.5 -22.5t23.5 -7.5q22 0 22 24q0 26 -18.5 47t-64.5 47q-9 3 -9 12q0 7 4 16q25 57 42 107l-74 -1q-20 -1 -55 -1q-3 0 -3 6t3 6q36 0 53.5 5t24 19.5t6.5 44.5
v463q0 34 -9 46t-37 12q-119 0 -171 -155q-1 -3 -6 -2.5t-5 3.5q4 40 9 103.5t5 95.5q0 5 5.5 5t5.5 -5q0 -22 57 -22q86 -3 201 -3q59 0 125 2l68 1q38 0 55.5 5t22.5 20q1 4 6.5 4z" />
    <glyph glyph-name="uni0163" unicode="&#x163;" horiz-adv-x="380" 
d="M361 58q4 0 5.5 -4t-1.5 -6q-41 -32 -72.5 -45.5t-70.5 -14.5q-2 -14 -2 -21q0 -19 9.5 -33t30.5 -26q26 -16 40.5 -33.5t14.5 -44.5q0 -42 -30.5 -73.5t-91.5 -31.5q-75 0 -75 48q0 15 12 27t28 12q19 0 27 -8.5t13 -24.5q5 -15 11.5 -22.5t23.5 -7.5q22 0 22 24
q0 26 -18.5 47t-64.5 47q-9 3 -9 12q0 7 4 16q18 44 36 94q-54 3 -90 36t-36 101v262q0 27 -11.5 36t-42.5 9q-3 0 -3 9t3 9q51 0 89 22t49 58q2 3 6 3t7 -1.5t3 -3.5v-73q69 1 161 9q3 0 5 -7t2 -17t-3.5 -19.5t-6.5 -8.5q-47 12 -158 16v-280q0 -119 88 -119q54 0 94 27z
" />
    <glyph glyph-name="Tcaron" unicode="&#x164;" horiz-adv-x="643" 
d="M207 802v2q0 2 2.5 4t3.5 1l109 -38l108 40h1q3 0 4.5 -2.5t-0.5 -4.5l-102 -117q-4 -4 -11 -4q-8 0 -12 4zM51 447q-1 -3 -6 -2.5t-5 3.5q4 40 9 103.5t5 95.5q0 5 5.5 5t5.5 -5q0 -22 57 -22q86 -3 201 -3q59 0 125 2l68 1q38 0 55.5 5t22.5 20q1 4 6.5 4t5.5 -4
q-3 -30 -6.5 -96t-3.5 -106q0 -3 -5 -3t-6 3q-15 77 -56 115.5t-101 38.5q-29 0 -38.5 -12.5t-9.5 -47.5v-461q0 -31 6 -45t23 -19t54 -5q3 0 3 -6t-3 -6q-36 0 -57 1l-83 1l-81 -1q-21 -1 -58 -1q-3 0 -3 6t3 6q36 0 53.5 5t24 19.5t6.5 44.5v463q0 34 -9 46t-37 12
q-119 0 -171 -155z" />
    <glyph glyph-name="tcaron" unicode="&#x165;" horiz-adv-x="380" 
d="M198 550.5q-5 0.5 -5 2.5l-8 272q0 5 21 -1.5t40 -17t17 -18.5l-59 -236q-1 -2 -6 -1.5zM361 58q4 0 5.5 -4t-1.5 -6q-41 -33 -73.5 -46.5t-72.5 -13.5q-60 0 -101 32t-41 106v262q0 27 -11.5 36t-42.5 9q-3 0 -3 9t3 9q51 0 89 22t49 58q2 3 6 3t7 -1.5t3 -3.5v-73
q69 1 161 9q3 0 5 -7t2 -17t-3.5 -19.5t-6.5 -8.5q-47 12 -158 16v-280q0 -119 88 -119q54 0 94 27z" />
    <glyph glyph-name="Tbar" unicode="&#x166;" horiz-adv-x="632" 
d="M600.5 654q5.5 0 5.5 -4q-3 -30 -6.5 -96t-3.5 -106q0 -3 -5 -3t-6 3q-15 77 -56 115.5t-101 38.5q-29 0 -38.5 -12.5t-9.5 -47.5v-205h90q2 0 3.5 -4.5t1.5 -9.5t-1.5 -9.5t-3.5 -4.5h-90v-228q0 -31 6 -45t23 -19t54 -5q3 0 3 -6t-3 -6q-36 0 -57 1l-83 1l-81 -1
q-21 -1 -58 -1q-3 0 -3 6t3 6q36 0 53.5 5t24 19.5t6.5 44.5v228h-91q-4 0 -4 14t4 14h91v207q0 34 -9 46t-37 12q-119 0 -171 -155q-1 -3 -6 -2.5t-5 3.5q4 40 9 103.5t5 95.5q0 5 5.5 5t5.5 -5q0 -22 57 -22q86 -3 201 -3q59 0 125 2l68 1q38 0 55.5 5t22.5 20q1 4 6.5 4z
" />
    <glyph glyph-name="tbar" unicode="&#x167;" horiz-adv-x="380" 
d="M361 58q4 0 5.5 -4t-1.5 -6q-41 -33 -73.5 -46.5t-72.5 -13.5q-60 0 -101 32t-41 106v95h-44q-4 0 -6 4t-2 10t2 10t6 4h44v139q0 27 -11.5 36t-42.5 9q-3 0 -3 9t3 9q51 0 89 22t49 58q2 3 6 3t7 -1.5t3 -3.5v-73q69 1 161 9q3 0 5 -7t2 -17t-3.5 -19.5t-6.5 -8.5
q-47 12 -158 16v-180h154q4 0 6.5 -4t2.5 -10t-2.5 -10t-6.5 -4h-154v-72q0 -119 88 -119q54 0 94 27z" />
    <glyph glyph-name="Utilde" unicode="&#x168;" horiz-adv-x="703" 
d="M475.5 778q10.5 6 23.5 21l2 1q2 0 4 -3t1 -5q-27 -48 -43.5 -64t-39.5 -16q-19 0 -56 11q-17 5 -35 9t-34 4q-19 0 -27 -5t-24 -22h-1q-3 0 -5.5 2.5t-0.5 4.5q45 81 87 81q11 0 47 -10q18 -6 38 -10.5t36 -4.5q17 0 27.5 6zM546.5 582q-24.5 31 -68.5 31q-2 0 -2 6t2 6
l48 -1q38 -2 61 -2q19 0 55 2l46 1q2 0 2 -6t-2 -6q-39 0 -61 -31t-22 -85v-278q0 -70 -31 -123t-87.5 -81.5t-130.5 -28.5t-131 28t-89.5 81.5t-32.5 125.5v323q0 30 -5.5 44t-20 19.5t-45.5 5.5q-3 0 -3 6t3 6l53 -1q46 -2 73 -2q30 0 76 2l51 1q3 0 3 -6t-3 -6
q-31 0 -45.5 -6t-20 -20.5t-5.5 -44.5v-286q0 -119 47 -176t133 -57q83 0 130 50.5t47 144.5v279q0 54 -24.5 85z" />
    <glyph glyph-name="utilde" unicode="&#x169;" horiz-adv-x="599" 
d="M172 540q-3 0 -5.5 2.5t-0.5 4.5q49 81 99 81q18 0 53 -11q17 -5 35.5 -9t32.5 -4q16 0 26 5.5t24 21.5h1q3 0 5 -2.5t1 -4.5q-30 -48 -49.5 -64.5t-43.5 -16.5q-15 0 -35 5t-25 6q-41 13 -67 13q-17 0 -25.5 -5t-15.5 -12t-9 -10h-1zM534 450.5q-11 -5.5 -15 -19.5
t-4 -44v-306q0 -30 4 -44.5t14.5 -19.5t32.5 -5q3 0 3 -6t-3 -6l-65 1l-67 -1q-12 0 -15.5 3t-3.5 16v54q-75 -85 -178 -85q-69 0 -116 37t-47 114v248q0 30 -3 44t-11 19.5t-25 5.5q-2 0 -2 6t2 6l39 -1q32 -2 52 -2q24 0 60 2l40 1q2 0 2 -6t-2 -6q-23 0 -34 -6t-15 -20.5
t-4 -44.5v-222q0 -76 28.5 -109t75.5 -33q78 0 138 85v279q0 30 -3.5 44.5t-14 20.5t-32.5 6q-3 0 -3 6t3 6l46 -1q38 -2 58 -2q18 0 54 2l45 1q3 0 3 -6t-3 -6q-23 0 -34 -5.5z" />
    <glyph glyph-name="Umacron" unicode="&#x16a;" horiz-adv-x="703" 
d="M240 718.5q-3 5.5 -3 13.5q0 7 3 12.5t7 5.5h251q5 0 8 -5.5t3 -12.5q0 -8 -3 -13.5t-8 -5.5h-251q-4 0 -7 5.5zM546.5 582q-24.5 31 -68.5 31q-2 0 -2 6t2 6l48 -1q38 -2 61 -2q19 0 55 2l46 1q2 0 2 -6t-2 -6q-39 0 -61 -31t-22 -85v-278q0 -70 -31 -123t-87.5 -81.5
t-130.5 -28.5t-131 28t-89.5 81.5t-32.5 125.5v323q0 30 -5.5 44t-20 19.5t-45.5 5.5q-3 0 -3 6t3 6l53 -1q46 -2 73 -2q30 0 76 2l51 1q3 0 3 -6t-3 -6q-31 0 -45.5 -6t-20 -20.5t-5.5 -44.5v-286q0 -119 47 -176t133 -57q83 0 130 50.5t47 144.5v279q0 54 -24.5 85z" />
    <glyph glyph-name="umacron" unicode="&#x16b;" horiz-adv-x="599" 
d="M166 561.5q-3 5.5 -3 13.5q0 7 3 12.5t7 5.5h251q5 0 8 -5.5t3 -12.5q0 -8 -3 -13.5t-8 -5.5h-251q-4 0 -7 5.5zM534 450.5q-11 -5.5 -15 -19.5t-4 -44v-306q0 -30 4 -44.5t14.5 -19.5t32.5 -5q3 0 3 -6t-3 -6l-65 1l-67 -1q-12 0 -15.5 3t-3.5 16v54q-75 -85 -178 -85
q-69 0 -116 37t-47 114v248q0 30 -3 44t-11 19.5t-25 5.5q-2 0 -2 6t2 6l39 -1q32 -2 52 -2q24 0 60 2l40 1q2 0 2 -6t-2 -6q-23 0 -34 -6t-15 -20.5t-4 -44.5v-222q0 -76 28.5 -109t75.5 -33q78 0 138 85v279q0 30 -3.5 44.5t-14 20.5t-32.5 6q-3 0 -3 6t3 6l46 -1
q38 -2 58 -2q18 0 54 2l45 1q3 0 3 -6t-3 -6q-23 0 -34 -5.5z" />
    <glyph glyph-name="Ubreve" unicode="&#x16c;" horiz-adv-x="703" 
d="M296.5 722.5q-26.5 32.5 -26.5 94.5q0 3 5.5 3t5.5 -2q0 -18 27 -34t65 -16q37 0 64 16t27 34q0 2 5.5 2t5.5 -3q0 -62 -26 -94.5t-76 -32.5t-76.5 32.5zM546.5 582q-24.5 31 -68.5 31q-2 0 -2 6t2 6l48 -1q38 -2 61 -2q19 0 55 2l46 1q2 0 2 -6t-2 -6q-39 0 -61 -31
t-22 -85v-278q0 -70 -31 -123t-87.5 -81.5t-130.5 -28.5t-131 28t-89.5 81.5t-32.5 125.5v323q0 30 -5.5 44t-20 19.5t-45.5 5.5q-3 0 -3 6t3 6l53 -1q46 -2 73 -2q30 0 76 2l51 1q3 0 3 -6t-3 -6q-31 0 -45.5 -6t-20 -20.5t-5.5 -44.5v-286q0 -119 47 -176t133 -57
q83 0 130 50.5t47 144.5v279q0 54 -24.5 85z" />
    <glyph glyph-name="ubreve" unicode="&#x16d;" horiz-adv-x="599" 
d="M222.5 565.5q-26.5 32.5 -26.5 94.5q0 3 5.5 3t5.5 -2q0 -18 27 -34t65 -16q37 0 64 16t27 34q0 2 5.5 2t5.5 -3q0 -62 -26 -94.5t-76 -32.5t-76.5 32.5zM534 450.5q-11 -5.5 -15 -19.5t-4 -44v-306q0 -30 4 -44.5t14.5 -19.5t32.5 -5q3 0 3 -6t-3 -6l-65 1l-67 -1
q-12 0 -15.5 3t-3.5 16v54q-75 -85 -178 -85q-69 0 -116 37t-47 114v248q0 30 -3 44t-11 19.5t-25 5.5q-2 0 -2 6t2 6l39 -1q32 -2 52 -2q24 0 60 2l40 1q2 0 2 -6t-2 -6q-23 0 -34 -6t-15 -20.5t-4 -44.5v-222q0 -76 28.5 -109t75.5 -33q78 0 138 85v279q0 30 -3.5 44.5
t-14 20.5t-32.5 6q-3 0 -3 6t3 6l46 -1q38 -2 58 -2q18 0 54 2l45 1q3 0 3 -6t-3 -6q-23 0 -34 -5.5z" />
    <glyph glyph-name="Uring" unicode="&#x16e;" horiz-adv-x="703" 
d="M287 730.5q-29 23.5 -29 55.5q0 36 36 57t80 21t75 -23.5t31 -56.5q0 -35 -35 -56t-81 -21q-48 0 -77 23.5zM399.5 732q6.5 11 6.5 34q0 34 -15 59t-37 25q-24 0 -24 -44q0 -33 13.5 -59t36.5 -26q13 0 19.5 11zM546.5 582q-24.5 31 -68.5 31q-2 0 -2 6t2 6l48 -1
q38 -2 61 -2q19 0 55 2l46 1q2 0 2 -6t-2 -6q-39 0 -61 -31t-22 -85v-278q0 -70 -31 -123t-87.5 -81.5t-130.5 -28.5t-131 28t-89.5 81.5t-32.5 125.5v323q0 30 -5.5 44t-20 19.5t-45.5 5.5q-3 0 -3 6t3 6l53 -1q46 -2 73 -2q30 0 76 2l51 1q3 0 3 -6t-3 -6q-31 0 -45.5 -6
t-20 -20.5t-5.5 -44.5v-286q0 -119 47 -176t133 -57q83 0 130 50.5t47 144.5v279q0 54 -24.5 85z" />
    <glyph glyph-name="uring" unicode="&#x16f;" horiz-adv-x="599" 
d="M213 573.5q-29 23.5 -29 55.5q0 36 36 57t80 21t75 -23.5t31 -56.5q0 -35 -35 -56t-81 -21q-48 0 -77 23.5zM256 649q0 -33 13.5 -59t36.5 -26q13 0 19.5 11t6.5 34q0 34 -15 59t-37 25q-24 0 -24 -44zM534 450.5q-11 -5.5 -15 -19.5t-4 -44v-306q0 -30 4 -44.5
t14.5 -19.5t32.5 -5q3 0 3 -6t-3 -6l-65 1l-67 -1q-12 0 -15.5 3t-3.5 16v54q-75 -85 -178 -85q-69 0 -116 37t-47 114v248q0 30 -3 44t-11 19.5t-25 5.5q-2 0 -2 6t2 6l39 -1q32 -2 52 -2q24 0 60 2l40 1q2 0 2 -6t-2 -6q-23 0 -34 -6t-15 -20.5t-4 -44.5v-222
q0 -76 28.5 -109t75.5 -33q78 0 138 85v279q0 30 -3.5 44.5t-14 20.5t-32.5 6q-3 0 -3 6t3 6l46 -1q38 -2 58 -2q18 0 54 2l45 1q3 0 3 -6t-3 -6q-23 0 -34 -5.5z" />
    <glyph glyph-name="Uhungarumlaut" unicode="&#x170;" horiz-adv-x="703" 
d="M259 667q-4 0 -5.5 4t0.5 7q54 67 90 127q2 3 8 3q12 0 36 -8.5t39 -18t7 -13.5q-91 -41 -172 -100zM411 667q-3 0 -5 4t0 7q37 43 90 127q2 3 8 3q12 0 36 -8.5t39 -18t7 -13.5q-91 -41 -172 -100zM546.5 582q-24.5 31 -68.5 31q-2 0 -2 6t2 6l48 -1q38 -2 61 -2
q19 0 55 2l46 1q2 0 2 -6t-2 -6q-39 0 -61 -31t-22 -85v-278q0 -70 -31 -123t-87.5 -81.5t-130.5 -28.5t-131 28t-89.5 81.5t-32.5 125.5v323q0 30 -5.5 44t-20 19.5t-45.5 5.5q-3 0 -3 6t3 6l53 -1q46 -2 73 -2q30 0 76 2l51 1q3 0 3 -6t-3 -6q-31 0 -45.5 -6t-20 -20.5
t-5.5 -44.5v-286q0 -119 47 -176t133 -57q83 0 130 50.5t47 144.5v279q0 54 -24.5 85z" />
    <glyph glyph-name="uhungarumlaut" unicode="&#x171;" horiz-adv-x="599" 
d="M189 534q-4 0 -5.5 3.5t0.5 6.5q41 50 78 113q2 3 9 3q12 0 34 -7t35.5 -15t5.5 -12q-35 -15 -63 -32t-65 -42q-3 -2 -26 -17q-1 -1 -3 -1zM329 534q-4 0 -5.5 3.5t0.5 6.5q41 50 78 113q2 3 9 3q12 0 34 -7t35.5 -15t5.5 -12q-35 -15 -63 -32t-65 -42q-3 -2 -26 -17
q-1 -1 -3 -1zM534 450.5q-11 -5.5 -15 -19.5t-4 -44v-306q0 -30 4 -44.5t14.5 -19.5t32.5 -5q3 0 3 -6t-3 -6l-65 1l-67 -1q-12 0 -15.5 3t-3.5 16v54q-75 -85 -178 -85q-69 0 -116 37t-47 114v248q0 30 -3 44t-11 19.5t-25 5.5q-2 0 -2 6t2 6l39 -1q32 -2 52 -2q24 0 60 2
l40 1q2 0 2 -6t-2 -6q-23 0 -34 -6t-15 -20.5t-4 -44.5v-222q0 -76 28.5 -109t75.5 -33q78 0 138 85v279q0 30 -3.5 44.5t-14 20.5t-32.5 6q-3 0 -3 6t3 6l46 -1q38 -2 58 -2q18 0 54 2l45 1q3 0 3 -6t-3 -6q-23 0 -34 -5.5z" />
    <glyph glyph-name="Uogonek" unicode="&#x172;" horiz-adv-x="703" 
d="M690 619q0 -6 -2 -6q-39 0 -61 -31t-22 -85v-278q0 -86 -46 -145t-126 -79q-28 -28 -40.5 -53.5t-12.5 -58.5q0 -52 26 -84t71 -32q11 0 24 3.5t19 7.5h2q3 0 5.5 -3t-0.5 -5q-55 -45 -112 -45q-51 0 -84.5 32t-33.5 78q0 74 104 154q-21 -3 -45 -3q-74 0 -131 28
t-89.5 81.5t-32.5 125.5v323q0 30 -5.5 44t-20 19.5t-45.5 5.5q-3 0 -3 6t3 6l53 -1q46 -2 73 -2q30 0 76 2l51 1q3 0 3 -6t-3 -6q-31 0 -45.5 -6t-20 -20.5t-5.5 -44.5v-286q0 -119 47 -176t133 -57q83 0 130 50.5t47 144.5v279q0 54 -24.5 85t-68.5 31q-2 0 -2 6t2 6
l48 -1q38 -2 61 -2q19 0 55 2l46 1q2 0 2 -6z" />
    <glyph glyph-name="uogonek" unicode="&#x173;" horiz-adv-x="608" 
d="M580 462q0 -6 -2 -6q-23 0 -34.5 -5.5t-15.5 -19.5t-4 -44v-306q0 -30 4 -44t14.5 -19.5t32.5 -5.5q3 0 3 -6t-3 -6l-65 1q-47 0 -70 -9t-31.5 -33.5t-8.5 -74.5q0 -56 24 -86.5t65 -30.5q20 0 36 11h2q3 0 5.5 -3t-0.5 -5q-27 -24 -53 -34.5t-56 -10.5q-53 0 -86 29
t-33 78q0 33 13.5 54.5t41.5 50.5q30 31 45.5 57.5t15.5 67.5v12q-75 -86 -178 -86q-71 0 -119.5 37t-48.5 114v248q0 30 -3 44t-11 19.5t-25 5.5q-2 0 -2 6t2 6l39 -1q32 -2 52 -2q24 0 64 2l40 1q3 0 3 -6t-3 -6q-22 0 -33 -6t-15 -20.5t-4 -44.5v-222q0 -76 28.5 -109
t75.5 -33q78 0 138 85v279q0 30 -3.5 44.5t-14 20.5t-32.5 6q-3 0 -3 6t3 6l42 -1q38 -2 62 -2q22 0 60 2l44 1q2 0 2 -6z" />
    <glyph glyph-name="Wcircumflex" unicode="&#x174;" horiz-adv-x="911" 
d="M358 697.5q-3 3.5 -1 4.5l103 116q5 5 12 5q6 0 11 -5l102 -116q1 0 1 -2t-2.5 -4t-3.5 -1l-108 39l-109 -39q-2 -1 -5 2.5zM919 619q0 -6 -2 -6q-37 0 -69.5 -31.5t-53.5 -86.5l-185 -494q-1 -4 -11 -4t-11 4l-128 271l-101 -271q-1 -4 -11 -4t-11 4l-255 541
q-15 32 -24.5 46t-21 19.5t-30.5 5.5q-3 0 -3 6t3 6q15 0 21 -1q20 -2 52 -2q67 0 113 2q13 1 32 1q3 0 3 -6t-3 -6q-25 0 -35.5 -5t-10.5 -18q0 -17 23 -66l180 -382l63 165l-111 235q-17 36 -32 53.5t-32 17.5q-3 0 -3 6t3 6q10 0 23.5 -1.5t38.5 -1.5q57 0 95 2
q10 1 26 1q3 0 3 -6t-3 -6q-14 0 -20.5 -3.5t-6.5 -12.5q0 -17 27 -73l44 -93l25 67q22 57 22 86t-25 29q-3 0 -3 6t3 6q8 0 17.5 -1.5t47.5 -1.5q17 0 41 2l37 1q2 0 2 -6t-2 -6q-67 0 -111 -118l-37 -99l120 -253l129 345q12 32 12 58q0 31 -15.5 49t-41.5 18q-3 0 -3 6
t3 6l46 -1q36 -2 66 -2q20 0 46 2l43 1q2 0 2 -6z" />
    <glyph glyph-name="wcircumflex" unicode="&#x175;" horiz-adv-x="743" 
d="M274 528.5q-3 3.5 -1 4.5l103 116q5 5 12 5q6 0 11 -5l102 -116q1 0 1 -2t-2.5 -4t-3.5 -1l-108 39l-109 -39q-2 -1 -5 2.5zM751 462q0 -6 -2 -6q-36 0 -62 -26.5t-51 -86.5l-133 -342q-1 -4 -11 -4t-11 4l-104 217l-94 -217q-1 -4 -11 -4t-11 4l-186 384
q-20 42 -35 56.5t-41 14.5q-3 0 -3 6t3 6q14 0 46 -2l44 -1q35 0 71 2q10 1 24 1q2 0 2 -6t-2 -6q-11 0 -16 -3t-5 -11q0 -11 17 -47l133 -268l50 118l-67 140q-20 43 -32 57t-27 14q-2 0 -2 6t2 6l28 -1q34 -2 54 -2q13 0 43 2l29 1q2 0 2 -6t-2 -6q-13 0 -13 -8
q0 -6 6 -20t16 -33l27 -55l12 32q13 38 13 57q0 27 -19 27q-3 0 -3 6t3 6q9 0 28 -1.5t38 -1.5q17 0 33 2l29 1q3 0 3 -6t-3 -6q-28 0 -45 -8t-29.5 -26.5t-29.5 -55.5l-19 -47l92 -187l78 212q16 42 16 72q0 40 -30 40q-2 0 -2 6t2 6l27 -1q22 -2 39 -2q20 0 46 2l43 1
q2 0 2 -6z" />
    <glyph glyph-name="Ycircumflex" unicode="&#x176;" horiz-adv-x="619" 
d="M211 697.5q-3 3.5 -1 4.5l103 116q5 5 12 5q6 0 11 -5l102 -116q1 0 1 -2t-2.5 -4t-3.5 -1l-108 39l-109 -39q-2 -1 -5 2.5zM627 619q0 -6 -2 -6q-31 0 -76 -38.5t-80 -96.5l-104 -174v-223q0 -31 5 -45t19.5 -19t46.5 -5q3 0 3 -6t-3 -6q-33 0 -52 1l-75 1l-74 -1
q-20 -1 -54 -1q-2 0 -2 6t2 6q32 0 47 5t20.5 19.5t5.5 44.5v202l-146 227q-37 58 -61.5 80.5t-41.5 22.5q-3 0 -3 6t3 6l31 -1q22 -2 31 -2q35 0 101 2l66 1q2 0 2 -6t-2 -6q-17 0 -26.5 -8t-9.5 -21q0 -16 14 -38l137 -216l92 157q27 45 27 77q0 24 -14.5 36.5t-41.5 12.5
q-3 0 -3 6t3 6l53 -1q46 -2 82 -2q17 0 41 2l37 1q2 0 2 -6z" />
    <glyph glyph-name="ycircumflex" unicode="&#x177;" horiz-adv-x="511" 
d="M152 528.5q-3 3.5 -1 4.5l103 116q5 5 12 5q6 0 11 -5l102 -116q1 0 1 -2t-2.5 -4t-3.5 -1l-108 39l-109 -39q-2 -1 -5 2.5zM518 462q0 -6 -2 -6q-30 0 -54.5 -24t-38.5 -66l-141 -365q-24 -66 -60 -117t-75 -71q-6 -4 -20.5 7.5t-23.5 28.5q-10 23 -10 42q0 17 8 19
q56 8 95.5 28.5t62.5 63.5l-184 383q-20 42 -35 56.5t-41 14.5q-3 0 -3 6t3 6l44 -1q38 -2 73 -2q25 0 63 2l44 1q3 0 3 -6t-3 -6q-52 0 -52 -30q0 -13 9 -31l128 -260l88 237q8 22 8 38q0 46 -62 46q-3 0 -3 6t3 6l35 -1q32 -2 63 -2q17 0 39 2l37 1q2 0 2 -6z" />
    <glyph glyph-name="Ydieresis" unicode="&#x178;" horiz-adv-x="619" 
d="M197.5 717.5q-14.5 14.5 -14.5 40.5q0 24 15 38t40 14t38.5 -14t13.5 -38q0 -26 -13.5 -40.5t-38.5 -14.5q-26 0 -40.5 14.5zM372 717.5q-14 14.5 -14 40.5q0 24 14.5 37.5t39.5 13.5t38.5 -13.5t13.5 -37.5q0 -26 -13.5 -40.5t-38.5 -14.5q-26 0 -40 14.5zM627 619
q0 -6 -2 -6q-31 0 -76 -38.5t-80 -96.5l-104 -174v-223q0 -31 5 -45t19.5 -19t46.5 -5q3 0 3 -6t-3 -6q-33 0 -52 1l-75 1l-74 -1q-20 -1 -54 -1q-2 0 -2 6t2 6q32 0 47 5t20.5 19.5t5.5 44.5v202l-146 227q-37 58 -61.5 80.5t-41.5 22.5q-3 0 -3 6t3 6l31 -1q22 -2 31 -2
q35 0 101 2l66 1q2 0 2 -6t-2 -6q-17 0 -26.5 -8t-9.5 -21q0 -16 14 -38l137 -216l92 157q27 45 27 77q0 24 -14.5 36.5t-41.5 12.5q-3 0 -3 6t3 6l53 -1q46 -2 82 -2q17 0 41 2l37 1q2 0 2 -6z" />
    <glyph glyph-name="Zacute" unicode="&#x179;" horiz-adv-x="605" 
d="M220 678q-4 0 -5 4.5t2 6.5q29 21 81 66q30 26 45 38q5 5 35.5 -3.5t54 -20t11.5 -13.5q-62 -15 -113.5 -33.5t-108.5 -43.5zM411 600q3 5 2.5 6.5t-7.5 1.5q-114 0 -173.5 -8.5t-97.5 -36t-66 -85.5q-1 -1 -4 -1q-9 0 -8 4l40 174q0 1 4 1q10 0 8 -3q-1 -3 -1 -8
q0 -12 11.5 -16t46.5 -4h365q5 0 7.5 -5t-0.5 -8l-346 -585q-4 -5 -3 -6.5t7 -1.5h202q36 0 70 18.5t58 49.5t30 66q1 3 6 3t5 -3l-14 -145q0 -3 -2.5 -6.5t-6.5 -3.5q-149 2 -479 2q-4 0 -6 4.5t1 8.5z" />
    <glyph glyph-name="zacute" unicode="&#x17a;" horiz-adv-x="451" 
d="M156 521q-4 0 -5 4.5t2 6.5q29 21 81 66q30 26 45 38q5 5 35.5 -3.5t54 -20t11.5 -13.5q-62 -15 -113.5 -33.5t-108.5 -43.5zM290 446l3 6q0 2 -8 2q-86 0 -140 -28.5t-92 -93.5q-1 -1 -4 -1t-6 1.5t-2 3.5l40 162q0 2 4 2q3 0 5.5 -1.5t1.5 -2.5q-2 -17 8.5 -22.5
t49.5 -5.5h250q4 0 6.5 -4.5t0.5 -8.5l-248 -430q-2 -6 -1.5 -7.5t6.5 -1.5h89q102 0 156 138q1 3 6.5 2.5t5.5 -3.5l-13 -145q0 -3 -2.5 -6.5t-6.5 -3.5l-353 2q-4 0 -6 4.5t0 8.5z" />
    <glyph glyph-name="Zdotaccent" unicode="&#x17b;" horiz-adv-x="605" 
d="M275.5 729.5q-16.5 16.5 -16.5 44.5q0 26 16.5 42t44.5 16q27 0 42.5 -15.5t15.5 -42.5q0 -29 -15 -45t-43 -16t-44.5 16.5zM411 600q3 5 2.5 6.5t-7.5 1.5q-114 0 -173.5 -8.5t-97.5 -36t-66 -85.5q-1 -1 -4 -1q-9 0 -8 4l40 174q0 1 4 1q10 0 8 -3q-1 -3 -1 -8
q0 -12 11.5 -16t46.5 -4h365q5 0 7.5 -5t-0.5 -8l-346 -585q-4 -5 -3 -6.5t7 -1.5h202q36 0 70 18.5t58 49.5t30 66q1 3 6 3t5 -3l-14 -145q0 -3 -2.5 -6.5t-6.5 -3.5q-149 2 -479 2q-4 0 -6 4.5t1 8.5z" />
    <glyph glyph-name="zdotaccent" unicode="&#x17c;" horiz-adv-x="451" 
d="M198 559q-16 16 -16 45q0 26 16.5 41.5t44.5 15.5t43 -15t15 -42q0 -29 -15 -45t-43 -16q-29 0 -45 16zM290 446l3 6q0 2 -8 2q-86 0 -140 -28.5t-92 -93.5q-1 -1 -4 -1t-6 1.5t-2 3.5l40 162q0 2 4 2q3 0 5.5 -1.5t1.5 -2.5q-2 -17 8.5 -22.5t49.5 -5.5h250
q4 0 6.5 -4.5t0.5 -8.5l-248 -430q-2 -6 -1.5 -7.5t6.5 -1.5h89q102 0 156 138q1 3 6.5 2.5t5.5 -3.5l-13 -145q0 -3 -2.5 -6.5t-6.5 -3.5l-353 2q-4 0 -6 4.5t0 8.5z" />
    <glyph glyph-name="Zcaron" unicode="&#x17d;" horiz-adv-x="605" 
d="M204 802v2q0 2 2.5 4t3.5 1l109 -38l108 40h1q3 0 4.5 -2.5t-0.5 -4.5l-102 -117q-4 -4 -11 -4q-8 0 -12 4zM411 600q3 5 2.5 6.5t-7.5 1.5q-114 0 -173.5 -8.5t-97.5 -36t-66 -85.5q-1 -1 -4 -1q-9 0 -8 4l40 174q0 1 4 1q10 0 8 -3q-1 -3 -1 -8q0 -12 11.5 -16t46.5 -4
h365q5 0 7.5 -5t-0.5 -8l-346 -585q-4 -5 -3 -6.5t7 -1.5h202q36 0 70 18.5t58 49.5t30 66q1 3 6 3t5 -3l-14 -145q0 -3 -2.5 -6.5t-6.5 -3.5q-149 2 -479 2q-4 0 -6 4.5t1 8.5z" />
    <glyph glyph-name="zcaron" unicode="&#x17e;" horiz-adv-x="451" 
d="M128 646q-1 0 -1 0.5v0.5q0 2 2.5 4.5t4.5 1.5l109 -39l108 40h1q3 0 4.5 -2.5t-0.5 -4.5l-102 -117q-4 -4 -11 -4q-8 0 -12 4zM290 446l3 6q0 2 -8 2q-86 0 -140 -28.5t-92 -93.5q-1 -1 -4 -1t-6 1.5t-2 3.5l40 162q0 2 4 2q3 0 5.5 -1.5t1.5 -2.5q-2 -17 8.5 -22.5
t49.5 -5.5h250q4 0 6.5 -4.5t0.5 -8.5l-248 -430q-2 -6 -1.5 -7.5t6.5 -1.5h89q102 0 156 138q1 3 6.5 2.5t5.5 -3.5l-13 -145q0 -3 -2.5 -6.5t-6.5 -3.5l-353 2q-4 0 -6 4.5t0 8.5z" />
    <glyph glyph-name="longs" unicode="&#x17f;" horiz-adv-x="299" 
d="M435 587q0 -20 -12 -32t-34 -12q-24 0 -35.5 10.5t-24.5 32.5q-10 19 -19 28t-28 9q-80 0 -80 -208v-334q0 -31 4 -45t16 -19t40 -5q2 0 2 -6t-2 -6l-58 1q-18 1 -55 1l-66 -1q-16 -1 -41 -1q-2 0 -2 6t2 6q26 0 38 5.5t16.5 19.5t4.5 44v313q0 30 -3.5 42.5t-14 16
t-36.5 3.5q-3 0 -3 6t3 6h55q8 87 66 131.5t156 44.5q111 0 111 -57z" />
    <glyph glyph-name="uni018F" unicode="&#x18f;" horiz-adv-x="639" 
d="M517 545.5q72 -90.5 72 -221.5q0 -104 -43.5 -180t-117.5 -116t-164 -40q-78 0 -130 28t-76.5 68.5t-24.5 78.5q0 7 2.5 9.5t8.5 2.5l415 2q10 47 10 111q0 144 -52 234.5t-154 90.5q-67 0 -120.5 -40.5t-78.5 -116.5q0 -2 -4 -2q-3 0 -5.5 1.5t-1.5 2.5l46 190
q1 4 6.5 3t4.5 -4q-1 -4 -1 -11q0 -19 16 -19q4 0 12 2q64 17 134 17q174 0 246 -90.5zM398 46q39 39 57 111l-302 -4q6 -66 46.5 -106t99.5 -40q60 0 99 39z" />
    <glyph glyph-name="florin" unicode="&#x192;" horiz-adv-x="352" 
d="M373.5 713q24.5 -13 24.5 -38q0 -17 -12 -29t-34 -12q-20 0 -31 9.5t-19 27.5q-8 17 -15 24.5t-20 7.5q-20 0 -33 -23.5t-22.5 -79.5t-18.5 -161l-5 -61q43 1 120 8q4 1 6 -8t1 -19q-2 -11 -7 -18t-9 -6q-51 12 -114 15l-36 -414q-9 -78 -24.5 -116.5t-48 -59
t-98.5 -35.5q-4 -1 -5.5 4.5t0.5 6.5q37 13 52.5 51.5t23.5 128.5l33 390l1 18q0 21 -9 27t-38 6q-2 0 -2 6q0 4 1.5 8t3.5 4q28 0 39 9.5t12 33.5q13 114 37.5 180.5t66.5 97t109 30.5q46 0 70.5 -13z" />
    <glyph glyph-name="Ohorn" unicode="&#x1a0;" horiz-adv-x="766" 
d="M714 594q-32 -28 -87 -50q43 -45 66.5 -103.5t23.5 -121.5q0 -91 -48 -167t-128.5 -120t-174.5 -44q-93 0 -165.5 43.5t-112 118t-39.5 162.5q0 103 52 176.5t133.5 110.5t166.5 37q65 0 119.5 -21.5t95.5 -59.5q52 24 52 52q0 10 -9 21q-7 10 -10 17t-3 18
q0 24 15.5 37.5t36.5 13.5q23 0 35.5 -15.5t12.5 -36.5q0 -40 -32 -68zM499.5 45.5q44.5 32.5 69.5 95t25 149.5q0 92 -28 164.5t-81 113.5t-124 41q-91 0 -140 -68.5t-49 -191.5q0 -97 29.5 -173.5t81 -119.5t116.5 -43q56 0 100.5 32.5z" />
    <glyph glyph-name="ohorn" unicode="&#x1a1;" horiz-adv-x="567" 
d="M569 407.5q-24 -24.5 -65 -45.5q33 -60 33 -123q0 -67 -35 -124.5t-95 -92t-132 -34.5q-71 0 -127 33.5t-87 90t-31 122.5q0 76 39.5 132t101 85t126.5 29q63 0 114 -28t83 -75q21 17 21 35q0 10 -9 21q-7 10 -10 17t-3 18q0 24 15.5 37.5t36.5 13.5q23 0 35.5 -15.5
t12.5 -36.5q0 -35 -24 -59.5zM388.5 66q34.5 55 34.5 152q0 66 -20 120t-56.5 85.5t-84.5 31.5q-58 0 -88 -48t-30 -142q0 -71 20.5 -129.5t55.5 -91.5t78 -33q56 0 90.5 55z" />
    <glyph glyph-name="Uhorn" unicode="&#x1af;" horiz-adv-x="703" 
d="M605 195q0 -63 -31 -110t-87 -73t-129 -26q-115 0 -185 56.5t-70 155.5v346q0 30 -5.5 44t-20 19.5t-45.5 5.5q-3 0 -3 6t3 6l53 -1q46 -2 73 -2q30 0 76 2l51 1q3 0 3 -6t-3 -6q-31 0 -45.5 -6t-20 -20.5t-5.5 -44.5v-309q0 -106 47 -158t130 -52q86 0 133 44.5
t47 126.5v303q0 54 -24.5 85t-68.5 31q-2 0 -2 6t2 6l48 -1q38 -2 61 -2q52 0 76 8.5t24 29.5q0 10 -9 21q-7 8 -10.5 15.5t-3.5 19.5q0 24 16 37t37 13q23 0 35.5 -16t12.5 -39q0 -39 -28.5 -61t-73.5 -38q-27 -11 -42.5 -35.5t-15.5 -79.5v-302z" />
    <glyph glyph-name="uhorn" unicode="&#x1b0;" horiz-adv-x="611" 
d="M522.5 432.5q-7.5 -12.5 -7.5 -45.5v-306q0 -30 4 -44.5t14.5 -19.5t32.5 -5q3 0 3 -6t-3 -6l-65 1l-67 -1q-12 0 -15.5 3t-3.5 16v54q-75 -85 -178 -85q-69 0 -116 37t-47 114v248q0 30 -3 44t-11 19.5t-25 5.5q-2 0 -2 6t2 6l39 -1q32 -2 52 -2q24 0 60 2l40 1
q2 0 2 -6t-2 -6q-23 0 -34 -6t-15 -20.5t-4 -44.5v-222q0 -76 28.5 -109t75.5 -33q78 0 138 85v279q0 30 -4.5 44.5t-18.5 20.5t-43 6q-3 0 -3 6t3 6l49 -1q40 -2 64 -2q70 0 102 8.5t32 29.5q0 10 -9 21q-6 8 -9.5 15.5t-3.5 19.5q0 24 16 37t37 13q24 0 36 -15.5t12 -39.5
q0 -39 -32.5 -61t-88.5 -40q-24 -8 -31.5 -20.5z" />
    <glyph glyph-name="uni01CD" unicode="&#x1cd;" horiz-adv-x="716" 
d="M239 802v2q0 2 2.5 4t3.5 1l109 -38l108 40h1q3 0 4.5 -2.5t-0.5 -4.5l-102 -117q-4 -4 -11 -4q-8 0 -12 4zM722 6q0 -6 -5 -6q-20 0 -62 2q-44 2 -63 2q-25 0 -61 -2q-34 -2 -54 -2q-4 0 -4 6t4 6q26 0 37.5 5.5t11.5 19.5q0 17 -20 57l-104 205h-178l-71 -157
q-13 -29 -13 -54q0 -36 25.5 -56t68.5 -20q5 0 5 -6t-5 -6q-18 0 -52 2q-38 2 -66 2q-27 0 -65 -2q-34 -2 -55 -2q-4 0 -4 6t4 6q28 0 47 11.5t38 41t45 87.5l217 477q2 3 9 3q8 0 9 -3l250 -492q35 -71 58 -98t48 -27q5 0 5 -6zM237 327h151l-80 158z" />
    <glyph glyph-name="uni01CE" unicode="&#x1ce;" horiz-adv-x="481" 
d="M132 646.5v0.5q0 2 2.5 4.5t4.5 1.5l109 -39l108 40h1q3 0 4.5 -2.5t-0.5 -4.5l-102 -117q-4 -4 -11 -4q-8 0 -12 4l-103 116q-1 0 -1 0.5zM482 59q3 0 4.5 -5t-2.5 -6l-110 -53q-4 -2 -9 -2q-19 0 -37.5 16t-28.5 51l-60 -35q-30 -18 -53.5 -25t-48.5 -7q-39 0 -64 21
t-25 54q0 31 20.5 54.5t57.5 36.5l166 59v119q0 61 -12.5 89t-40.5 28q-32 0 -50 -29t-28 -74q-11 -56 -58 -56q-25 0 -39.5 12.5t-14.5 35.5q0 30 37.5 61.5t91.5 52t99 20.5q53 0 84 -27.5t31 -82.5v-213q0 -45 8 -67t20.5 -28t32.5 -6q10 0 27 5zM295 80q-3 18 -3 40v77
l-86 -32q-48 -18 -48 -64q0 -27 13 -42.5t35 -15.5q16 0 44 14z" />
    <glyph glyph-name="uni01CF" unicode="&#x1cf;" horiz-adv-x="342" 
d="M56 802v2q0 2 2.5 4t3.5 1l109 -38l108 40h1q3 0 4.5 -2.5t-0.5 -4.5l-102 -117q-4 -4 -11 -4q-8 0 -12 4zM232 36q5 -14 19.5 -19t46.5 -5q3 0 3 -6t-3 -6q-33 0 -52 1l-76 1l-74 -1q-20 -1 -54 -1q-2 0 -2 6t2 6q32 0 47 5t20.5 19.5t5.5 44.5v463q0 30 -5.5 44
t-20.5 19.5t-47 5.5q-2 0 -2 6t2 6l54 -1q46 -2 74 -2q31 0 77 2l51 1q3 0 3 -6t-3 -6q-31 0 -46 -6t-20 -20.5t-5 -44.5v-461q0 -31 5 -45z" />
    <glyph glyph-name="uni01D0" unicode="&#x1d0;" horiz-adv-x="303" 
d="M39 646q-1 0 -1 0.5v0.5q0 2 2.5 4.5t4.5 1.5l109 -39l108 40h1q3 0 4.5 -2.5t-0.5 -4.5l-102 -117q-4 -4 -11 -4q-8 0 -12 4zM207 36.5q5 -14.5 18 -19.5t42 -5q2 0 2 -6t-2 -6q-31 0 -48 1l-68 1l-65 -1q-18 -1 -50 -1q-2 0 -2 6t2 6q29 0 42.5 5t18.5 19.5t5 44.5v306
q0 30 -5 44t-18.5 19.5t-42.5 5.5q-2 0 -2 6t2 6l50 -1q40 -2 65 -2q27 0 69 2l47 1q2 0 2 -6t-2 -6q-28 0 -41.5 -6t-18.5 -20.5t-5 -44.5v-304q0 -30 5 -44.5z" />
    <glyph glyph-name="uni01D1" unicode="&#x1d1;" horiz-adv-x="766" 
d="M273 802v2q0 2 2.5 4t3.5 1l109 -38l108 40h1q3 0 4.5 -2.5t-0.5 -4.5l-102 -117q-4 -4 -11 -4q-8 0 -12 4zM200.5 31.5q-72.5 43.5 -112 118t-39.5 162.5q0 103 52 176.5t133.5 110.5t166.5 37q95 0 167 -44.5t110.5 -117.5t38.5 -155q0 -91 -48 -167t-128.5 -120
t-174.5 -44q-93 0 -165.5 43.5zM499.5 45.5q44.5 32.5 69.5 95t25 149.5q0 92 -28 164.5t-81 113.5t-124 41q-91 0 -140 -68.5t-49 -191.5q0 -97 29.5 -173.5t81 -119.5t116.5 -43q56 0 100.5 32.5z" />
    <glyph glyph-name="uni01D2" unicode="&#x1d2;" horiz-adv-x="567" 
d="M169 643q-1 0 -1 0.5v0.5q0 2 2.5 4.5t4.5 1.5l109 -39l108 40h1q3 0 4.5 -2.5t-0.5 -4.5l-102 -117q-4 -4 -11 -4q-8 0 -12 4zM148 21.5q-56 33.5 -87 90t-31 122.5q0 76 39.5 132t101 85t126.5 29q71 0 125.5 -34.5t84.5 -90t30 -116.5q0 -67 -35 -124.5t-95 -92
t-132 -34.5q-71 0 -127 33.5zM388.5 66q34.5 55 34.5 152q0 66 -20 120t-56.5 85.5t-84.5 31.5q-58 0 -88 -48t-30 -142q0 -71 20.5 -129.5t55.5 -91.5t78 -33q56 0 90.5 55z" />
    <glyph glyph-name="uni01D3" unicode="&#x1d3;" horiz-adv-x="703" 
d="M258 802v2q0 2 2.5 4t3.5 1l109 -38l108 40h1q3 0 4.5 -2.5t-0.5 -4.5l-102 -117q-4 -4 -11 -4q-8 0 -12 4zM546.5 582q-24.5 31 -68.5 31q-2 0 -2 6t2 6l48 -1q38 -2 61 -2q19 0 55 2l46 1q2 0 2 -6t-2 -6q-39 0 -61 -31t-22 -85v-278q0 -70 -31 -123t-87.5 -81.5
t-130.5 -28.5t-131 28t-89.5 81.5t-32.5 125.5v323q0 30 -5.5 44t-20 19.5t-45.5 5.5q-3 0 -3 6t3 6l53 -1q46 -2 73 -2q30 0 76 2l51 1q3 0 3 -6t-3 -6q-31 0 -45.5 -6t-20 -20.5t-5.5 -44.5v-286q0 -119 47 -176t133 -57q83 0 130 50.5t47 144.5v279q0 54 -24.5 85z" />
    <glyph glyph-name="uni01D4" unicode="&#x1d4;" horiz-adv-x="599" 
d="M183 646.5v0.5q0 2 2.5 4.5t4.5 1.5l109 -39l108 40h1q3 0 4.5 -2.5t-0.5 -4.5l-102 -117q-4 -4 -11 -4q-8 0 -12 4l-103 116q-1 0 -1 0.5zM534 450.5q-11 -5.5 -15 -19.5t-4 -44v-306q0 -30 4 -44.5t14.5 -19.5t32.5 -5q3 0 3 -6t-3 -6l-65 1l-67 -1q-12 0 -15.5 3
t-3.5 16v54q-75 -85 -178 -85q-69 0 -116 37t-47 114v248q0 30 -3 44t-11 19.5t-25 5.5q-2 0 -2 6t2 6l39 -1q32 -2 52 -2q24 0 60 2l40 1q2 0 2 -6t-2 -6q-23 0 -34 -6t-15 -20.5t-4 -44.5v-222q0 -76 28.5 -109t75.5 -33q78 0 138 85v279q0 30 -3.5 44.5t-14 20.5t-32.5 6
q-3 0 -3 6t3 6l46 -1q38 -2 58 -2q18 0 54 2l45 1q3 0 3 -6t-3 -6q-23 0 -34 -5.5z" />
    <glyph glyph-name="uni01D5" unicode="&#x1d5;" horiz-adv-x="703" 
d="M239 847q-3 6 -3 13q0 8 3 13.5t7 5.5h251q5 0 8 -5.5t3 -13.5q0 -7 -3 -13t-8 -6h-251q-4 0 -7 6zM246.5 706.5q-14.5 14.5 -14.5 40.5q0 23 15 37t40 14t38.5 -13.5t13.5 -37.5q0 -26 -13.5 -40.5t-38.5 -14.5q-26 0 -40.5 14.5zM421 706.5q-14 14.5 -14 40.5
q0 23 14.5 36.5t39.5 13.5t38.5 -13.5t13.5 -36.5q0 -26 -13.5 -40.5t-38.5 -14.5q-26 0 -40 14.5zM546.5 582q-24.5 31 -68.5 31q-2 0 -2 6t2 6l48 -1q38 -2 61 -2q19 0 55 2l46 1q2 0 2 -6t-2 -6q-39 0 -61 -31t-22 -85v-278q0 -70 -31 -123t-87.5 -81.5t-130.5 -28.5
t-131 28t-89.5 81.5t-32.5 125.5v323q0 30 -5.5 44t-20 19.5t-45.5 5.5q-3 0 -3 6t3 6l53 -1q46 -2 73 -2q30 0 76 2l51 1q3 0 3 -6t-3 -6q-31 0 -45.5 -6t-20 -20.5t-5.5 -44.5v-286q0 -119 47 -176t133 -57q83 0 130 50.5t47 144.5v279q0 54 -24.5 85z" />
    <glyph glyph-name="uni01D6" unicode="&#x1d6;" horiz-adv-x="599" 
d="M165 690q-3 6 -3 13q0 8 3 13.5t7 5.5h251q5 0 8 -5.5t3 -13.5q0 -7 -3 -13t-8 -6h-251q-4 0 -7 6zM172.5 549.5q-14.5 14.5 -14.5 40.5q0 23 15 37t40 14t38.5 -13.5t13.5 -37.5q0 -26 -13.5 -40.5t-38.5 -14.5q-26 0 -40.5 14.5zM425.5 626.5q13.5 -13.5 13.5 -36.5
q0 -26 -13.5 -40.5t-38.5 -14.5q-26 0 -40 14.5t-14 40.5q0 23 14.5 36.5t39.5 13.5t38.5 -13.5zM534 450.5q-11 -5.5 -15 -19.5t-4 -44v-306q0 -30 4 -44.5t14.5 -19.5t32.5 -5q3 0 3 -6t-3 -6l-65 1l-67 -1q-12 0 -15.5 3t-3.5 16v54q-75 -85 -178 -85q-69 0 -116 37
t-47 114v248q0 30 -3 44t-11 19.5t-25 5.5q-2 0 -2 6t2 6l39 -1q32 -2 52 -2q24 0 60 2l40 1q2 0 2 -6t-2 -6q-23 0 -34 -6t-15 -20.5t-4 -44.5v-222q0 -76 28.5 -109t75.5 -33q78 0 138 85v279q0 30 -3.5 44.5t-14 20.5t-32.5 6q-3 0 -3 6t3 6l46 -1q38 -2 58 -2q18 0 54 2
l45 1q3 0 3 -6t-3 -6q-23 0 -34 -5.5z" />
    <glyph glyph-name="uni01D7" unicode="&#x1d7;" horiz-adv-x="703" 
d="M239 821q-4 0 -5.5 4.5t1.5 6.5q56 27 136 77l42 25q6 4 36.5 -4.5t54 -20t11.5 -13.5q-157 -31 -275 -75h-1zM246.5 706.5q-14.5 14.5 -14.5 40.5q0 23 15 37t40 14t38.5 -13.5t13.5 -37.5q0 -26 -13.5 -40.5t-38.5 -14.5q-26 0 -40.5 14.5zM421 706.5
q-14 14.5 -14 40.5q0 23 14.5 36.5t39.5 13.5t38.5 -13.5t13.5 -36.5q0 -26 -13.5 -40.5t-38.5 -14.5q-26 0 -40 14.5zM546.5 582q-24.5 31 -68.5 31q-2 0 -2 6t2 6l48 -1q38 -2 61 -2q19 0 55 2l46 1q2 0 2 -6t-2 -6q-39 0 -61 -31t-22 -85v-278q0 -70 -31 -123
t-87.5 -81.5t-130.5 -28.5t-131 28t-89.5 81.5t-32.5 125.5v323q0 30 -5.5 44t-20 19.5t-45.5 5.5q-3 0 -3 6t3 6l53 -1q46 -2 73 -2q30 0 76 2l51 1q3 0 3 -6t-3 -6q-31 0 -45.5 -6t-20 -20.5t-5.5 -44.5v-286q0 -119 47 -176t133 -57q83 0 130 50.5t47 144.5v279
q0 54 -24.5 85z" />
    <glyph glyph-name="uni01D8" unicode="&#x1d8;" horiz-adv-x="599" 
d="M165 664q-4 0 -5.5 4.5t1.5 6.5q56 27 136 77l42 25q6 4 36.5 -4.5t54 -20t11.5 -13.5q-157 -31 -275 -75h-1zM172.5 549.5q-14.5 14.5 -14.5 40.5q0 23 15 37t40 14t38.5 -13.5t13.5 -37.5q0 -26 -13.5 -40.5t-38.5 -14.5q-26 0 -40.5 14.5zM347.5 626.5
q14.5 13.5 39.5 13.5t38.5 -13.5t13.5 -36.5q0 -26 -13.5 -40.5t-38.5 -14.5q-26 0 -40 14.5t-14 40.5q0 23 14.5 36.5zM534 450.5q-11 -5.5 -15 -19.5t-4 -44v-306q0 -30 4 -44.5t14.5 -19.5t32.5 -5q3 0 3 -6t-3 -6l-65 1l-67 -1q-12 0 -15.5 3t-3.5 16v54
q-75 -85 -178 -85q-69 0 -116 37t-47 114v248q0 30 -3 44t-11 19.5t-25 5.5q-2 0 -2 6t2 6l39 -1q32 -2 52 -2q24 0 60 2l40 1q2 0 2 -6t-2 -6q-23 0 -34 -6t-15 -20.5t-4 -44.5v-222q0 -76 28.5 -109t75.5 -33q78 0 138 85v279q0 30 -3.5 44.5t-14 20.5t-32.5 6q-3 0 -3 6
t3 6l46 -1q38 -2 58 -2q18 0 54 2l45 1q3 0 3 -6t-3 -6q-23 0 -34 -5.5z" />
    <glyph glyph-name="uni01D9" unicode="&#x1d9;" horiz-adv-x="703" 
d="M247 929q-1 0 -1 0.5v0.5q0 2 2.5 4.5t4.5 1.5l124 -50l122 51h1q3 0 4.5 -2t-0.5 -5l-117 -117q-3 -4 -11 -4q-7 0 -11 4zM246.5 706.5q-14.5 14.5 -14.5 40.5q0 23 15 37t40 14t38.5 -13.5t13.5 -37.5q0 -26 -13.5 -40.5t-38.5 -14.5q-26 0 -40.5 14.5zM421 706.5
q-14 14.5 -14 40.5q0 23 14.5 36.5t39.5 13.5t38.5 -13.5t13.5 -36.5q0 -26 -13.5 -40.5t-38.5 -14.5q-26 0 -40 14.5zM546.5 582q-24.5 31 -68.5 31q-2 0 -2 6t2 6l48 -1q38 -2 61 -2q19 0 55 2l46 1q2 0 2 -6t-2 -6q-39 0 -61 -31t-22 -85v-278q0 -70 -31 -123
t-87.5 -81.5t-130.5 -28.5t-131 28t-89.5 81.5t-32.5 125.5v323q0 30 -5.5 44t-20 19.5t-45.5 5.5q-3 0 -3 6t3 6l53 -1q46 -2 73 -2q30 0 76 2l51 1q3 0 3 -6t-3 -6q-31 0 -45.5 -6t-20 -20.5t-5.5 -44.5v-286q0 -119 47 -176t133 -57q83 0 130 50.5t47 144.5v279
q0 54 -24.5 85z" />
    <glyph glyph-name="uni01DA" unicode="&#x1da;" horiz-adv-x="599" 
d="M172 772.5v0.5q0 2 2.5 4.5t4.5 1.5l124 -50l122 51h1q3 0 4.5 -2t-0.5 -5l-117 -117q-3 -4 -11 -4q-7 0 -11 4l-118 116q-1 0 -1 0.5zM172.5 549.5q-14.5 14.5 -14.5 40.5q0 23 15 37t40 14t38.5 -13.5t13.5 -37.5q0 -26 -13.5 -40.5t-38.5 -14.5q-26 0 -40.5 14.5z
M425.5 626.5q13.5 -13.5 13.5 -36.5q0 -26 -13.5 -40.5t-38.5 -14.5q-26 0 -40 14.5t-14 40.5q0 23 14.5 36.5t39.5 13.5t38.5 -13.5zM534 450.5q-11 -5.5 -15 -19.5t-4 -44v-306q0 -30 4 -44.5t14.5 -19.5t32.5 -5q3 0 3 -6t-3 -6l-65 1l-67 -1q-12 0 -15.5 3t-3.5 16v54
q-75 -85 -178 -85q-69 0 -116 37t-47 114v248q0 30 -3 44t-11 19.5t-25 5.5q-2 0 -2 6t2 6l39 -1q32 -2 52 -2q24 0 60 2l40 1q2 0 2 -6t-2 -6q-23 0 -34 -6t-15 -20.5t-4 -44.5v-222q0 -76 28.5 -109t75.5 -33q78 0 138 85v279q0 30 -3.5 44.5t-14 20.5t-32.5 6q-3 0 -3 6
t3 6l46 -1q38 -2 58 -2q18 0 54 2l45 1q3 0 3 -6t-3 -6q-23 0 -34 -5.5z" />
    <glyph glyph-name="uni01DB" unicode="&#x1db;" horiz-adv-x="703" 
d="M246 896q-12 2 11.5 13.5t54 20t36.5 4.5l45 -27q77 -47 132 -75q3 -1 3 -4t-2 -5.5t-5 -1.5q-118 44 -275 75zM435 706.5q-14 14.5 -14 40.5q0 23 14 37t39 14t40 -14t15 -37q0 -26 -14.5 -40.5t-40.5 -14.5q-25 0 -39 14.5zM261.5 706.5q-13.5 14.5 -13.5 40.5
q0 23 13.5 36.5t38.5 13.5t39 -13.5t14 -36.5q0 -26 -14 -40.5t-39 -14.5t-38.5 14.5zM546.5 582q-24.5 31 -68.5 31q-2 0 -2 6t2 6l48 -1q38 -2 61 -2q19 0 55 2l46 1q2 0 2 -6t-2 -6q-39 0 -61 -31t-22 -85v-278q0 -70 -31 -123t-87.5 -81.5t-130.5 -28.5t-131 28
t-89.5 81.5t-32.5 125.5v323q0 30 -5.5 44t-20 19.5t-45.5 5.5q-3 0 -3 6t3 6l53 -1q46 -2 73 -2q30 0 76 2l51 1q3 0 3 -6t-3 -6q-31 0 -45.5 -6t-20 -20.5t-5.5 -44.5v-286q0 -119 47 -176t133 -57q83 0 130 50.5t47 144.5v279q0 54 -24.5 85z" />
    <glyph glyph-name="uni01DC" unicode="&#x1dc;" horiz-adv-x="599" 
d="M183.5 752.5q23.5 11.5 54 20t36.5 4.5l45 -27q77 -47 132 -75q3 -1 3 -4t-2 -5.5t-5 -1.5q-118 44 -275 75q-12 2 11.5 13.5zM440 627q15 -14 15 -37q0 -26 -14.5 -40.5t-40.5 -14.5q-25 0 -39 14.5t-14 40.5q0 23 14 37t39 14t40 -14zM187.5 626.5q13.5 13.5 38.5 13.5
t39 -13.5t14 -36.5q0 -26 -14 -40.5t-39 -14.5t-38.5 14.5t-13.5 40.5q0 23 13.5 36.5zM534 450.5q-11 -5.5 -15 -19.5t-4 -44v-306q0 -30 4 -44.5t14.5 -19.5t32.5 -5q3 0 3 -6t-3 -6l-65 1l-67 -1q-12 0 -15.5 3t-3.5 16v54q-75 -85 -178 -85q-69 0 -116 37t-47 114v248
q0 30 -3 44t-11 19.5t-25 5.5q-2 0 -2 6t2 6l39 -1q32 -2 52 -2q24 0 60 2l40 1q2 0 2 -6t-2 -6q-23 0 -34 -6t-15 -20.5t-4 -44.5v-222q0 -76 28.5 -109t75.5 -33q78 0 138 85v279q0 30 -3.5 44.5t-14 20.5t-32.5 6q-3 0 -3 6t3 6l46 -1q38 -2 58 -2q18 0 54 2l45 1
q3 0 3 -6t-3 -6q-23 0 -34 -5.5z" />
    <glyph glyph-name="uni01E2" unicode="&#x1e2;" horiz-adv-x="888" 
d="M446 718.5q-3 5.5 -3 13.5q0 7 3 12.5t7 5.5h251q5 0 8 -5.5t3 -12.5q0 -8 -3 -13.5t-8 -5.5h-251q-4 0 -7 5.5zM835 161q3 0 5.5 -1t2.5 -3q-9 -88 -9 -142q0 -8 -3.5 -11.5t-11.5 -3.5h-437q-2 0 -2 6t2 6q32 0 46.5 5t20 19.5t5.5 44.5v230h-150l-110 -173
q-26 -40 -26 -72q0 -26 19 -40t55 -14q5 0 5 -6t-5 -6q-21 0 -61 2q-46 2 -80 2q-25 0 -59 -2q-30 -2 -49 -2q-5 0 -5 6t5 6q42 0 76.5 27t77.5 93l288 442q13 18 13 25q0 9 -16.5 11.5t-60.5 2.5q-3 0 -3 6t3 6h430q10 0 10 -9l2 -133q0 -2 -5.5 -3t-6.5 2q-6 23 -27 50
t-51.5 45.5t-64.5 18.5h-42q-29 0 -43 -13t-14 -40v-204h83q58 0 88.5 20t30.5 56q0 3 6 3t6 -3l-1 -90q0 -32 1 -48l1 -54q0 -2 -5.5 -2t-5.5 2q0 41 -31.5 64.5t-90.5 23.5h-82v-226q0 -29 11 -43t35 -14h44q37 0 75.5 18t67.5 48.5t40 64.5q0 2 3 2zM322 339h132v208z
" />
    <glyph glyph-name="uni01E3" unicode="&#x1e3;" horiz-adv-x="646" 
d="M227 561.5q-3 5.5 -3 13.5q0 7 3 12.5t7 5.5h251q5 0 8 -5.5t3 -12.5q0 -8 -3 -13.5t-8 -5.5h-251q-4 0 -7 5.5zM643 54q3 0 6 -3.5t0 -6.5q-37 -29 -74.5 -42.5t-79.5 -13.5q-130 0 -180 96l-80 -56q-51 -35 -105 -35q-41 0 -66 21t-25 54q0 31 20.5 54.5t57.5 36.5
l168 59v10q-2 95 -7.5 141.5t-18.5 65t-39 18.5q-37 0 -53.5 -26t-22.5 -66q-4 -22 -17 -39t-37 -17q-23 0 -36 13t-13 34q0 29 33.5 58t84 48t97.5 19q44 0 68 -18.5t33 -57.5q24 36 62.5 56t85.5 20q68 0 103.5 -39t35.5 -102q0 -13 -2.5 -18t-8.5 -5l-244 -1
q-3 -28 -3 -61q0 -109 35.5 -165.5t120.5 -56.5q50 0 100 25h1zM423.5 424.5q-22.5 -32.5 -31.5 -92.5l143 3q0 122 -58 122q-31 0 -53.5 -32.5zM308 100q-17 42 -21 99l-91 -34q-47 -18 -47 -64q0 -27 12.5 -42.5t33.5 -15.5q12 0 26.5 5t25.5 13z" />
    <glyph glyph-name="Gcaron" unicode="&#x1e6;" horiz-adv-x="719" 
d="M279 802v2q0 2 2.5 4t3.5 1l109 -38l108 40h1q3 0 4.5 -2.5t-0.5 -4.5l-102 -117q-4 -4 -11 -4q-8 0 -12 4zM217 30q-82 42 -125 114.5t-43 161.5q0 96 49.5 171.5t136 117t193.5 41.5q47 0 95 -7.5t77 -19.5q9 -3 11.5 -7.5t3.5 -15.5l13 -139q0 -3 -5 -4t-7 3
q-35 77 -96.5 120t-140.5 43q-102 0 -155.5 -71t-53.5 -194q0 -99 34 -176.5t94.5 -120t135.5 -42.5q41 0 63 9t32 35t10 77q0 52 -6 72.5t-25.5 27.5t-67.5 7q-6 0 -6 8q0 3 1.5 5.5t3.5 2.5q85 -5 137 -5q51 0 106 3q2 0 3.5 -2.5t1.5 -4.5q0 -7 -5 -7q-18 1 -25 -6.5
t-9 -30t-2 -80.5q0 -45 3.5 -64t3.5 -24q0 -6 -2.5 -8t-9.5 -4q-129 -28 -232 -28q-110 0 -192 42z" />
    <glyph glyph-name="gcaron" unicode="&#x1e7;" horiz-adv-x="551" 
d="M183 645v2q0 2 2.5 4t3.5 1l109 -38l108 40h1q3 0 4.5 -2.5t-0.5 -4.5l-102 -117q-4 -4 -11 -4q-8 0 -12 4zM151.5 21.5q-59.5 33.5 -90.5 88.5t-31 116q0 78 35.5 135.5t100.5 88t153 30.5q44 0 84.5 -8t67.5 -23q7 -3 8.5 -7t2.5 -15l5 -94q0 -3 -5.5 -3.5t-6.5 2.5
q-77 126 -179 126q-71 0 -111.5 -57t-40.5 -162q0 -102 46 -165t125 -63q40 0 58.5 8.5t25 32t6.5 74.5q0 26 -4 36.5t-17 14t-45 3.5q-6 0 -6 8q0 3 1.5 5.5t3.5 2.5q52 -4 105 -4q24 0 80 2q2 0 3.5 -2.5t1.5 -4.5q0 -7 -5 -7q-15 1 -21 -3t-8 -16.5t-2 -44.5
q0 -45 2.5 -63t2.5 -25q0 -6 -2 -7.5t-10 -4.5q-67 -28 -194 -28q-80 0 -139.5 33.5z" />
    <glyph glyph-name="uni01E8" unicode="&#x1e8;" horiz-adv-x="655" 
d="M216 802v2q0 2 2.5 4t3.5 1l109 -38l108 40h1q3 0 4.5 -2.5t-0.5 -4.5l-102 -117q-4 -4 -11 -4q-8 0 -12 4zM667 6q0 -6 -3 -6h-112q-16 0 -27 -1t-18 -1q-16 0 -27.5 7.5t-28 27.5t-58.5 77q-5 7 -11.5 15.5t-14.5 19.5l-131 176l-22 -22v-218q0 -31 5 -45t19.5 -19
t46.5 -5q4 0 4 -6t-4 -6q-33 0 -52 1l-75 1l-74 -1q-20 -1 -54 -1q-2 0 -2 6t2 6q32 0 47 5t20.5 19.5t5.5 44.5v463q0 30 -5.5 44t-20 19.5t-45.5 5.5q-3 0 -3 6t3 6l53 -1q46 -2 73 -2q30 0 76 2l51 1q3 0 3 -6t-3 -6q-31 0 -45.5 -6t-20 -20.5t-5.5 -44.5v-212l188 192
q29 29 29 53q0 18 -16 28t-45 10q-3 0 -3 6t3 6l47 -1q44 -2 82 -2q41 0 85 2l45 1q3 0 3 -6t-3 -6q-46 0 -101 -26.5t-100 -70.5l-113 -115l148 -200q65 -93 97.5 -131.5t52.5 -48t51 -9.5q3 0 3 -6z" />
    <glyph glyph-name="uni01E9" unicode="&#x1e9;" horiz-adv-x="554" 
d="M173 646.5v0.5q0 2 2.5 4.5t4.5 1.5l109 -39l108 40h1q3 0 4.5 -2.5t-0.5 -4.5l-102 -117q-4 -4 -11 -4q-8 0 -12 4l-103 116q-1 0 -1 0.5zM570 6q0 -6 -3 -6h-133q-6 0 -22 -0.5t-50.5 49t-69.5 96.5l-70 94l-27 -27v-131q0 -30 5 -44t18.5 -19.5t41.5 -5.5q2 0 2 -6
t-2 -6q-31 0 -48 1l-67 1l-65 -1q-18 -1 -50 -1q-2 0 -2 6t2 6q29 0 42.5 5t18.5 19.5t5 44.5v306q0 30 -5 44t-18.5 19.5t-40.5 5.5q-3 0 -3 6t3 6l48 -1q40 -2 65 -2q27 0 67 2l48 1q2 0 2 -6t-2 -6q-40 0 -52.5 -14t-12.5 -57v-133l121 120q42 42 42 65q0 19 -31 19
q-2 0 -2 6t2 6l42 -1q38 -2 71 -2q43 0 77 2q10 1 23 1q3 0 3 -6t-3 -6q-39 0 -99 -29t-102 -71l-47 -47l85 -111q63 -84 95.5 -122t52.5 -51t42 -13q3 0 3 -6z" />
    <glyph glyph-name="uni01EA" unicode="&#x1ea;" horiz-adv-x="766" 
d="M680.5 172q-36.5 -68 -99.5 -114t-140 -62q-29 -29 -41.5 -54.5t-12.5 -58.5q0 -52 26 -84t71 -32q11 0 24 3.5t19 7.5h2q3 0 5.5 -3t-0.5 -5q-55 -45 -112 -45q-51 0 -84.5 32t-33.5 78q0 75 107 156q-22 -3 -45 -3q-93 0 -165.5 43.5t-112 118t-39.5 162.5
q0 103 52 176.5t133.5 110.5t166.5 37q95 0 167 -44.5t110.5 -117.5t38.5 -155q0 -79 -36.5 -147zM201.5 175.5q29.5 -76.5 81 -119.5t116.5 -43q56 0 100.5 32.5t69.5 95t25 149.5q0 92 -28 164.5t-81 113.5t-124 41q-91 0 -140 -68.5t-49 -191.5q0 -97 29.5 -173.5z" />
    <glyph glyph-name="uni01EB" unicode="&#x1eb;" horiz-adv-x="567" 
d="M303 -58q-13 -26 -13 -59q0 -52 26 -84t71 -32q11 0 24 3.5t19 7.5h2q3 0 5.5 -3t-0.5 -5q-55 -45 -112 -45q-51 0 -84.5 32t-33.5 78q0 75 107 156q-19 -3 -39 -3q-71 0 -127 33.5t-87 90t-31 122.5q0 76 39.5 132t101 85t126.5 29q71 0 125.5 -34.5t84.5 -90t30 -116.5
q0 -84 -54 -151.5t-138 -90.5q-29 -29 -42 -55zM164.5 135.5q20.5 -58.5 55.5 -91.5t78 -33q56 0 90.5 55t34.5 152q0 66 -20 120t-56.5 85.5t-84.5 31.5q-58 0 -88 -48t-30 -142q0 -71 20.5 -129.5z" />
    <glyph glyph-name="Aringacute" unicode="&#x1fa;" horiz-adv-x="716" 
d="M261 823q-3 0 -4.5 4.5t1.5 5.5l131 69q5 3 27.5 -9t40.5 -26t11 -14q-89 -10 -205 -30h-2zM279 695q-26 20 -26 48q0 30 32 48t72 18q43 0 74.5 -20t31.5 -48q0 -30 -35 -48t-81 -18q-42 0 -68 20zM320.5 786.5q-7.5 -8.5 -7.5 -23.5q0 -28 13.5 -51t36.5 -23
q26 0 26 34q0 30 -13.5 51t-35.5 21q-12 0 -19.5 -8.5zM722 6q0 -6 -5 -6q-20 0 -62 2q-44 2 -63 2q-25 0 -61 -2q-34 -2 -54 -2q-4 0 -4 6t4 6q26 0 37.5 5.5t11.5 19.5q0 17 -20 57l-104 205h-178l-71 -157q-13 -29 -13 -54q0 -36 25.5 -56t68.5 -20q5 0 5 -6t-5 -6
q-18 0 -52 2q-38 2 -66 2q-27 0 -65 -2q-34 -2 -55 -2q-4 0 -4 6t4 6q28 0 47 11.5t38 41t45 87.5l217 477q2 3 9 3q8 0 9 -3l250 -492q35 -71 58 -98t48 -27q5 0 5 -6zM237 327h151l-80 158z" />
    <glyph glyph-name="aringacute" unicode="&#x1fb;" horiz-adv-x="481" 
d="M155 666q-3 0 -4.5 4.5t1.5 5.5l131 69q5 3 27.5 -9t40.5 -26t11 -14q-89 -10 -205 -30h-2zM173 538q-26 20 -26 48q0 30 32 48t72 18q43 0 74.5 -20t31.5 -48q0 -30 -35 -48t-81 -18q-42 0 -68 20zM214.5 629.5q-7.5 -8.5 -7.5 -23.5q0 -28 13.5 -51t36.5 -23
q26 0 26 34q0 30 -13.5 51t-35.5 21q-12 0 -19.5 -8.5zM482 59q3 0 4.5 -5t-2.5 -6l-110 -53q-4 -2 -9 -2q-19 0 -37.5 16t-28.5 51l-60 -35q-30 -18 -53.5 -25t-48.5 -7q-39 0 -64 21t-25 54q0 31 20.5 54.5t57.5 36.5l166 59v119q0 61 -12.5 89t-40.5 28q-32 0 -50 -29
t-28 -74q-11 -56 -58 -56q-25 0 -39.5 12.5t-14.5 35.5q0 30 37.5 61.5t91.5 52t99 20.5q53 0 84 -27.5t31 -82.5v-213q0 -45 8 -67t20.5 -28t32.5 -6q10 0 27 5zM295 80q-3 18 -3 40v77l-86 -32q-48 -18 -48 -64q0 -27 13 -42.5t35 -15.5q16 0 44 14z" />
    <glyph glyph-name="AEacute" unicode="&#x1fc;" horiz-adv-x="888" 
d="M480 678q-4 0 -5 4.5t2 6.5q29 21 81 66q30 26 45 38q5 5 35.5 -3.5t54 -20t11.5 -13.5q-62 -15 -113.5 -33.5t-108.5 -43.5zM835 161q3 0 5.5 -1t2.5 -3q-9 -88 -9 -142q0 -8 -3.5 -11.5t-11.5 -3.5h-437q-2 0 -2 6t2 6q32 0 46.5 5t20 19.5t5.5 44.5v230h-150
l-110 -173q-26 -40 -26 -72q0 -26 19 -40t55 -14q5 0 5 -6t-5 -6q-21 0 -61 2q-46 2 -80 2q-25 0 -59 -2q-30 -2 -49 -2q-5 0 -5 6t5 6q42 0 76.5 27t77.5 93l288 442q13 18 13 25q0 9 -16.5 11.5t-60.5 2.5q-3 0 -3 6t3 6h430q10 0 10 -9l2 -133q0 -2 -5.5 -3t-6.5 2
q-6 23 -27 50t-51.5 45.5t-64.5 18.5h-42q-29 0 -43 -13t-14 -40v-204h83q58 0 88.5 20t30.5 56q0 3 6 3t6 -3l-1 -90q0 -32 1 -48l1 -54q0 -2 -5.5 -2t-5.5 2q0 41 -31.5 64.5t-90.5 23.5h-82v-226q0 -29 11 -43t35 -14h44q37 0 75.5 18t67.5 48.5t40 64.5q0 2 3 2z
M322 339h132v208z" />
    <glyph glyph-name="aeacute" unicode="&#x1fd;" horiz-adv-x="646" 
d="M267 521q-4 0 -5 4.5t2 6.5q29 21 81 66q30 26 45 38q5 5 35.5 -3.5t54 -20t11.5 -13.5q-62 -15 -113.5 -33.5t-108.5 -43.5zM643 54q3 0 6 -3.5t0 -6.5q-37 -29 -74.5 -42.5t-79.5 -13.5q-130 0 -180 96l-80 -56q-51 -35 -105 -35q-41 0 -66 21t-25 54q0 31 20.5 54.5
t57.5 36.5l168 59v10q-2 95 -7.5 141.5t-18.5 65t-39 18.5q-37 0 -53.5 -26t-22.5 -66q-4 -22 -17 -39t-37 -17q-23 0 -36 13t-13 34q0 29 33.5 58t84 48t97.5 19q44 0 68 -18.5t33 -57.5q24 36 62.5 56t85.5 20q68 0 103.5 -39t35.5 -102q0 -13 -2.5 -18t-8.5 -5l-244 -1
q-3 -28 -3 -61q0 -109 35.5 -165.5t120.5 -56.5q50 0 100 25h1zM423.5 424.5q-22.5 -32.5 -31.5 -92.5l143 3q0 122 -58 122q-31 0 -53.5 -32.5zM308 100q-17 42 -21 99l-91 -34q-47 -18 -47 -64q0 -27 12.5 -42.5t33.5 -15.5q12 0 26.5 5t25.5 13z" />
    <glyph glyph-name="Oslashacute" unicode="&#x1fe;" horiz-adv-x="789" 
d="M305 678q-4 0 -5 4.5t2 6.5q29 21 81 66q30 26 45 38q5 5 35.5 -3.5t54 -20t11.5 -13.5q-62 -15 -113.5 -33.5t-108.5 -43.5zM695 438q22 -58 22 -119q0 -91 -48 -167t-128.5 -120t-174.5 -44q-119 0 -207 73l-69 -70l-1 -1q-5 0 -13 8.5t-5 12.5l68 69q-43 45 -66.5 105
t-23.5 127q0 103 52 176.5t133.5 110.5t166.5 37q63 0 116 -20t94 -57l73 74h1q5 0 13.5 -8t5.5 -11l-73 -74q42 -44 64 -102zM211 153l336 341q-31 55 -78.5 85t-107.5 30q-91 0 -140 -68.5t-49 -191.5q0 -112 39 -196zM499.5 45.5q44.5 32.5 69.5 95t25 149.5
q0 101 -34 178l-336 -341q31 -54 76.5 -84t98.5 -30q56 0 100.5 32.5z" />
    <glyph glyph-name="oslashacute" unicode="&#x1ff;" horiz-adv-x="567" 
d="M196 521q-4 0 -5 4.5t2 6.5q29 21 81 66q30 26 45 38q5 5 35.5 -3.5t54 -20t11.5 -13.5q-62 -15 -113.5 -33.5t-108.5 -43.5zM519 330.5q18 -44.5 18 -91.5q0 -67 -35 -124.5t-95 -92t-132 -34.5q-96 0 -164 60l-56 -57l-1 -1q-5 0 -13 8.5t-5 12.5l56 56q-30 34 -46 77
t-16 90q0 76 39.5 132t101 85t126.5 29q86 0 151 -53l53 53h1q4 0 12.5 -8t5.5 -11l-52 -52q33 -34 51 -78.5zM163 139l227 229q-22 41 -54.5 64t-73.5 23q-58 0 -88 -48t-30 -142q0 -67 19 -126zM388.5 66q34.5 55 34.5 152q0 71 -21 123l-228 -230q21 -47 53.5 -73.5
t70.5 -26.5q56 0 90.5 55z" />
    <glyph glyph-name="Scommaaccent" unicode="&#x218;" horiz-adv-x="515" 
d="M391 304q30 -24 51 -58.5t21 -79.5q0 -52 -28 -92.5t-77.5 -63t-110.5 -22.5q-45 0 -94 12.5t-66 27.5q-5 4 -7.5 7.5t-2.5 11.5l-3 159v1q0 4 5 4.5t6 -3.5q30 -61 52.5 -99t57 -67t78.5 -29q40 0 66 21.5t26 73.5q0 44 -19.5 77t-47.5 56t-77 55q-48 31 -74.5 53
t-45.5 53t-19 73q0 53 30.5 89.5t78.5 54t101 17.5q35 0 71 -6.5t58 -15.5q9 -4 12 -8.5t3 -11.5v-147q0 -3 -5 -4.5t-6 1.5l-8 19q-25 63 -58.5 107t-93.5 44q-40 0 -65.5 -23t-25.5 -67q0 -36 18.5 -64t45.5 -49t73 -51q50 -32 80 -56zM322 -91q18 -22 18 -59
q0 -39 -20 -69t-56 -56l-2 -1q-4 0 -6 4.5t1 6.5q22 16 35 32.5t13 34.5q0 23 -10 33q-10 -19 -41 -19q-21 0 -35 16t-14 41q0 27 19 42.5t46 15.5q34 0 52 -22z" />
    <glyph glyph-name="scommaaccent" unicode="&#x219;" horiz-adv-x="422" 
d="M328.5 235.5q25.5 -16.5 44 -42.5t18.5 -62q0 -40 -23.5 -72.5t-64.5 -51.5t-92 -19q-46 0 -89.5 11.5t-60.5 25.5q-8 5 -8 21l-5 113q0 4 5 5t7 -3q38 -66 77 -108t89 -42q30 0 50 18t20 54q0 32 -16.5 56t-40.5 40.5t-64 38.5q-59 32 -90 60.5t-31 74.5q0 58 51 92.5
t123 34.5q32 0 67 -7t56 -16q9 -3 12 -7.5t3 -12.5v-95q0 -3 -5 -4.5t-7 1.5q-19 40 -53 79t-90 39q-34 0 -51 -17.5t-17 -45.5t15.5 -48.5t38 -35t61.5 -34.5q45 -24 70.5 -40.5zM272 -91q18 -22 18 -59q0 -39 -20 -69t-56 -56l-2 -1q-4 0 -6 4.5t1 6.5q22 16 35 32.5
t13 34.5q0 23 -10 33q-10 -19 -41 -19q-21 0 -35 16t-14 41q0 27 19 42.5t46 15.5q34 0 52 -22z" />
    <glyph glyph-name="uni021A" unicode="&#x21a;" horiz-adv-x="643" 
d="M600.5 654q5.5 0 5.5 -4q-3 -30 -6.5 -96t-3.5 -106q0 -3 -5 -3t-6 3q-15 77 -56 115.5t-101 38.5q-29 0 -38.5 -12.5t-9.5 -47.5v-461q0 -31 6 -45t23 -19t54 -5q3 0 3 -6t-3 -6q-36 0 -57 1l-83 1l-81 -1q-21 -1 -58 -1q-3 0 -3 6t3 6q36 0 53.5 5t24 19.5t6.5 44.5
v463q0 34 -9 46t-37 12q-119 0 -171 -155q-1 -3 -6 -2.5t-5 3.5q4 40 9 103.5t5 95.5q0 5 5.5 5t5.5 -5q0 -22 57 -22q86 -3 201 -3q59 0 125 2l68 1q38 0 55.5 5t22.5 20q1 4 6.5 4zM374 -91q18 -22 18 -59q0 -39 -20 -69t-56 -56l-2 -1q-4 0 -6 4.5t1 6.5q22 16 35 32.5
t13 34.5q0 23 -10 33q-10 -19 -41 -19q-21 0 -35 16t-14 41q0 27 19 42.5t46 15.5q34 0 52 -22z" />
    <glyph glyph-name="uni021B" unicode="&#x21b;" horiz-adv-x="380" 
d="M361 58q4 0 5.5 -4t-1.5 -6q-41 -33 -73.5 -46.5t-72.5 -13.5q-60 0 -101 32t-41 106v262q0 27 -11.5 36t-42.5 9q-3 0 -3 9t3 9q51 0 89 22t49 58q2 3 6 3t7 -1.5t3 -3.5v-73q69 1 161 9q3 0 5 -7t2 -17t-3.5 -19.5t-6.5 -8.5q-47 12 -158 16v-280q0 -119 88 -119
q54 0 94 27zM267 -91q18 -22 18 -59q0 -39 -20 -69t-56 -56l-2 -1q-4 0 -6 4.5t1 6.5q22 16 35 32.5t13 34.5q0 23 -10 33q-10 -19 -41 -19q-21 0 -35 16t-14 41q0 27 19 42.5t46 15.5q34 0 52 -22z" />
    <glyph glyph-name="uni0232" unicode="&#x232;" horiz-adv-x="619" 
d="M191 718.5q-3 5.5 -3 13.5q0 7 3 12.5t7 5.5h251q5 0 8 -5.5t3 -12.5q0 -8 -3 -13.5t-8 -5.5h-251q-4 0 -7 5.5zM627 619q0 -6 -2 -6q-31 0 -76 -38.5t-80 -96.5l-104 -174v-223q0 -31 5 -45t19.5 -19t46.5 -5q3 0 3 -6t-3 -6q-33 0 -52 1l-75 1l-74 -1q-20 -1 -54 -1
q-2 0 -2 6t2 6q32 0 47 5t20.5 19.5t5.5 44.5v202l-146 227q-37 58 -61.5 80.5t-41.5 22.5q-3 0 -3 6t3 6l31 -1q22 -2 31 -2q35 0 101 2l66 1q2 0 2 -6t-2 -6q-17 0 -26.5 -8t-9.5 -21q0 -16 14 -38l137 -216l92 157q27 45 27 77q0 24 -14.5 36.5t-41.5 12.5q-3 0 -3 6t3 6
l53 -1q46 -2 82 -2q17 0 41 2l37 1q2 0 2 -6z" />
    <glyph glyph-name="uni0233" unicode="&#x233;" horiz-adv-x="511" 
d="M132 561.5q-3 5.5 -3 13.5q0 7 3 12.5t7 5.5h251q5 0 8 -5.5t3 -12.5q0 -8 -3 -13.5t-8 -5.5h-251q-4 0 -7 5.5zM518 462q0 -6 -2 -6q-30 0 -54.5 -24t-38.5 -66l-141 -365q-24 -66 -60 -117t-75 -71q-6 -4 -20.5 7.5t-23.5 28.5q-10 23 -10 42q0 17 8 19q56 8 95.5 28.5
t62.5 63.5l-184 383q-20 42 -35 56.5t-41 14.5q-3 0 -3 6t3 6l44 -1q38 -2 73 -2q25 0 63 2l44 1q3 0 3 -6t-3 -6q-52 0 -52 -30q0 -13 9 -31l128 -260l88 237q8 22 8 38q0 46 -62 46q-3 0 -3 6t3 6l35 -1q32 -2 63 -2q17 0 39 2l37 1q2 0 2 -6z" />
    <glyph glyph-name="uni0237" unicode="&#x237;" horiz-adv-x="263" 
d="M188 360q-2 -40 -2 -98v-310q0 -68 -16.5 -111.5t-55 -72.5t-106.5 -50q-2 -1 -4.5 4.5t0.5 6.5q48 21 68 67t20 133v331q0 34 -6.5 49t-22.5 15q-13 0 -37 -11h-1q-4 0 -6.5 5.5t0.5 6.5l151 70l3 1q5 0 10 -5t5 -9v-22z" />
    <glyph glyph-name="uni0251" unicode="&#x251;" horiz-adv-x="556" 
d="M562 6q0 -6 -5 -6q-21 0 -63 2q-44 2 -62 2q-17 0 -53 -2q-34 -2 -48 -2q-4 0 -4 6t4 6q23 0 32.5 5.5t9.5 16.5q0 14 -17 50l-60 129h-116l-38 -90q-18 -42 -18 -66t17 -34.5t53 -10.5q5 0 5 -6t-5 -6q-14 0 -40 2q-28 2 -52 2q-25 0 -59 -2q-30 -2 -49 -2q-5 0 -5 6
t5 6q31 0 50 9t35.5 34t38.5 77l150 351q2 4 6 4t6 -4l160 -346q25 -54 41.5 -80t33.5 -35.5t42 -9.5q5 0 5 -6zM191 239h93l-49 105z" />
    <glyph glyph-name="uni0259" unicode="&#x259;" horiz-adv-x="453" 
d="M313 447q52 -30 80.5 -83t28.5 -120q0 -72 -34 -130.5t-91.5 -92t-125.5 -33.5q-74 0 -113 39t-39 103q0 12 2.5 17t8.5 5l284 1q3 24 3 54q0 233 -173 233q-66 0 -111 -28l-2 -1q-3 0 -5 4t0 6q74 56 166 56q69 0 121 -30zM274 44q27 31 37 90l-185 -3q0 -118 80 -118
q41 0 68 31z" />
    <glyph glyph-name="uni0261" unicode="&#x261;" horiz-adv-x="551" 
d="M151.5 21.5q-59.5 33.5 -90.5 88.5t-31 116q0 78 35.5 135.5t100.5 88t153 30.5q44 0 84.5 -8t67.5 -23q7 -3 8.5 -7t2.5 -15l5 -94q0 -3 -5.5 -3.5t-6.5 2.5q-77 126 -179 126q-71 0 -111.5 -57t-40.5 -162q0 -102 46 -165t125 -63q40 0 58.5 8.5t25 32t6.5 74.5
q0 26 -4 36.5t-17 14t-45 3.5q-6 0 -6 8q0 3 1.5 5.5t3.5 2.5q52 -4 105 -4q24 0 80 2q2 0 3.5 -2.5t1.5 -4.5q0 -7 -5 -7q-15 1 -21 -3t-8 -16.5t-2 -44.5q0 -45 2.5 -63t2.5 -25q0 -6 -2 -7.5t-10 -4.5q-67 -28 -194 -28q-80 0 -139.5 33.5z" />
    <glyph glyph-name="uni02BB" unicode="&#x2bb;" horiz-adv-x="219" 
d="M163 582q14 -16 14 -41q0 -27 -19 -42.5t-46 -15.5q-34 0 -52 22t-18 59q0 39 20 69t56 56l2 1q4 0 6 -4.5t-1 -6.5q-22 -16 -35 -32.5t-13 -34.5q0 -23 10 -33q10 19 41 19q21 0 35 -16z" />
    <glyph glyph-name="uni02BC" unicode="&#x2bc;" horiz-adv-x="178" 
d="M144.5 598q19.5 -27 19.5 -77q0 -45 -20 -83.5t-60 -77.5q-1 -1 -3 -1q-3 0 -5 3t0 5q49 50 49 118q0 28 -10 41q-9 -15 -37 -15q-24 0 -38.5 15.5t-14.5 40.5q0 27 17.5 42.5t47.5 15.5q35 0 54.5 -27z" />
    <glyph glyph-name="uni02BE" unicode="&#x2be;" horiz-adv-x="202" 
d="M130 603.5q31 -21.5 31 -58.5q0 -36 -31 -56.5t-84 -20.5q-4 0 -4 6t4 6q43 0 43 65q0 32 -11.5 50t-31.5 18q-4 0 -4 6t4 6q53 0 84 -21.5z" />
    <glyph glyph-name="uni02BF" unicode="&#x2bf;" horiz-adv-x="196" 
d="M72 489q-31 21 -31 58q0 36 31 57t85 21q5 0 5 -6t-5 -6q-23 0 -33.5 -16.5t-10.5 -49.5q0 -31 12 -49t32 -18q5 0 5 -6t-5 -6q-54 0 -85 21z" />
    <glyph glyph-name="circumflex" unicode="&#x2c6;" horiz-adv-x="262" 
d="M126 567q5 5 12 5q6 0 11 -5l102 -116q1 0 1 -2t-2.5 -4t-3.5 -1l-108 39l-109 -39q-2 -1 -5 2.5t-1 4.5z" />
    <glyph glyph-name="caron" unicode="&#x2c7;" horiz-adv-x="262" 
d="M23 564q-1 0 -1 0.5v0.5q0 2 2.5 4.5t4.5 1.5l109 -39l108 40h1q3 0 4.5 -2.5t-0.5 -4.5l-102 -117q-4 -4 -11 -4q-8 0 -12 4z" />
    <glyph glyph-name="uni02C8" unicode="&#x2c8;" horiz-adv-x="221" 
d="M130.5 448q-8.5 -2 -19.5 -2q-12 0 -20.5 2t-8.5 5v122q0 7 29 7q28 0 28 -7v-122q0 -3 -8.5 -5z" />
    <glyph glyph-name="uni02CA" unicode="&#x2ca;" horiz-adv-x="275" 
d="M26 439q-4 0 -5 4.5t2 6.5q29 21 81 66q30 26 45 38q5 5 35.5 -3.5t54 -20t11.5 -13.5q-62 -15 -113.5 -33.5t-108.5 -43.5z" />
    <glyph glyph-name="uni02CB" unicode="&#x2cb;" horiz-adv-x="274" 
d="M100 483.5q-33 17.5 -75 33.5q-10 4 7 13.5t44.5 18t41.5 8.5q7 0 8 -3q4 -8 20.5 -42t34.5 -62q1 -1 1 -3q0 -3 -2.5 -5.5t-6.5 -1.5q-40 26 -73 43.5z" />
    <glyph glyph-name="uni02CC" unicode="&#x2cc;" horiz-adv-x="225" 
d="M130 -218.5q-9 -1.5 -19 -1.5q-29 0 -29 6v123q0 6 29 6q10 0 19 -1.5t9 -4.5v-123q0 -3 -9 -4.5z" />
    <glyph glyph-name="breve" unicode="&#x2d8;" horiz-adv-x="275" 
d="M40.5 581q5.5 0 5.5 -2q0 -18 27 -34t65 -16q37 0 64 16t27 34q0 2 5.5 2t5.5 -3q0 -62 -26 -94.5t-76 -32.5t-76.5 32.5t-26.5 94.5q0 3 5.5 3z" />
    <glyph glyph-name="dotaccent" unicode="&#x2d9;" horiz-adv-x="146" 
d="M29 477q-16 16 -16 45q0 26 16.5 41.5t44.5 15.5t43 -15t15 -42q0 -29 -15 -45t-43 -16q-29 0 -45 16z" />
    <glyph glyph-name="ring" unicode="&#x2da;" horiz-adv-x="309" 
d="M70 491.5q-29 23.5 -29 55.5q0 36 36 57t80 21t75 -23.5t31 -56.5q0 -35 -35 -56t-81 -21q-48 0 -77 23.5zM182.5 493q6.5 11 6.5 34q0 34 -15 59t-37 25q-24 0 -24 -44q0 -33 13.5 -59t36.5 -26q13 0 19.5 11z" />
    <glyph glyph-name="ogonek" unicode="&#x2db;" horiz-adv-x="268" 
d="M177 1q-32 -31 -45.5 -57.5t-13.5 -60.5q0 -52 26 -84t71 -32q11 0 24 3.5t19 7.5h2q3 0 5.5 -3t-0.5 -5q-55 -45 -112 -45q-51 0 -84.5 32t-33.5 78q0 83 128 171z" />
    </font>
</defs>
</svg>
